G04 MADE WITH FRITZING*
G04 WWW.FRITZING.ORG*
G04 DOUBLE SIDED*
G04 HOLES PLATED*
G04 CONTOUR ON CENTER OF CONTOUR VECTOR*
%ASAXBY*%
%FSLAX23Y23*%
%MOIN*%
%OFA0B0*%
%SFA1.0B1.0*%
%ADD10C,0.078000*%
%ADD11C,0.074049*%
%ADD12C,0.073521*%
%ADD13C,0.070000*%
%ADD14C,0.039370*%
%ADD15C,0.075000*%
%ADD16C,0.082677*%
%ADD17C,0.074000*%
%ADD18C,0.066000*%
%ADD19C,0.140000*%
%ADD20C,0.052000*%
%ADD21R,0.069685X0.057874*%
%ADD22R,0.078000X0.078000*%
%ADD23R,0.074000X0.074000*%
%ADD24R,0.088000X0.048000*%
%ADD25R,0.086614X0.141732*%
%ADD26R,0.078740X0.047244*%
%ADD27R,0.055118X0.059055*%
%ADD28R,0.059055X0.055118*%
%ADD29C,0.012000*%
%ADD30C,0.024000*%
%ADD31R,0.001000X0.001000*%
%LNCOPPER1*%
G90*
G70*
G54D10*
X2089Y1106D03*
X1782Y1106D03*
G54D11*
X3371Y328D03*
G54D12*
X3271Y328D03*
G54D11*
X3171Y328D03*
X3071Y328D03*
G54D13*
X1671Y898D03*
X1671Y998D03*
X1671Y898D03*
X1671Y998D03*
G54D14*
X541Y888D03*
X511Y508D03*
X2041Y698D03*
G54D15*
X3741Y887D03*
X3741Y1064D03*
G54D16*
X3640Y852D03*
X3640Y1096D03*
G54D15*
X3745Y318D03*
X3745Y495D03*
G54D16*
X3644Y283D03*
X3644Y527D03*
G54D17*
X3151Y1278D03*
X3251Y1278D03*
X3351Y1278D03*
X3451Y1278D03*
X3550Y1278D03*
X3251Y101D03*
X3351Y101D03*
X3451Y101D03*
X3550Y101D03*
X3151Y101D03*
X3151Y1278D03*
X3251Y1278D03*
X3351Y1278D03*
X3451Y1278D03*
X3550Y1278D03*
X3251Y101D03*
X3351Y101D03*
X3451Y101D03*
X3550Y101D03*
X3151Y101D03*
X2201Y1278D03*
X2301Y1278D03*
X2401Y1278D03*
X2501Y1278D03*
X2600Y1278D03*
X2301Y101D03*
X2401Y101D03*
X2501Y101D03*
X2600Y101D03*
X2201Y101D03*
X2201Y1278D03*
X2301Y1278D03*
X2401Y1278D03*
X2501Y1278D03*
X2600Y1278D03*
X2301Y101D03*
X2401Y101D03*
X2501Y101D03*
X2600Y101D03*
X2201Y101D03*
X1251Y1278D03*
X1351Y1278D03*
X1451Y1278D03*
X1551Y1278D03*
X1650Y1278D03*
X1351Y101D03*
X1451Y101D03*
X1551Y101D03*
X1650Y101D03*
X1251Y101D03*
X1251Y1278D03*
X1351Y1278D03*
X1451Y1278D03*
X1551Y1278D03*
X1650Y1278D03*
X1351Y101D03*
X1451Y101D03*
X1551Y101D03*
X1650Y101D03*
X1251Y101D03*
X301Y1278D03*
X401Y1278D03*
X501Y1278D03*
X601Y1278D03*
X700Y1278D03*
X401Y101D03*
X501Y101D03*
X601Y101D03*
X700Y101D03*
X301Y101D03*
X301Y1278D03*
X401Y1278D03*
X501Y1278D03*
X601Y1278D03*
X700Y1278D03*
X401Y101D03*
X501Y101D03*
X601Y101D03*
X700Y101D03*
X301Y101D03*
G54D18*
X1858Y90D03*
X2015Y90D03*
X1858Y90D03*
X2015Y90D03*
G54D19*
X544Y1020D03*
X304Y1020D03*
X424Y830D03*
G54D20*
X1691Y488D03*
X1791Y488D03*
X2291Y488D03*
X2391Y488D03*
X1891Y488D03*
X1991Y488D03*
X2191Y488D03*
X2091Y488D03*
X2491Y488D03*
X2491Y788D03*
X2391Y788D03*
X2291Y788D03*
X2191Y788D03*
X2091Y788D03*
X1991Y788D03*
X1891Y788D03*
X1791Y788D03*
X1691Y788D03*
X2591Y488D03*
X2691Y488D03*
X2791Y488D03*
X2791Y788D03*
X2691Y788D03*
X2591Y788D03*
X1691Y488D03*
X1791Y488D03*
X2291Y488D03*
X2391Y488D03*
X1891Y488D03*
X1991Y488D03*
X2191Y488D03*
X2091Y488D03*
X2491Y488D03*
X2491Y788D03*
X2391Y788D03*
X2291Y788D03*
X2191Y788D03*
X2091Y788D03*
X1991Y788D03*
X1891Y788D03*
X1791Y788D03*
X1691Y788D03*
X2591Y488D03*
X2691Y488D03*
X2791Y488D03*
X2791Y788D03*
X2691Y788D03*
X2591Y788D03*
G54D10*
X1138Y99D03*
X1038Y99D03*
X938Y99D03*
X838Y99D03*
G54D21*
X91Y768D03*
X280Y768D03*
G54D22*
X2089Y1106D03*
G54D23*
X3151Y1278D03*
X3151Y1278D03*
X2201Y1278D03*
X2201Y1278D03*
X1251Y1278D03*
X1251Y1278D03*
X301Y1278D03*
X301Y1278D03*
G54D24*
X105Y506D03*
X105Y415D03*
X105Y324D03*
G54D25*
X349Y415D03*
G54D26*
X106Y217D03*
X217Y217D03*
X211Y608D03*
X101Y608D03*
G54D27*
X2286Y935D03*
X2205Y935D03*
X621Y408D03*
X702Y408D03*
X3081Y228D03*
X3162Y228D03*
X621Y608D03*
X702Y608D03*
X621Y508D03*
X702Y508D03*
G54D28*
X1361Y1148D03*
X1361Y1067D03*
X1281Y1068D03*
X1281Y1149D03*
X1201Y1148D03*
X1201Y1067D03*
G54D29*
X271Y688D02*
X281Y698D01*
D02*
X41Y328D02*
X31Y338D01*
D02*
X31Y338D02*
X31Y678D01*
D02*
X31Y678D02*
X41Y688D01*
D02*
X41Y688D02*
X271Y688D01*
D02*
X66Y327D02*
X41Y328D01*
D02*
X281Y698D02*
X280Y745D01*
D02*
X452Y958D02*
X530Y896D01*
D02*
X280Y792D02*
X280Y869D01*
D02*
X280Y869D02*
X452Y958D01*
D02*
X491Y1018D02*
X489Y1018D01*
D02*
X91Y808D02*
X491Y1018D01*
D02*
X91Y792D02*
X91Y808D01*
D02*
X1471Y328D02*
X1461Y338D01*
D02*
X2781Y328D02*
X1471Y328D01*
D02*
X1461Y458D02*
X1451Y468D01*
D02*
X1461Y338D02*
X1461Y458D01*
D02*
X1451Y468D02*
X1131Y468D01*
D02*
X2791Y338D02*
X2781Y328D01*
D02*
X2791Y467D02*
X2791Y338D01*
D02*
X1121Y398D02*
X1121Y397D01*
D02*
X1121Y458D02*
X1121Y398D01*
D02*
X1131Y468D02*
X1121Y458D01*
D02*
X901Y788D02*
X891Y798D01*
D02*
X1511Y788D02*
X901Y788D01*
D02*
X1361Y1017D02*
X1361Y1045D01*
D02*
X1201Y1045D02*
X1202Y1017D01*
D02*
X1305Y1149D02*
X1337Y1148D01*
D02*
X1225Y1148D02*
X1257Y1149D01*
D02*
X821Y1149D02*
X811Y1139D01*
D02*
X1177Y1148D02*
X821Y1149D01*
D02*
X811Y1139D02*
X810Y1017D01*
D02*
X631Y978D02*
X620Y968D01*
D02*
X792Y978D02*
X631Y978D01*
D02*
X620Y968D02*
X621Y632D01*
D02*
X1551Y628D02*
X1541Y638D01*
D02*
X2781Y628D02*
X1551Y628D01*
D02*
X1541Y798D02*
X1531Y808D01*
D02*
X1541Y638D02*
X1541Y798D01*
D02*
X1050Y808D02*
X1041Y818D01*
D02*
X1531Y808D02*
X1050Y808D01*
D02*
X2791Y639D02*
X2781Y628D01*
D02*
X2791Y767D02*
X2791Y639D01*
D02*
X1041Y938D02*
X1041Y939D01*
D02*
X1041Y818D02*
X1041Y938D01*
D02*
X1282Y1017D02*
X1281Y1046D01*
D02*
X1611Y898D02*
X1650Y898D01*
D02*
X1601Y908D02*
X1611Y898D01*
D02*
X1751Y1108D02*
X1611Y1108D01*
D02*
X1611Y1108D02*
X1601Y1098D01*
D02*
X1757Y1108D02*
X1751Y1108D01*
D02*
X1601Y1098D02*
X1601Y908D01*
D02*
X2121Y1108D02*
X2113Y1108D01*
D02*
X2331Y1108D02*
X2121Y1108D01*
D02*
X2341Y1098D02*
X2331Y1108D01*
D02*
X2341Y668D02*
X2341Y1098D01*
D02*
X2331Y658D02*
X2341Y668D01*
D02*
X1571Y658D02*
X2331Y658D01*
D02*
X1561Y668D02*
X1571Y658D01*
D02*
X1561Y818D02*
X1561Y668D01*
D02*
X1551Y828D02*
X1561Y818D01*
D02*
X1121Y938D02*
X1121Y838D01*
D02*
X1121Y939D02*
X1121Y938D01*
D02*
X1131Y828D02*
X1551Y828D01*
D02*
X1121Y838D02*
X1131Y828D01*
D02*
X1051Y298D02*
X1041Y308D01*
D02*
X1151Y298D02*
X1051Y298D01*
D02*
X1161Y308D02*
X1151Y298D01*
D02*
X1162Y435D02*
X1161Y308D01*
D02*
X1171Y448D02*
X1162Y435D01*
D02*
X1431Y448D02*
X1171Y448D01*
D02*
X1441Y438D02*
X1431Y448D01*
D02*
X1441Y318D02*
X1441Y438D01*
D02*
X2301Y1368D02*
X3241Y1368D01*
D02*
X3251Y1358D02*
X3251Y1304D01*
D02*
X3241Y1368D02*
X3251Y1358D01*
D02*
X2301Y1304D02*
X2301Y1368D01*
D02*
X2301Y1368D02*
X2301Y1304D01*
D02*
X1351Y1368D02*
X2301Y1368D01*
D02*
X1351Y1304D02*
X1351Y1368D01*
D02*
X1350Y1368D02*
X1351Y1304D01*
D02*
X411Y1368D02*
X1350Y1368D01*
D02*
X401Y1358D02*
X411Y1368D01*
D02*
X401Y1304D02*
X401Y1358D01*
D02*
X1551Y1198D02*
X1551Y1253D01*
D02*
X611Y1198D02*
X1551Y1198D01*
D02*
X601Y1208D02*
X611Y1198D01*
D02*
X601Y1253D02*
X601Y1208D01*
D02*
X1651Y1318D02*
X1651Y1304D01*
D02*
X1641Y1328D02*
X1651Y1318D01*
D02*
X1511Y1328D02*
X1641Y1328D01*
D02*
X1501Y1318D02*
X1511Y1328D01*
D02*
X1501Y1238D02*
X1501Y1318D01*
D02*
X1491Y1228D02*
X1501Y1238D01*
D02*
X711Y1228D02*
X1491Y1228D01*
D02*
X701Y1239D02*
X711Y1228D01*
D02*
X700Y1253D02*
X701Y1239D01*
D02*
X2502Y1199D02*
X1551Y1198D01*
D02*
X1551Y1198D02*
X1551Y1253D01*
D02*
X2501Y1253D02*
X2502Y1199D01*
D02*
X2591Y1328D02*
X2461Y1328D01*
D02*
X2461Y1328D02*
X2450Y1318D01*
D02*
X2601Y1318D02*
X2591Y1328D01*
D02*
X2451Y1238D02*
X2441Y1228D01*
D02*
X2451Y1318D02*
X2451Y1238D01*
D02*
X1661Y1228D02*
X1651Y1238D01*
D02*
X2441Y1228D02*
X1661Y1228D01*
D02*
X1651Y1238D02*
X1651Y1253D01*
D02*
X2600Y1304D02*
X2601Y1318D01*
D02*
X3441Y1198D02*
X2501Y1198D01*
D02*
X3451Y1208D02*
X3441Y1198D01*
D02*
X2501Y1198D02*
X2501Y1253D01*
D02*
X3451Y1253D02*
X3451Y1208D01*
D02*
X2601Y1238D02*
X2600Y1253D01*
D02*
X3541Y1328D02*
X3411Y1328D01*
D02*
X3411Y1328D02*
X3401Y1318D01*
D02*
X3551Y1318D02*
X3541Y1328D01*
D02*
X3401Y1238D02*
X3391Y1228D01*
D02*
X3401Y1318D02*
X3401Y1238D01*
D02*
X2611Y1228D02*
X2601Y1238D01*
D02*
X3391Y1228D02*
X2611Y1228D01*
D02*
X3551Y1304D02*
X3551Y1318D01*
D02*
X411Y18D02*
X401Y28D01*
D02*
X1351Y18D02*
X411Y18D01*
D02*
X401Y28D02*
X401Y76D01*
D02*
X1351Y76D02*
X1351Y18D01*
D02*
X1651Y49D02*
X1650Y76D01*
D02*
X1641Y38D02*
X1651Y49D01*
D02*
X1491Y158D02*
X1501Y148D01*
D02*
X1311Y158D02*
X1491Y158D01*
D02*
X1301Y148D02*
X1311Y158D01*
D02*
X1301Y48D02*
X1301Y148D01*
D02*
X1291Y38D02*
X1301Y48D01*
D02*
X1501Y148D02*
X1501Y49D01*
D02*
X1511Y38D02*
X1641Y38D01*
D02*
X1501Y49D02*
X1511Y38D01*
D02*
X711Y38D02*
X1291Y38D01*
D02*
X701Y49D02*
X711Y38D01*
D02*
X700Y76D02*
X701Y49D01*
D02*
X1651Y148D02*
X1650Y127D01*
D02*
X2461Y38D02*
X2450Y48D01*
D02*
X2591Y38D02*
X2461Y38D01*
D02*
X2601Y48D02*
X2591Y38D01*
D02*
X1661Y158D02*
X1650Y148D01*
D02*
X2441Y158D02*
X1661Y158D01*
D02*
X2451Y148D02*
X2441Y158D01*
D02*
X2451Y48D02*
X2451Y148D01*
D02*
X2600Y76D02*
X2601Y48D01*
D02*
X2501Y178D02*
X2501Y127D01*
D02*
X1561Y178D02*
X2501Y178D01*
D02*
X1551Y168D02*
X1561Y178D01*
D02*
X1551Y127D02*
X1551Y168D01*
D02*
X2301Y18D02*
X1351Y18D01*
D02*
X1351Y18D02*
X1351Y76D01*
D02*
X2301Y76D02*
X2301Y18D01*
D02*
X3251Y28D02*
X3241Y18D01*
D02*
X3251Y76D02*
X3250Y28D01*
D02*
X3241Y18D02*
X2301Y18D01*
D02*
X2301Y18D02*
X2301Y76D01*
D02*
X2501Y178D02*
X2501Y127D01*
D02*
X3441Y178D02*
X2501Y178D01*
D02*
X3451Y168D02*
X3441Y178D01*
D02*
X3451Y127D02*
X3451Y168D01*
D02*
X2601Y148D02*
X2600Y127D01*
D02*
X3411Y18D02*
X3401Y28D01*
D02*
X3541Y18D02*
X3411Y18D01*
D02*
X2611Y158D02*
X2601Y148D01*
D02*
X3401Y159D02*
X2611Y158D01*
D02*
X3401Y28D02*
X3401Y158D01*
D02*
X3551Y28D02*
X3541Y18D01*
D02*
X3550Y76D02*
X3551Y28D01*
D02*
X2001Y588D02*
X2491Y588D01*
D02*
X1991Y578D02*
X2001Y588D01*
D02*
X2491Y588D02*
X2491Y510D01*
D02*
X1991Y510D02*
X1991Y578D01*
D02*
X2201Y998D02*
X1691Y998D01*
D02*
X2211Y988D02*
X2201Y998D01*
D02*
X2211Y958D02*
X2211Y988D01*
D02*
X2205Y935D02*
X2211Y958D01*
D02*
X3731Y588D02*
X2491Y588D01*
D02*
X2491Y588D02*
X2491Y510D01*
D02*
X3741Y528D02*
X3741Y578D01*
D02*
X3741Y578D02*
X3731Y588D01*
D02*
X3742Y518D02*
X3741Y528D01*
D02*
X1137Y140D02*
X1137Y124D01*
D02*
X1321Y229D02*
X1137Y140D01*
D02*
X3059Y228D02*
X1321Y229D01*
D02*
X1201Y418D02*
X1202Y397D01*
D02*
X1211Y428D02*
X1201Y418D01*
D02*
X1411Y428D02*
X1211Y428D01*
D02*
X1421Y418D02*
X1411Y428D01*
D02*
X1421Y298D02*
X1421Y418D01*
D02*
X3001Y288D02*
X1431Y288D01*
D02*
X1431Y288D02*
X1421Y298D01*
D02*
X3011Y298D02*
X3001Y288D01*
D02*
X3011Y378D02*
X3011Y298D01*
D02*
X3171Y354D02*
X3171Y378D01*
D02*
X3021Y388D02*
X3011Y378D01*
D02*
X3161Y388D02*
X3021Y388D01*
D02*
X3171Y378D02*
X3161Y388D01*
D02*
X891Y798D02*
X891Y939D01*
D02*
X1521Y778D02*
X1511Y788D01*
D02*
X1521Y498D02*
X1521Y778D01*
D02*
X1531Y488D02*
X1521Y498D01*
D02*
X1669Y488D02*
X1531Y488D01*
D02*
X1281Y938D02*
X1281Y939D01*
D02*
X1281Y858D02*
X1281Y938D01*
D02*
X1581Y838D02*
X1571Y848D01*
D02*
X1581Y708D02*
X1581Y838D01*
D02*
X1291Y848D02*
X1281Y858D01*
D02*
X1571Y848D02*
X1291Y848D01*
D02*
X1591Y698D02*
X1581Y708D01*
D02*
X2027Y698D02*
X1591Y698D01*
D02*
X105Y306D02*
X106Y235D01*
D02*
X351Y598D02*
X349Y481D01*
D02*
X341Y608D02*
X351Y598D01*
D02*
X245Y608D02*
X341Y608D01*
D02*
X101Y518D02*
X105Y506D01*
D02*
X101Y590D02*
X101Y518D01*
D02*
X131Y508D02*
X105Y506D01*
D02*
X201Y508D02*
X131Y508D01*
D02*
X211Y498D02*
X201Y508D01*
D02*
X211Y228D02*
X211Y498D01*
D02*
X217Y217D02*
X211Y228D01*
G54D30*
D02*
X621Y584D02*
X621Y532D01*
G54D29*
D02*
X98Y647D02*
X100Y626D01*
D02*
X111Y658D02*
X98Y647D01*
D02*
X411Y658D02*
X111Y658D01*
D02*
X421Y668D02*
X411Y658D01*
D02*
X423Y774D02*
X421Y668D01*
D02*
X511Y428D02*
X501Y418D01*
D02*
X501Y418D02*
X386Y416D01*
D02*
X511Y495D02*
X511Y428D01*
D02*
X599Y508D02*
X524Y508D01*
D02*
X611Y218D02*
X250Y217D01*
D02*
X621Y228D02*
X611Y218D01*
D02*
X621Y384D02*
X621Y228D01*
D02*
X1441Y988D02*
X1431Y978D01*
D02*
X1431Y978D02*
X1379Y978D01*
D02*
X1441Y1158D02*
X1441Y988D01*
D02*
X1451Y1168D02*
X1441Y1158D01*
D02*
X3541Y1168D02*
X1450Y1168D01*
D02*
X3551Y1158D02*
X3541Y1168D01*
D02*
X3551Y1048D02*
X3551Y1158D01*
D02*
X3561Y1038D02*
X3550Y1048D01*
D02*
X3701Y1038D02*
X3561Y1038D01*
D02*
X3721Y1052D02*
X3701Y1038D01*
D02*
X731Y418D02*
X724Y416D01*
D02*
X881Y418D02*
X731Y418D01*
D02*
X891Y408D02*
X881Y418D01*
D02*
X891Y397D02*
X891Y408D01*
D02*
X3078Y252D02*
X3073Y302D01*
D02*
X3164Y252D02*
X3168Y302D01*
D02*
X1041Y308D02*
X1042Y319D01*
D02*
X1451Y308D02*
X1441Y318D01*
D02*
X2981Y308D02*
X1451Y308D01*
D02*
X2991Y318D02*
X2981Y308D01*
D02*
X2991Y398D02*
X2991Y318D01*
D02*
X3001Y408D02*
X2991Y398D01*
D02*
X3741Y408D02*
X3001Y408D01*
D02*
X3751Y348D02*
X3751Y398D01*
D02*
X3751Y398D02*
X3741Y408D01*
D02*
X3750Y341D02*
X3751Y348D01*
D02*
X3771Y498D02*
X3768Y498D01*
D02*
X3801Y498D02*
X3771Y498D01*
D02*
X3811Y488D02*
X3801Y498D01*
D02*
X3381Y218D02*
X3801Y218D01*
D02*
X3371Y228D02*
X3381Y218D01*
D02*
X3811Y228D02*
X3811Y488D01*
D02*
X3801Y218D02*
X3811Y228D01*
D02*
X3371Y302D02*
X3371Y228D01*
D02*
X1031Y608D02*
X724Y608D01*
D02*
X1041Y598D02*
X1031Y608D01*
D02*
X1041Y398D02*
X1041Y598D01*
D02*
X1041Y397D02*
X1041Y398D01*
D02*
X961Y508D02*
X724Y508D01*
D02*
X971Y398D02*
X971Y498D01*
D02*
X971Y498D02*
X961Y508D01*
D02*
X971Y397D02*
X971Y398D01*
D02*
X1361Y288D02*
X1361Y319D01*
D02*
X1039Y143D02*
X1361Y288D01*
D02*
X1039Y124D02*
X1039Y143D01*
D02*
X1281Y288D02*
X1281Y319D01*
D02*
X935Y132D02*
X1281Y288D01*
D02*
X936Y124D02*
X935Y132D01*
D02*
X811Y138D02*
X810Y319D01*
D02*
X824Y119D02*
X811Y138D01*
D02*
X781Y348D02*
X792Y352D01*
D02*
X621Y348D02*
X781Y348D01*
D02*
X621Y384D02*
X621Y348D01*
D02*
X2191Y908D02*
X2191Y810D01*
D02*
X2193Y911D02*
X2191Y908D01*
D02*
X2291Y908D02*
X2291Y810D01*
D02*
X2290Y911D02*
X2291Y908D01*
G54D31*
X786Y1023D02*
X832Y1023D01*
X867Y1023D02*
X913Y1023D01*
X944Y1023D02*
X990Y1023D01*
X1023Y1023D02*
X1068Y1023D01*
X1101Y1023D02*
X1147Y1023D01*
X1180Y1023D02*
X1226Y1023D01*
X1259Y1023D02*
X1305Y1023D01*
X1338Y1023D02*
X1383Y1023D01*
X786Y1022D02*
X832Y1022D01*
X867Y1022D02*
X913Y1022D01*
X944Y1022D02*
X990Y1022D01*
X1022Y1022D02*
X1069Y1022D01*
X1101Y1022D02*
X1147Y1022D01*
X1180Y1022D02*
X1226Y1022D01*
X1258Y1022D02*
X1305Y1022D01*
X1337Y1022D02*
X1384Y1022D01*
X786Y1021D02*
X832Y1021D01*
X867Y1021D02*
X913Y1021D01*
X944Y1021D02*
X990Y1021D01*
X1022Y1021D02*
X1069Y1021D01*
X1101Y1021D02*
X1147Y1021D01*
X1180Y1021D02*
X1226Y1021D01*
X1258Y1021D02*
X1305Y1021D01*
X1337Y1021D02*
X1384Y1021D01*
X786Y1020D02*
X832Y1020D01*
X867Y1020D02*
X913Y1020D01*
X944Y1020D02*
X990Y1020D01*
X1022Y1020D02*
X1069Y1020D01*
X1101Y1020D02*
X1147Y1020D01*
X1180Y1020D02*
X1226Y1020D01*
X1258Y1020D02*
X1305Y1020D01*
X1337Y1020D02*
X1384Y1020D01*
X786Y1019D02*
X832Y1019D01*
X867Y1019D02*
X913Y1019D01*
X944Y1019D02*
X990Y1019D01*
X1022Y1019D02*
X1069Y1019D01*
X1101Y1019D02*
X1147Y1019D01*
X1180Y1019D02*
X1226Y1019D01*
X1258Y1019D02*
X1305Y1019D01*
X1337Y1019D02*
X1384Y1019D01*
X786Y1018D02*
X832Y1018D01*
X867Y1018D02*
X913Y1018D01*
X944Y1018D02*
X990Y1018D01*
X1022Y1018D02*
X1069Y1018D01*
X1101Y1018D02*
X1147Y1018D01*
X1180Y1018D02*
X1226Y1018D01*
X1258Y1018D02*
X1305Y1018D01*
X1337Y1018D02*
X1384Y1018D01*
X786Y1017D02*
X832Y1017D01*
X867Y1017D02*
X913Y1017D01*
X944Y1017D02*
X990Y1017D01*
X1022Y1017D02*
X1069Y1017D01*
X1101Y1017D02*
X1147Y1017D01*
X1180Y1017D02*
X1226Y1017D01*
X1258Y1017D02*
X1305Y1017D01*
X1337Y1017D02*
X1384Y1017D01*
X786Y1016D02*
X832Y1016D01*
X867Y1016D02*
X913Y1016D01*
X944Y1016D02*
X990Y1016D01*
X1022Y1016D02*
X1069Y1016D01*
X1101Y1016D02*
X1147Y1016D01*
X1180Y1016D02*
X1226Y1016D01*
X1258Y1016D02*
X1305Y1016D01*
X1337Y1016D02*
X1384Y1016D01*
X786Y1015D02*
X832Y1015D01*
X867Y1015D02*
X913Y1015D01*
X944Y1015D02*
X990Y1015D01*
X1022Y1015D02*
X1069Y1015D01*
X1101Y1015D02*
X1147Y1015D01*
X1180Y1015D02*
X1226Y1015D01*
X1258Y1015D02*
X1305Y1015D01*
X1337Y1015D02*
X1384Y1015D01*
X786Y1014D02*
X832Y1014D01*
X867Y1014D02*
X913Y1014D01*
X944Y1014D02*
X990Y1014D01*
X1022Y1014D02*
X1069Y1014D01*
X1101Y1014D02*
X1147Y1014D01*
X1180Y1014D02*
X1226Y1014D01*
X1258Y1014D02*
X1305Y1014D01*
X1337Y1014D02*
X1384Y1014D01*
X786Y1013D02*
X832Y1013D01*
X867Y1013D02*
X913Y1013D01*
X944Y1013D02*
X990Y1013D01*
X1022Y1013D02*
X1069Y1013D01*
X1101Y1013D02*
X1147Y1013D01*
X1180Y1013D02*
X1226Y1013D01*
X1258Y1013D02*
X1305Y1013D01*
X1337Y1013D02*
X1384Y1013D01*
X786Y1012D02*
X832Y1012D01*
X867Y1012D02*
X913Y1012D01*
X944Y1012D02*
X990Y1012D01*
X1022Y1012D02*
X1069Y1012D01*
X1101Y1012D02*
X1147Y1012D01*
X1180Y1012D02*
X1226Y1012D01*
X1258Y1012D02*
X1305Y1012D01*
X1337Y1012D02*
X1384Y1012D01*
X786Y1011D02*
X832Y1011D01*
X867Y1011D02*
X913Y1011D01*
X944Y1011D02*
X990Y1011D01*
X1022Y1011D02*
X1069Y1011D01*
X1101Y1011D02*
X1147Y1011D01*
X1180Y1011D02*
X1226Y1011D01*
X1258Y1011D02*
X1305Y1011D01*
X1337Y1011D02*
X1384Y1011D01*
X786Y1010D02*
X832Y1010D01*
X867Y1010D02*
X913Y1010D01*
X944Y1010D02*
X990Y1010D01*
X1022Y1010D02*
X1069Y1010D01*
X1101Y1010D02*
X1147Y1010D01*
X1180Y1010D02*
X1226Y1010D01*
X1258Y1010D02*
X1305Y1010D01*
X1337Y1010D02*
X1384Y1010D01*
X786Y1009D02*
X832Y1009D01*
X867Y1009D02*
X913Y1009D01*
X944Y1009D02*
X990Y1009D01*
X1022Y1009D02*
X1069Y1009D01*
X1101Y1009D02*
X1147Y1009D01*
X1180Y1009D02*
X1226Y1009D01*
X1258Y1009D02*
X1305Y1009D01*
X1337Y1009D02*
X1384Y1009D01*
X786Y1008D02*
X832Y1008D01*
X867Y1008D02*
X913Y1008D01*
X944Y1008D02*
X990Y1008D01*
X1022Y1008D02*
X1069Y1008D01*
X1101Y1008D02*
X1147Y1008D01*
X1180Y1008D02*
X1226Y1008D01*
X1258Y1008D02*
X1305Y1008D01*
X1337Y1008D02*
X1384Y1008D01*
X786Y1007D02*
X832Y1007D01*
X867Y1007D02*
X913Y1007D01*
X944Y1007D02*
X990Y1007D01*
X1022Y1007D02*
X1069Y1007D01*
X1101Y1007D02*
X1147Y1007D01*
X1180Y1007D02*
X1226Y1007D01*
X1258Y1007D02*
X1305Y1007D01*
X1337Y1007D02*
X1384Y1007D01*
X786Y1006D02*
X832Y1006D01*
X867Y1006D02*
X913Y1006D01*
X944Y1006D02*
X990Y1006D01*
X1022Y1006D02*
X1069Y1006D01*
X1101Y1006D02*
X1147Y1006D01*
X1180Y1006D02*
X1226Y1006D01*
X1258Y1006D02*
X1305Y1006D01*
X1337Y1006D02*
X1384Y1006D01*
X786Y1005D02*
X832Y1005D01*
X867Y1005D02*
X913Y1005D01*
X944Y1005D02*
X990Y1005D01*
X1022Y1005D02*
X1069Y1005D01*
X1101Y1005D02*
X1147Y1005D01*
X1180Y1005D02*
X1226Y1005D01*
X1258Y1005D02*
X1305Y1005D01*
X1337Y1005D02*
X1384Y1005D01*
X786Y1004D02*
X832Y1004D01*
X867Y1004D02*
X913Y1004D01*
X944Y1004D02*
X990Y1004D01*
X1022Y1004D02*
X1069Y1004D01*
X1101Y1004D02*
X1147Y1004D01*
X1180Y1004D02*
X1226Y1004D01*
X1258Y1004D02*
X1305Y1004D01*
X1337Y1004D02*
X1384Y1004D01*
X786Y1003D02*
X832Y1003D01*
X867Y1003D02*
X913Y1003D01*
X944Y1003D02*
X990Y1003D01*
X1022Y1003D02*
X1069Y1003D01*
X1101Y1003D02*
X1147Y1003D01*
X1180Y1003D02*
X1226Y1003D01*
X1258Y1003D02*
X1305Y1003D01*
X1337Y1003D02*
X1384Y1003D01*
X786Y1002D02*
X832Y1002D01*
X867Y1002D02*
X913Y1002D01*
X944Y1002D02*
X990Y1002D01*
X1022Y1002D02*
X1069Y1002D01*
X1101Y1002D02*
X1147Y1002D01*
X1180Y1002D02*
X1226Y1002D01*
X1258Y1002D02*
X1305Y1002D01*
X1337Y1002D02*
X1384Y1002D01*
X786Y1001D02*
X832Y1001D01*
X867Y1001D02*
X913Y1001D01*
X944Y1001D02*
X990Y1001D01*
X1022Y1001D02*
X1069Y1001D01*
X1101Y1001D02*
X1147Y1001D01*
X1180Y1001D02*
X1226Y1001D01*
X1258Y1001D02*
X1305Y1001D01*
X1337Y1001D02*
X1384Y1001D01*
X786Y1000D02*
X832Y1000D01*
X867Y1000D02*
X913Y1000D01*
X944Y1000D02*
X990Y1000D01*
X1022Y1000D02*
X1069Y1000D01*
X1101Y1000D02*
X1147Y1000D01*
X1180Y1000D02*
X1226Y1000D01*
X1258Y1000D02*
X1305Y1000D01*
X1337Y1000D02*
X1384Y1000D01*
X786Y999D02*
X832Y999D01*
X867Y999D02*
X913Y999D01*
X944Y999D02*
X990Y999D01*
X1022Y999D02*
X1069Y999D01*
X1101Y999D02*
X1147Y999D01*
X1180Y999D02*
X1226Y999D01*
X1258Y999D02*
X1305Y999D01*
X1337Y999D02*
X1384Y999D01*
X786Y998D02*
X832Y998D01*
X867Y998D02*
X913Y998D01*
X944Y998D02*
X990Y998D01*
X1022Y998D02*
X1069Y998D01*
X1101Y998D02*
X1147Y998D01*
X1180Y998D02*
X1226Y998D01*
X1258Y998D02*
X1305Y998D01*
X1337Y998D02*
X1384Y998D01*
X786Y997D02*
X832Y997D01*
X867Y997D02*
X913Y997D01*
X944Y997D02*
X990Y997D01*
X1022Y997D02*
X1069Y997D01*
X1101Y997D02*
X1147Y997D01*
X1180Y997D02*
X1226Y997D01*
X1258Y997D02*
X1305Y997D01*
X1337Y997D02*
X1384Y997D01*
X786Y996D02*
X832Y996D01*
X867Y996D02*
X913Y996D01*
X944Y996D02*
X990Y996D01*
X1022Y996D02*
X1069Y996D01*
X1101Y996D02*
X1147Y996D01*
X1180Y996D02*
X1226Y996D01*
X1258Y996D02*
X1305Y996D01*
X1337Y996D02*
X1384Y996D01*
X786Y995D02*
X832Y995D01*
X867Y995D02*
X913Y995D01*
X944Y995D02*
X990Y995D01*
X1022Y995D02*
X1069Y995D01*
X1101Y995D02*
X1147Y995D01*
X1180Y995D02*
X1226Y995D01*
X1258Y995D02*
X1305Y995D01*
X1337Y995D02*
X1384Y995D01*
X786Y994D02*
X832Y994D01*
X867Y994D02*
X913Y994D01*
X944Y994D02*
X990Y994D01*
X1022Y994D02*
X1069Y994D01*
X1101Y994D02*
X1147Y994D01*
X1180Y994D02*
X1226Y994D01*
X1258Y994D02*
X1305Y994D01*
X1337Y994D02*
X1384Y994D01*
X786Y993D02*
X832Y993D01*
X867Y993D02*
X913Y993D01*
X944Y993D02*
X990Y993D01*
X1022Y993D02*
X1069Y993D01*
X1101Y993D02*
X1147Y993D01*
X1180Y993D02*
X1226Y993D01*
X1258Y993D02*
X1305Y993D01*
X1337Y993D02*
X1384Y993D01*
X786Y992D02*
X832Y992D01*
X867Y992D02*
X913Y992D01*
X944Y992D02*
X990Y992D01*
X1022Y992D02*
X1069Y992D01*
X1101Y992D02*
X1147Y992D01*
X1180Y992D02*
X1226Y992D01*
X1258Y992D02*
X1305Y992D01*
X1337Y992D02*
X1384Y992D01*
X786Y991D02*
X832Y991D01*
X867Y991D02*
X913Y991D01*
X944Y991D02*
X990Y991D01*
X1022Y991D02*
X1069Y991D01*
X1101Y991D02*
X1147Y991D01*
X1180Y991D02*
X1226Y991D01*
X1258Y991D02*
X1305Y991D01*
X1337Y991D02*
X1384Y991D01*
X786Y990D02*
X832Y990D01*
X867Y990D02*
X913Y990D01*
X944Y990D02*
X990Y990D01*
X1022Y990D02*
X1069Y990D01*
X1101Y990D02*
X1147Y990D01*
X1180Y990D02*
X1226Y990D01*
X1258Y990D02*
X1305Y990D01*
X1337Y990D02*
X1384Y990D01*
X786Y989D02*
X832Y989D01*
X867Y989D02*
X913Y989D01*
X944Y989D02*
X990Y989D01*
X1022Y989D02*
X1069Y989D01*
X1101Y989D02*
X1147Y989D01*
X1180Y989D02*
X1226Y989D01*
X1258Y989D02*
X1305Y989D01*
X1337Y989D02*
X1384Y989D01*
X786Y988D02*
X832Y988D01*
X867Y988D02*
X913Y988D01*
X944Y988D02*
X990Y988D01*
X1022Y988D02*
X1069Y988D01*
X1101Y988D02*
X1147Y988D01*
X1180Y988D02*
X1226Y988D01*
X1258Y988D02*
X1305Y988D01*
X1337Y988D02*
X1384Y988D01*
X786Y987D02*
X832Y987D01*
X867Y987D02*
X913Y987D01*
X944Y987D02*
X990Y987D01*
X1022Y987D02*
X1069Y987D01*
X1101Y987D02*
X1147Y987D01*
X1180Y987D02*
X1226Y987D01*
X1258Y987D02*
X1305Y987D01*
X1337Y987D02*
X1384Y987D01*
X786Y986D02*
X832Y986D01*
X867Y986D02*
X913Y986D01*
X944Y986D02*
X990Y986D01*
X1022Y986D02*
X1069Y986D01*
X1101Y986D02*
X1147Y986D01*
X1180Y986D02*
X1226Y986D01*
X1258Y986D02*
X1305Y986D01*
X1337Y986D02*
X1384Y986D01*
X786Y985D02*
X832Y985D01*
X867Y985D02*
X913Y985D01*
X944Y985D02*
X990Y985D01*
X1022Y985D02*
X1069Y985D01*
X1101Y985D02*
X1147Y985D01*
X1180Y985D02*
X1226Y985D01*
X1258Y985D02*
X1305Y985D01*
X1337Y985D02*
X1384Y985D01*
X786Y984D02*
X832Y984D01*
X867Y984D02*
X913Y984D01*
X944Y984D02*
X990Y984D01*
X1022Y984D02*
X1069Y984D01*
X1101Y984D02*
X1147Y984D01*
X1180Y984D02*
X1226Y984D01*
X1258Y984D02*
X1305Y984D01*
X1337Y984D02*
X1384Y984D01*
X786Y983D02*
X832Y983D01*
X867Y983D02*
X913Y983D01*
X944Y983D02*
X990Y983D01*
X1022Y983D02*
X1069Y983D01*
X1101Y983D02*
X1147Y983D01*
X1180Y983D02*
X1226Y983D01*
X1258Y983D02*
X1305Y983D01*
X1337Y983D02*
X1384Y983D01*
X786Y982D02*
X832Y982D01*
X867Y982D02*
X913Y982D01*
X944Y982D02*
X990Y982D01*
X1022Y982D02*
X1069Y982D01*
X1101Y982D02*
X1147Y982D01*
X1180Y982D02*
X1226Y982D01*
X1258Y982D02*
X1305Y982D01*
X1337Y982D02*
X1384Y982D01*
X786Y981D02*
X832Y981D01*
X867Y981D02*
X913Y981D01*
X944Y981D02*
X990Y981D01*
X1022Y981D02*
X1069Y981D01*
X1101Y981D02*
X1147Y981D01*
X1180Y981D02*
X1226Y981D01*
X1258Y981D02*
X1305Y981D01*
X1337Y981D02*
X1384Y981D01*
X786Y980D02*
X832Y980D01*
X867Y980D02*
X913Y980D01*
X944Y980D02*
X990Y980D01*
X1022Y980D02*
X1069Y980D01*
X1101Y980D02*
X1147Y980D01*
X1180Y980D02*
X1226Y980D01*
X1258Y980D02*
X1305Y980D01*
X1337Y980D02*
X1384Y980D01*
X786Y979D02*
X832Y979D01*
X867Y979D02*
X913Y979D01*
X944Y979D02*
X990Y979D01*
X1022Y979D02*
X1069Y979D01*
X1101Y979D02*
X1147Y979D01*
X1180Y979D02*
X1226Y979D01*
X1258Y979D02*
X1305Y979D01*
X1337Y979D02*
X1384Y979D01*
X786Y978D02*
X832Y978D01*
X867Y978D02*
X913Y978D01*
X944Y978D02*
X990Y978D01*
X1022Y978D02*
X1069Y978D01*
X1101Y978D02*
X1147Y978D01*
X1180Y978D02*
X1226Y978D01*
X1258Y978D02*
X1305Y978D01*
X1337Y978D02*
X1384Y978D01*
X786Y977D02*
X832Y977D01*
X867Y977D02*
X913Y977D01*
X944Y977D02*
X990Y977D01*
X1022Y977D02*
X1069Y977D01*
X1101Y977D02*
X1147Y977D01*
X1180Y977D02*
X1226Y977D01*
X1258Y977D02*
X1305Y977D01*
X1337Y977D02*
X1384Y977D01*
X786Y976D02*
X832Y976D01*
X867Y976D02*
X913Y976D01*
X944Y976D02*
X990Y976D01*
X1022Y976D02*
X1069Y976D01*
X1101Y976D02*
X1147Y976D01*
X1180Y976D02*
X1226Y976D01*
X1258Y976D02*
X1305Y976D01*
X1337Y976D02*
X1384Y976D01*
X786Y975D02*
X832Y975D01*
X867Y975D02*
X913Y975D01*
X944Y975D02*
X990Y975D01*
X1022Y975D02*
X1069Y975D01*
X1101Y975D02*
X1147Y975D01*
X1180Y975D02*
X1226Y975D01*
X1258Y975D02*
X1305Y975D01*
X1337Y975D02*
X1384Y975D01*
X786Y974D02*
X832Y974D01*
X867Y974D02*
X913Y974D01*
X944Y974D02*
X990Y974D01*
X1022Y974D02*
X1069Y974D01*
X1101Y974D02*
X1147Y974D01*
X1180Y974D02*
X1226Y974D01*
X1258Y974D02*
X1305Y974D01*
X1337Y974D02*
X1384Y974D01*
X786Y973D02*
X832Y973D01*
X867Y973D02*
X913Y973D01*
X944Y973D02*
X990Y973D01*
X1022Y973D02*
X1069Y973D01*
X1101Y973D02*
X1147Y973D01*
X1180Y973D02*
X1226Y973D01*
X1258Y973D02*
X1305Y973D01*
X1337Y973D02*
X1384Y973D01*
X786Y972D02*
X832Y972D01*
X867Y972D02*
X913Y972D01*
X944Y972D02*
X990Y972D01*
X1022Y972D02*
X1069Y972D01*
X1101Y972D02*
X1147Y972D01*
X1180Y972D02*
X1226Y972D01*
X1258Y972D02*
X1305Y972D01*
X1337Y972D02*
X1384Y972D01*
X786Y971D02*
X832Y971D01*
X867Y971D02*
X913Y971D01*
X944Y971D02*
X990Y971D01*
X1022Y971D02*
X1069Y971D01*
X1101Y971D02*
X1147Y971D01*
X1180Y971D02*
X1226Y971D01*
X1258Y971D02*
X1305Y971D01*
X1337Y971D02*
X1384Y971D01*
X786Y970D02*
X832Y970D01*
X867Y970D02*
X913Y970D01*
X944Y970D02*
X990Y970D01*
X1022Y970D02*
X1069Y970D01*
X1101Y970D02*
X1147Y970D01*
X1180Y970D02*
X1226Y970D01*
X1258Y970D02*
X1305Y970D01*
X1337Y970D02*
X1384Y970D01*
X786Y969D02*
X832Y969D01*
X867Y969D02*
X913Y969D01*
X944Y969D02*
X990Y969D01*
X1022Y969D02*
X1069Y969D01*
X1101Y969D02*
X1147Y969D01*
X1180Y969D02*
X1226Y969D01*
X1258Y969D02*
X1305Y969D01*
X1337Y969D02*
X1384Y969D01*
X786Y968D02*
X832Y968D01*
X867Y968D02*
X913Y968D01*
X944Y968D02*
X990Y968D01*
X1022Y968D02*
X1069Y968D01*
X1101Y968D02*
X1147Y968D01*
X1180Y968D02*
X1226Y968D01*
X1258Y968D02*
X1305Y968D01*
X1337Y968D02*
X1384Y968D01*
X786Y967D02*
X808Y967D01*
X811Y967D02*
X832Y967D01*
X867Y967D02*
X888Y967D01*
X892Y967D02*
X913Y967D01*
X944Y967D02*
X965Y967D01*
X969Y967D02*
X990Y967D01*
X1022Y967D02*
X1044Y967D01*
X1047Y967D02*
X1069Y967D01*
X1101Y967D02*
X1123Y967D01*
X1126Y967D02*
X1147Y967D01*
X1180Y967D02*
X1201Y967D01*
X1204Y967D02*
X1226Y967D01*
X1258Y967D02*
X1279Y967D01*
X1284Y967D02*
X1305Y967D01*
X1337Y967D02*
X1358Y967D01*
X1363Y967D02*
X1384Y967D01*
X786Y966D02*
X804Y966D01*
X815Y966D02*
X832Y966D01*
X867Y966D02*
X885Y966D01*
X896Y966D02*
X913Y966D01*
X944Y966D02*
X961Y966D01*
X972Y966D02*
X990Y966D01*
X1022Y966D02*
X1040Y966D01*
X1051Y966D02*
X1069Y966D01*
X1101Y966D02*
X1119Y966D01*
X1130Y966D02*
X1147Y966D01*
X1180Y966D02*
X1197Y966D01*
X1208Y966D02*
X1226Y966D01*
X1258Y966D02*
X1276Y966D01*
X1287Y966D02*
X1305Y966D01*
X1337Y966D02*
X1355Y966D01*
X1366Y966D02*
X1384Y966D01*
X786Y965D02*
X802Y965D01*
X816Y965D02*
X832Y965D01*
X867Y965D02*
X883Y965D01*
X898Y965D02*
X913Y965D01*
X944Y965D02*
X959Y965D01*
X974Y965D02*
X990Y965D01*
X1022Y965D02*
X1038Y965D01*
X1053Y965D02*
X1069Y965D01*
X1101Y965D02*
X1117Y965D01*
X1131Y965D02*
X1147Y965D01*
X1180Y965D02*
X1196Y965D01*
X1210Y965D02*
X1226Y965D01*
X1258Y965D02*
X1274Y965D01*
X1289Y965D02*
X1305Y965D01*
X1337Y965D02*
X1353Y965D01*
X1368Y965D02*
X1384Y965D01*
X786Y964D02*
X801Y964D01*
X818Y964D02*
X832Y964D01*
X867Y964D02*
X882Y964D01*
X899Y964D02*
X913Y964D01*
X944Y964D02*
X958Y964D01*
X975Y964D02*
X990Y964D01*
X1022Y964D02*
X1037Y964D01*
X1054Y964D02*
X1069Y964D01*
X1101Y964D02*
X1116Y964D01*
X1133Y964D02*
X1147Y964D01*
X1180Y964D02*
X1194Y964D01*
X1211Y964D02*
X1226Y964D01*
X1258Y964D02*
X1273Y964D01*
X1290Y964D02*
X1305Y964D01*
X1337Y964D02*
X1352Y964D01*
X1369Y964D02*
X1384Y964D01*
X786Y963D02*
X800Y963D01*
X819Y963D02*
X832Y963D01*
X867Y963D02*
X881Y963D01*
X900Y963D02*
X913Y963D01*
X944Y963D02*
X957Y963D01*
X976Y963D02*
X990Y963D01*
X1022Y963D02*
X1036Y963D01*
X1055Y963D02*
X1069Y963D01*
X1101Y963D02*
X1115Y963D01*
X1134Y963D02*
X1147Y963D01*
X1180Y963D02*
X1193Y963D01*
X1212Y963D02*
X1226Y963D01*
X1258Y963D02*
X1272Y963D01*
X1291Y963D02*
X1305Y963D01*
X1337Y963D02*
X1351Y963D01*
X1370Y963D02*
X1384Y963D01*
X786Y962D02*
X799Y962D01*
X820Y962D02*
X832Y962D01*
X867Y962D02*
X880Y962D01*
X901Y962D02*
X913Y962D01*
X944Y962D02*
X956Y962D01*
X977Y962D02*
X990Y962D01*
X1022Y962D02*
X1035Y962D01*
X1056Y962D02*
X1069Y962D01*
X1101Y962D02*
X1114Y962D01*
X1135Y962D02*
X1147Y962D01*
X1180Y962D02*
X1192Y962D01*
X1213Y962D02*
X1226Y962D01*
X1258Y962D02*
X1271Y962D01*
X1292Y962D02*
X1305Y962D01*
X1337Y962D02*
X1350Y962D01*
X1371Y962D02*
X1384Y962D01*
X786Y961D02*
X798Y961D01*
X820Y961D02*
X832Y961D01*
X867Y961D02*
X879Y961D01*
X901Y961D02*
X913Y961D01*
X944Y961D02*
X956Y961D01*
X978Y961D02*
X990Y961D01*
X1022Y961D02*
X1034Y961D01*
X1056Y961D02*
X1069Y961D01*
X1101Y961D02*
X1113Y961D01*
X1135Y961D02*
X1147Y961D01*
X1180Y961D02*
X1192Y961D01*
X1214Y961D02*
X1226Y961D01*
X1258Y961D02*
X1271Y961D01*
X1293Y961D02*
X1305Y961D01*
X1337Y961D02*
X1349Y961D01*
X1371Y961D02*
X1384Y961D01*
X786Y960D02*
X798Y960D01*
X821Y960D02*
X832Y960D01*
X867Y960D02*
X879Y960D01*
X902Y960D02*
X913Y960D01*
X944Y960D02*
X955Y960D01*
X978Y960D02*
X990Y960D01*
X1022Y960D02*
X1034Y960D01*
X1057Y960D02*
X1069Y960D01*
X1101Y960D02*
X1113Y960D01*
X1136Y960D02*
X1147Y960D01*
X1180Y960D02*
X1191Y960D01*
X1214Y960D02*
X1226Y960D01*
X1258Y960D02*
X1270Y960D01*
X1293Y960D02*
X1305Y960D01*
X1337Y960D02*
X1349Y960D01*
X1372Y960D02*
X1384Y960D01*
X786Y959D02*
X797Y959D01*
X821Y959D02*
X832Y959D01*
X867Y959D02*
X878Y959D01*
X902Y959D02*
X913Y959D01*
X944Y959D02*
X955Y959D01*
X979Y959D02*
X990Y959D01*
X1022Y959D02*
X1033Y959D01*
X1057Y959D02*
X1069Y959D01*
X1101Y959D02*
X1112Y959D01*
X1136Y959D02*
X1147Y959D01*
X1180Y959D02*
X1191Y959D01*
X1215Y959D02*
X1226Y959D01*
X1258Y959D02*
X1270Y959D01*
X1294Y959D02*
X1305Y959D01*
X1337Y959D02*
X1349Y959D01*
X1372Y959D02*
X1384Y959D01*
X786Y958D02*
X797Y958D01*
X821Y958D02*
X832Y958D01*
X867Y958D02*
X878Y958D01*
X903Y958D02*
X913Y958D01*
X944Y958D02*
X955Y958D01*
X979Y958D02*
X990Y958D01*
X1022Y958D02*
X1033Y958D01*
X1058Y958D02*
X1069Y958D01*
X1101Y958D02*
X1112Y958D01*
X1136Y958D02*
X1147Y958D01*
X1180Y958D02*
X1191Y958D01*
X1215Y958D02*
X1226Y958D01*
X1258Y958D02*
X1269Y958D01*
X1294Y958D02*
X1305Y958D01*
X1337Y958D02*
X1348Y958D01*
X1373Y958D02*
X1384Y958D01*
X786Y957D02*
X797Y957D01*
X822Y957D02*
X832Y957D01*
X867Y957D02*
X878Y957D01*
X903Y957D02*
X913Y957D01*
X944Y957D02*
X954Y957D01*
X979Y957D02*
X990Y957D01*
X1022Y957D02*
X1033Y957D01*
X1058Y957D02*
X1069Y957D01*
X1101Y957D02*
X1112Y957D01*
X1137Y957D02*
X1147Y957D01*
X1180Y957D02*
X1190Y957D01*
X1215Y957D02*
X1226Y957D01*
X1258Y957D02*
X1269Y957D01*
X1294Y957D02*
X1305Y957D01*
X1337Y957D02*
X1348Y957D01*
X1373Y957D02*
X1384Y957D01*
X786Y956D02*
X797Y956D01*
X822Y956D02*
X832Y956D01*
X867Y956D02*
X878Y956D01*
X903Y956D02*
X913Y956D01*
X944Y956D02*
X954Y956D01*
X979Y956D02*
X990Y956D01*
X1022Y956D02*
X1033Y956D01*
X1058Y956D02*
X1069Y956D01*
X1101Y956D02*
X1112Y956D01*
X1137Y956D02*
X1147Y956D01*
X1180Y956D02*
X1190Y956D01*
X1215Y956D02*
X1226Y956D01*
X1258Y956D02*
X1269Y956D01*
X1294Y956D02*
X1305Y956D01*
X1337Y956D02*
X1348Y956D01*
X1373Y956D02*
X1384Y956D01*
X786Y955D02*
X797Y955D01*
X822Y955D02*
X832Y955D01*
X867Y955D02*
X878Y955D01*
X903Y955D02*
X913Y955D01*
X944Y955D02*
X954Y955D01*
X979Y955D02*
X990Y955D01*
X1022Y955D02*
X1033Y955D01*
X1058Y955D02*
X1069Y955D01*
X1101Y955D02*
X1112Y955D01*
X1137Y955D02*
X1147Y955D01*
X1180Y955D02*
X1190Y955D01*
X1215Y955D02*
X1226Y955D01*
X1258Y955D02*
X1269Y955D01*
X1294Y955D02*
X1305Y955D01*
X1337Y955D02*
X1348Y955D01*
X1373Y955D02*
X1384Y955D01*
X786Y954D02*
X797Y954D01*
X822Y954D02*
X832Y954D01*
X867Y954D02*
X878Y954D01*
X903Y954D02*
X913Y954D01*
X944Y954D02*
X954Y954D01*
X979Y954D02*
X990Y954D01*
X1022Y954D02*
X1033Y954D01*
X1058Y954D02*
X1069Y954D01*
X1101Y954D02*
X1112Y954D01*
X1137Y954D02*
X1147Y954D01*
X1180Y954D02*
X1190Y954D01*
X1215Y954D02*
X1226Y954D01*
X1258Y954D02*
X1269Y954D01*
X1294Y954D02*
X1305Y954D01*
X1337Y954D02*
X1348Y954D01*
X1373Y954D02*
X1384Y954D01*
X786Y953D02*
X797Y953D01*
X822Y953D02*
X832Y953D01*
X867Y953D02*
X878Y953D01*
X903Y953D02*
X913Y953D01*
X944Y953D02*
X954Y953D01*
X979Y953D02*
X990Y953D01*
X1022Y953D02*
X1033Y953D01*
X1058Y953D02*
X1069Y953D01*
X1101Y953D02*
X1112Y953D01*
X1137Y953D02*
X1147Y953D01*
X1180Y953D02*
X1190Y953D01*
X1215Y953D02*
X1226Y953D01*
X1258Y953D02*
X1269Y953D01*
X1294Y953D02*
X1305Y953D01*
X1337Y953D02*
X1348Y953D01*
X1373Y953D02*
X1384Y953D01*
X786Y952D02*
X797Y952D01*
X821Y952D02*
X832Y952D01*
X867Y952D02*
X878Y952D01*
X902Y952D02*
X913Y952D01*
X944Y952D02*
X955Y952D01*
X979Y952D02*
X990Y952D01*
X1022Y952D02*
X1033Y952D01*
X1058Y952D02*
X1069Y952D01*
X1101Y952D02*
X1112Y952D01*
X1136Y952D02*
X1147Y952D01*
X1180Y952D02*
X1191Y952D01*
X1215Y952D02*
X1226Y952D01*
X1258Y952D02*
X1269Y952D01*
X1294Y952D02*
X1305Y952D01*
X1337Y952D02*
X1348Y952D01*
X1373Y952D02*
X1384Y952D01*
X786Y951D02*
X797Y951D01*
X821Y951D02*
X832Y951D01*
X867Y951D02*
X878Y951D01*
X902Y951D02*
X913Y951D01*
X944Y951D02*
X955Y951D01*
X979Y951D02*
X990Y951D01*
X1022Y951D02*
X1033Y951D01*
X1057Y951D02*
X1069Y951D01*
X1101Y951D02*
X1112Y951D01*
X1136Y951D02*
X1147Y951D01*
X1180Y951D02*
X1191Y951D01*
X1215Y951D02*
X1226Y951D01*
X1258Y951D02*
X1270Y951D01*
X1294Y951D02*
X1305Y951D01*
X1337Y951D02*
X1349Y951D01*
X1372Y951D02*
X1384Y951D01*
X786Y950D02*
X798Y950D01*
X821Y950D02*
X832Y950D01*
X867Y950D02*
X879Y950D01*
X902Y950D02*
X913Y950D01*
X944Y950D02*
X955Y950D01*
X978Y950D02*
X990Y950D01*
X1022Y950D02*
X1034Y950D01*
X1057Y950D02*
X1069Y950D01*
X1101Y950D02*
X1113Y950D01*
X1136Y950D02*
X1147Y950D01*
X1180Y950D02*
X1191Y950D01*
X1214Y950D02*
X1226Y950D01*
X1258Y950D02*
X1270Y950D01*
X1293Y950D02*
X1305Y950D01*
X1337Y950D02*
X1349Y950D01*
X1372Y950D02*
X1384Y950D01*
X786Y949D02*
X798Y949D01*
X820Y949D02*
X832Y949D01*
X867Y949D02*
X879Y949D01*
X901Y949D02*
X913Y949D01*
X944Y949D02*
X956Y949D01*
X978Y949D02*
X990Y949D01*
X1022Y949D02*
X1034Y949D01*
X1056Y949D02*
X1069Y949D01*
X1101Y949D02*
X1113Y949D01*
X1135Y949D02*
X1147Y949D01*
X1180Y949D02*
X1192Y949D01*
X1214Y949D02*
X1226Y949D01*
X1258Y949D02*
X1271Y949D01*
X1293Y949D02*
X1305Y949D01*
X1337Y949D02*
X1349Y949D01*
X1371Y949D02*
X1384Y949D01*
X786Y948D02*
X799Y948D01*
X820Y948D02*
X832Y948D01*
X867Y948D02*
X880Y948D01*
X901Y948D02*
X913Y948D01*
X944Y948D02*
X956Y948D01*
X977Y948D02*
X990Y948D01*
X1022Y948D02*
X1035Y948D01*
X1056Y948D02*
X1069Y948D01*
X1101Y948D02*
X1114Y948D01*
X1135Y948D02*
X1147Y948D01*
X1180Y948D02*
X1192Y948D01*
X1213Y948D02*
X1226Y948D01*
X1258Y948D02*
X1271Y948D01*
X1292Y948D02*
X1305Y948D01*
X1337Y948D02*
X1350Y948D01*
X1371Y948D02*
X1384Y948D01*
X786Y947D02*
X800Y947D01*
X819Y947D02*
X832Y947D01*
X867Y947D02*
X881Y947D01*
X900Y947D02*
X913Y947D01*
X944Y947D02*
X957Y947D01*
X976Y947D02*
X990Y947D01*
X1022Y947D02*
X1036Y947D01*
X1055Y947D02*
X1069Y947D01*
X1101Y947D02*
X1115Y947D01*
X1134Y947D02*
X1147Y947D01*
X1180Y947D02*
X1193Y947D01*
X1212Y947D02*
X1226Y947D01*
X1258Y947D02*
X1272Y947D01*
X1291Y947D02*
X1305Y947D01*
X1337Y947D02*
X1351Y947D01*
X1370Y947D02*
X1384Y947D01*
X786Y946D02*
X801Y946D01*
X818Y946D02*
X832Y946D01*
X867Y946D02*
X882Y946D01*
X899Y946D02*
X913Y946D01*
X944Y946D02*
X958Y946D01*
X975Y946D02*
X990Y946D01*
X1022Y946D02*
X1037Y946D01*
X1054Y946D02*
X1069Y946D01*
X1101Y946D02*
X1116Y946D01*
X1133Y946D02*
X1147Y946D01*
X1180Y946D02*
X1194Y946D01*
X1211Y946D02*
X1226Y946D01*
X1258Y946D02*
X1273Y946D01*
X1290Y946D02*
X1305Y946D01*
X1337Y946D02*
X1352Y946D01*
X1369Y946D02*
X1384Y946D01*
X786Y945D02*
X802Y945D01*
X817Y945D02*
X832Y945D01*
X867Y945D02*
X883Y945D01*
X898Y945D02*
X913Y945D01*
X944Y945D02*
X959Y945D01*
X974Y945D02*
X990Y945D01*
X1022Y945D02*
X1038Y945D01*
X1053Y945D02*
X1069Y945D01*
X1101Y945D02*
X1117Y945D01*
X1132Y945D02*
X1147Y945D01*
X1180Y945D02*
X1196Y945D01*
X1210Y945D02*
X1226Y945D01*
X1258Y945D02*
X1274Y945D01*
X1289Y945D02*
X1305Y945D01*
X1337Y945D02*
X1353Y945D01*
X1368Y945D02*
X1384Y945D01*
X786Y944D02*
X804Y944D01*
X815Y944D02*
X832Y944D01*
X867Y944D02*
X885Y944D01*
X896Y944D02*
X913Y944D01*
X944Y944D02*
X961Y944D01*
X972Y944D02*
X990Y944D01*
X1022Y944D02*
X1040Y944D01*
X1051Y944D02*
X1069Y944D01*
X1101Y944D02*
X1119Y944D01*
X1130Y944D02*
X1147Y944D01*
X1180Y944D02*
X1197Y944D01*
X1208Y944D02*
X1226Y944D01*
X1258Y944D02*
X1276Y944D01*
X1287Y944D02*
X1305Y944D01*
X1337Y944D02*
X1355Y944D01*
X1366Y944D02*
X1384Y944D01*
X786Y943D02*
X807Y943D01*
X811Y943D02*
X832Y943D01*
X867Y943D02*
X889Y943D01*
X892Y943D02*
X913Y943D01*
X944Y943D02*
X965Y943D01*
X968Y943D02*
X990Y943D01*
X1022Y943D02*
X1043Y943D01*
X1047Y943D02*
X1069Y943D01*
X1101Y943D02*
X1122Y943D01*
X1126Y943D02*
X1147Y943D01*
X1180Y943D02*
X1201Y943D01*
X1205Y943D02*
X1226Y943D01*
X1258Y943D02*
X1280Y943D01*
X1283Y943D02*
X1305Y943D01*
X1337Y943D02*
X1359Y943D01*
X1362Y943D02*
X1384Y943D01*
X786Y942D02*
X832Y942D01*
X867Y942D02*
X913Y942D01*
X944Y942D02*
X990Y942D01*
X1022Y942D02*
X1069Y942D01*
X1101Y942D02*
X1147Y942D01*
X1180Y942D02*
X1226Y942D01*
X1258Y942D02*
X1305Y942D01*
X1337Y942D02*
X1384Y942D01*
X786Y941D02*
X832Y941D01*
X867Y941D02*
X913Y941D01*
X944Y941D02*
X990Y941D01*
X1022Y941D02*
X1069Y941D01*
X1101Y941D02*
X1147Y941D01*
X1180Y941D02*
X1226Y941D01*
X1258Y941D02*
X1305Y941D01*
X1337Y941D02*
X1384Y941D01*
X786Y940D02*
X832Y940D01*
X867Y940D02*
X913Y940D01*
X944Y940D02*
X990Y940D01*
X1022Y940D02*
X1069Y940D01*
X1101Y940D02*
X1147Y940D01*
X1180Y940D02*
X1226Y940D01*
X1258Y940D02*
X1305Y940D01*
X1337Y940D02*
X1384Y940D01*
X786Y939D02*
X832Y939D01*
X867Y939D02*
X913Y939D01*
X944Y939D02*
X990Y939D01*
X1022Y939D02*
X1069Y939D01*
X1101Y939D02*
X1147Y939D01*
X1180Y939D02*
X1226Y939D01*
X1258Y939D02*
X1305Y939D01*
X1337Y939D02*
X1384Y939D01*
X786Y938D02*
X832Y938D01*
X867Y938D02*
X913Y938D01*
X944Y938D02*
X990Y938D01*
X1022Y938D02*
X1069Y938D01*
X1101Y938D02*
X1147Y938D01*
X1180Y938D02*
X1226Y938D01*
X1258Y938D02*
X1305Y938D01*
X1337Y938D02*
X1384Y938D01*
X786Y937D02*
X832Y937D01*
X867Y937D02*
X913Y937D01*
X944Y937D02*
X990Y937D01*
X1022Y937D02*
X1069Y937D01*
X1101Y937D02*
X1147Y937D01*
X1180Y937D02*
X1226Y937D01*
X1258Y937D02*
X1305Y937D01*
X1337Y937D02*
X1384Y937D01*
X786Y936D02*
X832Y936D01*
X867Y936D02*
X913Y936D01*
X944Y936D02*
X990Y936D01*
X1022Y936D02*
X1069Y936D01*
X1101Y936D02*
X1147Y936D01*
X1180Y936D02*
X1226Y936D01*
X1258Y936D02*
X1305Y936D01*
X1337Y936D02*
X1384Y936D01*
X786Y935D02*
X832Y935D01*
X867Y935D02*
X913Y935D01*
X944Y935D02*
X990Y935D01*
X1022Y935D02*
X1068Y935D01*
X1101Y935D02*
X1147Y935D01*
X1180Y935D02*
X1226Y935D01*
X1259Y935D02*
X1305Y935D01*
X1338Y935D02*
X1383Y935D01*
X1689Y841D02*
X1691Y841D01*
X1789Y841D02*
X1791Y841D01*
X1889Y841D02*
X1891Y841D01*
X1989Y841D02*
X1991Y841D01*
X2089Y841D02*
X2091Y841D01*
X2189Y841D02*
X2191Y841D01*
X2289Y841D02*
X2291Y841D01*
X2389Y841D02*
X2391Y841D01*
X2489Y841D02*
X2491Y841D01*
X2589Y841D02*
X2591Y841D01*
X2689Y841D02*
X2691Y841D01*
X2789Y841D02*
X2791Y841D01*
X1683Y840D02*
X1697Y840D01*
X1783Y840D02*
X1797Y840D01*
X1883Y840D02*
X1897Y840D01*
X1983Y840D02*
X1997Y840D01*
X2083Y840D02*
X2097Y840D01*
X2183Y840D02*
X2197Y840D01*
X2283Y840D02*
X2297Y840D01*
X2383Y840D02*
X2397Y840D01*
X2483Y840D02*
X2497Y840D01*
X2583Y840D02*
X2597Y840D01*
X2683Y840D02*
X2697Y840D01*
X2783Y840D02*
X2797Y840D01*
X1681Y839D02*
X1700Y839D01*
X1781Y839D02*
X1800Y839D01*
X1881Y839D02*
X1900Y839D01*
X1981Y839D02*
X2000Y839D01*
X2081Y839D02*
X2100Y839D01*
X2181Y839D02*
X2200Y839D01*
X2281Y839D02*
X2300Y839D01*
X2380Y839D02*
X2400Y839D01*
X2480Y839D02*
X2500Y839D01*
X2580Y839D02*
X2600Y839D01*
X2680Y839D02*
X2700Y839D01*
X2780Y839D02*
X2800Y839D01*
X1679Y838D02*
X1702Y838D01*
X1779Y838D02*
X1802Y838D01*
X1879Y838D02*
X1902Y838D01*
X1979Y838D02*
X2002Y838D01*
X2079Y838D02*
X2102Y838D01*
X2179Y838D02*
X2202Y838D01*
X2279Y838D02*
X2302Y838D01*
X2379Y838D02*
X2402Y838D01*
X2479Y838D02*
X2502Y838D01*
X2579Y838D02*
X2602Y838D01*
X2679Y838D02*
X2702Y838D01*
X2779Y838D02*
X2802Y838D01*
X1677Y837D02*
X1704Y837D01*
X1777Y837D02*
X1804Y837D01*
X1877Y837D02*
X1904Y837D01*
X1977Y837D02*
X2004Y837D01*
X2077Y837D02*
X2104Y837D01*
X2177Y837D02*
X2204Y837D01*
X2277Y837D02*
X2304Y837D01*
X2377Y837D02*
X2404Y837D01*
X2477Y837D02*
X2504Y837D01*
X2577Y837D02*
X2604Y837D01*
X2677Y837D02*
X2704Y837D01*
X2777Y837D02*
X2804Y837D01*
X1675Y836D02*
X1705Y836D01*
X1775Y836D02*
X1805Y836D01*
X1875Y836D02*
X1905Y836D01*
X1975Y836D02*
X2005Y836D01*
X2075Y836D02*
X2105Y836D01*
X2175Y836D02*
X2205Y836D01*
X2275Y836D02*
X2305Y836D01*
X2375Y836D02*
X2405Y836D01*
X2475Y836D02*
X2505Y836D01*
X2575Y836D02*
X2605Y836D01*
X2675Y836D02*
X2705Y836D01*
X2775Y836D02*
X2805Y836D01*
X1674Y835D02*
X1706Y835D01*
X1774Y835D02*
X1806Y835D01*
X1874Y835D02*
X1906Y835D01*
X1974Y835D02*
X2006Y835D01*
X2074Y835D02*
X2106Y835D01*
X2174Y835D02*
X2206Y835D01*
X2274Y835D02*
X2306Y835D01*
X2374Y835D02*
X2406Y835D01*
X2474Y835D02*
X2506Y835D01*
X2574Y835D02*
X2606Y835D01*
X2674Y835D02*
X2706Y835D01*
X2774Y835D02*
X2806Y835D01*
X1673Y834D02*
X1707Y834D01*
X1773Y834D02*
X1807Y834D01*
X1873Y834D02*
X1907Y834D01*
X1973Y834D02*
X2007Y834D01*
X2073Y834D02*
X2107Y834D01*
X2173Y834D02*
X2207Y834D01*
X2273Y834D02*
X2307Y834D01*
X2373Y834D02*
X2407Y834D01*
X2473Y834D02*
X2507Y834D01*
X2573Y834D02*
X2607Y834D01*
X2673Y834D02*
X2707Y834D01*
X2773Y834D02*
X2807Y834D01*
X1672Y833D02*
X1708Y833D01*
X1772Y833D02*
X1808Y833D01*
X1872Y833D02*
X1908Y833D01*
X1972Y833D02*
X2008Y833D01*
X2072Y833D02*
X2108Y833D01*
X2172Y833D02*
X2208Y833D01*
X2272Y833D02*
X2308Y833D01*
X2372Y833D02*
X2408Y833D01*
X2472Y833D02*
X2508Y833D01*
X2572Y833D02*
X2608Y833D01*
X2672Y833D02*
X2708Y833D01*
X2772Y833D02*
X2808Y833D01*
X1671Y832D02*
X1709Y832D01*
X1771Y832D02*
X1809Y832D01*
X1871Y832D02*
X1909Y832D01*
X1971Y832D02*
X2009Y832D01*
X2071Y832D02*
X2109Y832D01*
X2171Y832D02*
X2209Y832D01*
X2271Y832D02*
X2309Y832D01*
X2371Y832D02*
X2409Y832D01*
X2471Y832D02*
X2509Y832D01*
X2571Y832D02*
X2609Y832D01*
X2671Y832D02*
X2709Y832D01*
X2771Y832D02*
X2809Y832D01*
X1670Y831D02*
X1710Y831D01*
X1770Y831D02*
X1810Y831D01*
X1870Y831D02*
X1910Y831D01*
X1970Y831D02*
X2010Y831D01*
X2070Y831D02*
X2110Y831D01*
X2170Y831D02*
X2210Y831D01*
X2270Y831D02*
X2310Y831D01*
X2370Y831D02*
X2410Y831D01*
X2470Y831D02*
X2510Y831D01*
X2570Y831D02*
X2610Y831D01*
X2670Y831D02*
X2710Y831D01*
X2770Y831D02*
X2810Y831D01*
X1669Y830D02*
X1711Y830D01*
X1769Y830D02*
X1811Y830D01*
X1869Y830D02*
X1911Y830D01*
X1969Y830D02*
X2011Y830D01*
X2069Y830D02*
X2111Y830D01*
X2169Y830D02*
X2211Y830D01*
X2269Y830D02*
X2311Y830D01*
X2369Y830D02*
X2411Y830D01*
X2469Y830D02*
X2511Y830D01*
X2569Y830D02*
X2611Y830D01*
X2669Y830D02*
X2711Y830D01*
X2769Y830D02*
X2811Y830D01*
X1669Y829D02*
X1712Y829D01*
X1769Y829D02*
X1812Y829D01*
X1869Y829D02*
X1912Y829D01*
X1969Y829D02*
X2012Y829D01*
X2069Y829D02*
X2112Y829D01*
X2169Y829D02*
X2212Y829D01*
X2269Y829D02*
X2312Y829D01*
X2369Y829D02*
X2412Y829D01*
X2469Y829D02*
X2512Y829D01*
X2569Y829D02*
X2612Y829D01*
X2669Y829D02*
X2712Y829D01*
X2769Y829D02*
X2812Y829D01*
X1668Y828D02*
X1712Y828D01*
X1768Y828D02*
X1812Y828D01*
X1868Y828D02*
X1912Y828D01*
X1968Y828D02*
X2012Y828D01*
X2068Y828D02*
X2112Y828D01*
X2168Y828D02*
X2212Y828D01*
X2268Y828D02*
X2312Y828D01*
X2368Y828D02*
X2412Y828D01*
X2468Y828D02*
X2512Y828D01*
X2568Y828D02*
X2612Y828D01*
X2668Y828D02*
X2712Y828D01*
X2768Y828D02*
X2812Y828D01*
X1668Y827D02*
X1713Y827D01*
X1768Y827D02*
X1813Y827D01*
X1868Y827D02*
X1913Y827D01*
X1968Y827D02*
X2013Y827D01*
X2068Y827D02*
X2113Y827D01*
X2168Y827D02*
X2213Y827D01*
X2268Y827D02*
X2313Y827D01*
X2368Y827D02*
X2413Y827D01*
X2468Y827D02*
X2513Y827D01*
X2568Y827D02*
X2613Y827D01*
X2668Y827D02*
X2713Y827D01*
X2768Y827D02*
X2813Y827D01*
X1667Y826D02*
X1713Y826D01*
X1767Y826D02*
X1813Y826D01*
X1867Y826D02*
X1913Y826D01*
X1967Y826D02*
X2013Y826D01*
X2067Y826D02*
X2113Y826D01*
X2167Y826D02*
X2213Y826D01*
X2267Y826D02*
X2313Y826D01*
X2367Y826D02*
X2413Y826D01*
X2467Y826D02*
X2513Y826D01*
X2567Y826D02*
X2613Y826D01*
X2667Y826D02*
X2713Y826D01*
X2767Y826D02*
X2813Y826D01*
X1667Y825D02*
X1714Y825D01*
X1767Y825D02*
X1814Y825D01*
X1867Y825D02*
X1914Y825D01*
X1967Y825D02*
X2014Y825D01*
X2067Y825D02*
X2114Y825D01*
X2167Y825D02*
X2214Y825D01*
X2267Y825D02*
X2314Y825D01*
X2367Y825D02*
X2414Y825D01*
X2467Y825D02*
X2514Y825D01*
X2567Y825D02*
X2614Y825D01*
X2667Y825D02*
X2714Y825D01*
X2767Y825D02*
X2814Y825D01*
X1666Y824D02*
X1714Y824D01*
X1766Y824D02*
X1814Y824D01*
X1866Y824D02*
X1914Y824D01*
X1966Y824D02*
X2014Y824D01*
X2066Y824D02*
X2114Y824D01*
X2166Y824D02*
X2214Y824D01*
X2266Y824D02*
X2314Y824D01*
X2366Y824D02*
X2414Y824D01*
X2466Y824D02*
X2514Y824D01*
X2566Y824D02*
X2614Y824D01*
X2666Y824D02*
X2714Y824D01*
X2766Y824D02*
X2814Y824D01*
X1666Y823D02*
X1714Y823D01*
X1766Y823D02*
X1814Y823D01*
X1866Y823D02*
X1914Y823D01*
X1966Y823D02*
X2014Y823D01*
X2066Y823D02*
X2114Y823D01*
X2166Y823D02*
X2214Y823D01*
X2266Y823D02*
X2314Y823D01*
X2366Y823D02*
X2414Y823D01*
X2466Y823D02*
X2514Y823D01*
X2566Y823D02*
X2614Y823D01*
X2666Y823D02*
X2714Y823D01*
X2766Y823D02*
X2814Y823D01*
X1666Y822D02*
X1715Y822D01*
X1766Y822D02*
X1815Y822D01*
X1866Y822D02*
X1915Y822D01*
X1966Y822D02*
X2015Y822D01*
X2066Y822D02*
X2115Y822D01*
X2166Y822D02*
X2215Y822D01*
X2266Y822D02*
X2315Y822D01*
X2366Y822D02*
X2415Y822D01*
X2466Y822D02*
X2515Y822D01*
X2566Y822D02*
X2615Y822D01*
X2666Y822D02*
X2715Y822D01*
X2766Y822D02*
X2815Y822D01*
X1665Y821D02*
X1715Y821D01*
X1765Y821D02*
X1815Y821D01*
X1865Y821D02*
X1915Y821D01*
X1965Y821D02*
X2015Y821D01*
X2065Y821D02*
X2115Y821D01*
X2165Y821D02*
X2215Y821D01*
X2265Y821D02*
X2315Y821D01*
X2365Y821D02*
X2415Y821D01*
X2465Y821D02*
X2515Y821D01*
X2565Y821D02*
X2615Y821D01*
X2665Y821D02*
X2715Y821D01*
X2765Y821D02*
X2815Y821D01*
X1665Y820D02*
X1715Y820D01*
X1765Y820D02*
X1815Y820D01*
X1865Y820D02*
X1915Y820D01*
X1965Y820D02*
X2015Y820D01*
X2065Y820D02*
X2115Y820D01*
X2165Y820D02*
X2215Y820D01*
X2265Y820D02*
X2315Y820D01*
X2365Y820D02*
X2415Y820D01*
X2465Y820D02*
X2515Y820D01*
X2565Y820D02*
X2615Y820D01*
X2665Y820D02*
X2715Y820D01*
X2765Y820D02*
X2815Y820D01*
X1665Y819D02*
X1715Y819D01*
X1765Y819D02*
X1815Y819D01*
X1865Y819D02*
X1915Y819D01*
X1965Y819D02*
X2015Y819D01*
X2065Y819D02*
X2115Y819D01*
X2165Y819D02*
X2215Y819D01*
X2265Y819D02*
X2315Y819D01*
X2365Y819D02*
X2415Y819D01*
X2465Y819D02*
X2515Y819D01*
X2565Y819D02*
X2615Y819D01*
X2665Y819D02*
X2715Y819D01*
X2765Y819D02*
X2815Y819D01*
X1665Y818D02*
X1716Y818D01*
X1765Y818D02*
X1816Y818D01*
X1865Y818D02*
X1916Y818D01*
X1965Y818D02*
X2016Y818D01*
X2065Y818D02*
X2115Y818D01*
X2165Y818D02*
X2215Y818D01*
X2265Y818D02*
X2315Y818D01*
X2365Y818D02*
X2415Y818D01*
X2465Y818D02*
X2515Y818D01*
X2565Y818D02*
X2615Y818D01*
X2665Y818D02*
X2715Y818D01*
X2765Y818D02*
X2815Y818D01*
X1665Y817D02*
X1716Y817D01*
X1765Y817D02*
X1816Y817D01*
X1865Y817D02*
X1916Y817D01*
X1965Y817D02*
X2016Y817D01*
X2065Y817D02*
X2116Y817D01*
X2165Y817D02*
X2216Y817D01*
X2265Y817D02*
X2316Y817D01*
X2365Y817D02*
X2416Y817D01*
X2465Y817D02*
X2516Y817D01*
X2565Y817D02*
X2616Y817D01*
X2665Y817D02*
X2716Y817D01*
X2765Y817D02*
X2816Y817D01*
X1665Y816D02*
X1716Y816D01*
X1765Y816D02*
X1816Y816D01*
X1865Y816D02*
X1916Y816D01*
X1965Y816D02*
X2016Y816D01*
X2065Y816D02*
X2116Y816D01*
X2165Y816D02*
X2216Y816D01*
X2265Y816D02*
X2316Y816D01*
X2365Y816D02*
X2416Y816D01*
X2465Y816D02*
X2516Y816D01*
X2565Y816D02*
X2616Y816D01*
X2665Y816D02*
X2716Y816D01*
X2765Y816D02*
X2816Y816D01*
X1665Y815D02*
X1716Y815D01*
X1765Y815D02*
X1816Y815D01*
X1865Y815D02*
X1916Y815D01*
X1965Y815D02*
X2016Y815D01*
X2065Y815D02*
X2116Y815D01*
X2165Y815D02*
X2216Y815D01*
X2265Y815D02*
X2316Y815D01*
X2365Y815D02*
X2416Y815D01*
X2465Y815D02*
X2516Y815D01*
X2565Y815D02*
X2616Y815D01*
X2665Y815D02*
X2716Y815D01*
X2765Y815D02*
X2816Y815D01*
X1665Y814D02*
X1716Y814D01*
X1765Y814D02*
X1816Y814D01*
X1865Y814D02*
X1916Y814D01*
X1965Y814D02*
X2016Y814D01*
X2065Y814D02*
X2116Y814D01*
X2165Y814D02*
X2216Y814D01*
X2265Y814D02*
X2316Y814D01*
X2365Y814D02*
X2416Y814D01*
X2465Y814D02*
X2516Y814D01*
X2565Y814D02*
X2616Y814D01*
X2665Y814D02*
X2716Y814D01*
X2765Y814D02*
X2816Y814D01*
X1665Y813D02*
X1716Y813D01*
X1765Y813D02*
X1816Y813D01*
X1865Y813D02*
X1916Y813D01*
X1965Y813D02*
X2016Y813D01*
X2065Y813D02*
X2116Y813D01*
X2165Y813D02*
X2216Y813D01*
X2265Y813D02*
X2316Y813D01*
X2365Y813D02*
X2416Y813D01*
X2465Y813D02*
X2516Y813D01*
X2565Y813D02*
X2616Y813D01*
X2665Y813D02*
X2716Y813D01*
X2765Y813D02*
X2816Y813D01*
X1665Y812D02*
X1716Y812D01*
X1765Y812D02*
X1816Y812D01*
X1865Y812D02*
X1916Y812D01*
X1965Y812D02*
X2016Y812D01*
X2065Y812D02*
X2116Y812D01*
X2165Y812D02*
X2216Y812D01*
X2265Y812D02*
X2316Y812D01*
X2365Y812D02*
X2416Y812D01*
X2465Y812D02*
X2516Y812D01*
X2565Y812D02*
X2616Y812D01*
X2665Y812D02*
X2716Y812D01*
X2765Y812D02*
X2816Y812D01*
X1665Y811D02*
X1716Y811D01*
X1765Y811D02*
X1816Y811D01*
X1865Y811D02*
X1916Y811D01*
X1965Y811D02*
X2016Y811D01*
X2065Y811D02*
X2116Y811D01*
X2165Y811D02*
X2216Y811D01*
X2265Y811D02*
X2316Y811D01*
X2365Y811D02*
X2416Y811D01*
X2465Y811D02*
X2516Y811D01*
X2565Y811D02*
X2616Y811D01*
X2665Y811D02*
X2716Y811D01*
X2765Y811D02*
X2816Y811D01*
X1665Y810D02*
X1716Y810D01*
X1765Y810D02*
X1816Y810D01*
X1865Y810D02*
X1916Y810D01*
X1965Y810D02*
X2016Y810D01*
X2065Y810D02*
X2116Y810D01*
X2165Y810D02*
X2216Y810D01*
X2265Y810D02*
X2316Y810D01*
X2365Y810D02*
X2416Y810D01*
X2465Y810D02*
X2516Y810D01*
X2565Y810D02*
X2616Y810D01*
X2665Y810D02*
X2716Y810D01*
X2765Y810D02*
X2816Y810D01*
X1665Y809D02*
X1716Y809D01*
X1765Y809D02*
X1816Y809D01*
X1865Y809D02*
X1916Y809D01*
X1965Y809D02*
X2016Y809D01*
X2065Y809D02*
X2116Y809D01*
X2165Y809D02*
X2216Y809D01*
X2265Y809D02*
X2316Y809D01*
X2365Y809D02*
X2416Y809D01*
X2465Y809D02*
X2516Y809D01*
X2565Y809D02*
X2616Y809D01*
X2665Y809D02*
X2716Y809D01*
X2765Y809D02*
X2816Y809D01*
X1665Y808D02*
X1716Y808D01*
X1765Y808D02*
X1816Y808D01*
X1865Y808D02*
X1916Y808D01*
X1965Y808D02*
X2016Y808D01*
X2065Y808D02*
X2116Y808D01*
X2165Y808D02*
X2216Y808D01*
X2265Y808D02*
X2316Y808D01*
X2365Y808D02*
X2416Y808D01*
X2465Y808D02*
X2516Y808D01*
X2565Y808D02*
X2616Y808D01*
X2665Y808D02*
X2716Y808D01*
X2765Y808D02*
X2816Y808D01*
X1665Y807D02*
X1716Y807D01*
X1765Y807D02*
X1816Y807D01*
X1865Y807D02*
X1916Y807D01*
X1965Y807D02*
X2016Y807D01*
X2065Y807D02*
X2116Y807D01*
X2165Y807D02*
X2216Y807D01*
X2265Y807D02*
X2316Y807D01*
X2365Y807D02*
X2416Y807D01*
X2465Y807D02*
X2516Y807D01*
X2565Y807D02*
X2616Y807D01*
X2665Y807D02*
X2716Y807D01*
X2765Y807D02*
X2816Y807D01*
X1665Y806D02*
X1716Y806D01*
X1765Y806D02*
X1816Y806D01*
X1865Y806D02*
X1916Y806D01*
X1965Y806D02*
X2016Y806D01*
X2065Y806D02*
X2116Y806D01*
X2165Y806D02*
X2216Y806D01*
X2265Y806D02*
X2316Y806D01*
X2365Y806D02*
X2416Y806D01*
X2465Y806D02*
X2516Y806D01*
X2565Y806D02*
X2616Y806D01*
X2665Y806D02*
X2716Y806D01*
X2765Y806D02*
X2816Y806D01*
X1665Y805D02*
X1689Y805D01*
X1692Y805D02*
X1716Y805D01*
X1765Y805D02*
X1789Y805D01*
X1792Y805D02*
X1816Y805D01*
X1865Y805D02*
X1889Y805D01*
X1892Y805D02*
X1916Y805D01*
X1965Y805D02*
X1989Y805D01*
X1992Y805D02*
X2016Y805D01*
X2065Y805D02*
X2089Y805D01*
X2092Y805D02*
X2116Y805D01*
X2165Y805D02*
X2189Y805D01*
X2192Y805D02*
X2216Y805D01*
X2265Y805D02*
X2289Y805D01*
X2292Y805D02*
X2316Y805D01*
X2365Y805D02*
X2389Y805D01*
X2392Y805D02*
X2416Y805D01*
X2465Y805D02*
X2489Y805D01*
X2492Y805D02*
X2516Y805D01*
X2565Y805D02*
X2589Y805D01*
X2592Y805D02*
X2616Y805D01*
X2665Y805D02*
X2689Y805D01*
X2692Y805D02*
X2716Y805D01*
X2765Y805D02*
X2789Y805D01*
X2792Y805D02*
X2816Y805D01*
X1665Y804D02*
X1684Y804D01*
X1696Y804D02*
X1716Y804D01*
X1765Y804D02*
X1784Y804D01*
X1796Y804D02*
X1816Y804D01*
X1865Y804D02*
X1884Y804D01*
X1896Y804D02*
X1916Y804D01*
X1965Y804D02*
X1984Y804D01*
X1996Y804D02*
X2016Y804D01*
X2065Y804D02*
X2084Y804D01*
X2096Y804D02*
X2116Y804D01*
X2165Y804D02*
X2184Y804D01*
X2196Y804D02*
X2216Y804D01*
X2265Y804D02*
X2284Y804D01*
X2296Y804D02*
X2316Y804D01*
X2365Y804D02*
X2384Y804D01*
X2396Y804D02*
X2416Y804D01*
X2465Y804D02*
X2484Y804D01*
X2496Y804D02*
X2516Y804D01*
X2565Y804D02*
X2584Y804D01*
X2596Y804D02*
X2616Y804D01*
X2665Y804D02*
X2684Y804D01*
X2696Y804D02*
X2716Y804D01*
X2765Y804D02*
X2784Y804D01*
X2796Y804D02*
X2816Y804D01*
X1665Y803D02*
X1682Y803D01*
X1698Y803D02*
X1716Y803D01*
X1765Y803D02*
X1782Y803D01*
X1798Y803D02*
X1816Y803D01*
X1865Y803D02*
X1882Y803D01*
X1898Y803D02*
X1916Y803D01*
X1965Y803D02*
X1982Y803D01*
X1998Y803D02*
X2016Y803D01*
X2065Y803D02*
X2082Y803D01*
X2098Y803D02*
X2116Y803D01*
X2165Y803D02*
X2182Y803D01*
X2198Y803D02*
X2216Y803D01*
X2265Y803D02*
X2282Y803D01*
X2298Y803D02*
X2316Y803D01*
X2365Y803D02*
X2382Y803D01*
X2398Y803D02*
X2416Y803D01*
X2465Y803D02*
X2482Y803D01*
X2498Y803D02*
X2516Y803D01*
X2565Y803D02*
X2582Y803D01*
X2598Y803D02*
X2616Y803D01*
X2665Y803D02*
X2682Y803D01*
X2698Y803D02*
X2716Y803D01*
X2765Y803D02*
X2782Y803D01*
X2798Y803D02*
X2816Y803D01*
X1665Y802D02*
X1680Y802D01*
X1700Y802D02*
X1716Y802D01*
X1765Y802D02*
X1780Y802D01*
X1800Y802D02*
X1816Y802D01*
X1865Y802D02*
X1880Y802D01*
X1900Y802D02*
X1916Y802D01*
X1965Y802D02*
X1980Y802D01*
X2000Y802D02*
X2016Y802D01*
X2065Y802D02*
X2080Y802D01*
X2100Y802D02*
X2116Y802D01*
X2165Y802D02*
X2180Y802D01*
X2200Y802D02*
X2216Y802D01*
X2265Y802D02*
X2280Y802D01*
X2300Y802D02*
X2316Y802D01*
X2365Y802D02*
X2380Y802D01*
X2400Y802D02*
X2416Y802D01*
X2465Y802D02*
X2480Y802D01*
X2500Y802D02*
X2516Y802D01*
X2565Y802D02*
X2580Y802D01*
X2600Y802D02*
X2616Y802D01*
X2665Y802D02*
X2680Y802D01*
X2700Y802D02*
X2716Y802D01*
X2765Y802D02*
X2780Y802D01*
X2800Y802D02*
X2816Y802D01*
X1665Y801D02*
X1679Y801D01*
X1701Y801D02*
X1716Y801D01*
X1765Y801D02*
X1779Y801D01*
X1801Y801D02*
X1816Y801D01*
X1865Y801D02*
X1879Y801D01*
X1901Y801D02*
X1916Y801D01*
X1965Y801D02*
X1979Y801D01*
X2001Y801D02*
X2016Y801D01*
X2065Y801D02*
X2079Y801D01*
X2101Y801D02*
X2116Y801D01*
X2165Y801D02*
X2179Y801D01*
X2201Y801D02*
X2216Y801D01*
X2265Y801D02*
X2279Y801D01*
X2301Y801D02*
X2316Y801D01*
X2365Y801D02*
X2379Y801D01*
X2401Y801D02*
X2416Y801D01*
X2465Y801D02*
X2479Y801D01*
X2501Y801D02*
X2516Y801D01*
X2565Y801D02*
X2579Y801D01*
X2601Y801D02*
X2616Y801D01*
X2665Y801D02*
X2679Y801D01*
X2701Y801D02*
X2716Y801D01*
X2765Y801D02*
X2779Y801D01*
X2801Y801D02*
X2816Y801D01*
X1665Y800D02*
X1678Y800D01*
X1702Y800D02*
X1716Y800D01*
X1765Y800D02*
X1778Y800D01*
X1802Y800D02*
X1816Y800D01*
X1865Y800D02*
X1878Y800D01*
X1902Y800D02*
X1916Y800D01*
X1965Y800D02*
X1978Y800D01*
X2002Y800D02*
X2016Y800D01*
X2065Y800D02*
X2078Y800D01*
X2102Y800D02*
X2116Y800D01*
X2165Y800D02*
X2178Y800D01*
X2202Y800D02*
X2216Y800D01*
X2265Y800D02*
X2278Y800D01*
X2302Y800D02*
X2316Y800D01*
X2365Y800D02*
X2378Y800D01*
X2402Y800D02*
X2416Y800D01*
X2465Y800D02*
X2478Y800D01*
X2502Y800D02*
X2516Y800D01*
X2565Y800D02*
X2578Y800D01*
X2602Y800D02*
X2616Y800D01*
X2665Y800D02*
X2678Y800D01*
X2702Y800D02*
X2716Y800D01*
X2765Y800D02*
X2778Y800D01*
X2802Y800D02*
X2816Y800D01*
X1665Y799D02*
X1677Y799D01*
X1703Y799D02*
X1716Y799D01*
X1765Y799D02*
X1777Y799D01*
X1803Y799D02*
X1816Y799D01*
X1865Y799D02*
X1877Y799D01*
X1903Y799D02*
X1916Y799D01*
X1965Y799D02*
X1977Y799D01*
X2003Y799D02*
X2016Y799D01*
X2065Y799D02*
X2077Y799D01*
X2103Y799D02*
X2116Y799D01*
X2165Y799D02*
X2177Y799D01*
X2203Y799D02*
X2216Y799D01*
X2265Y799D02*
X2277Y799D01*
X2303Y799D02*
X2316Y799D01*
X2365Y799D02*
X2377Y799D01*
X2403Y799D02*
X2416Y799D01*
X2465Y799D02*
X2477Y799D01*
X2503Y799D02*
X2516Y799D01*
X2565Y799D02*
X2577Y799D01*
X2603Y799D02*
X2616Y799D01*
X2665Y799D02*
X2677Y799D01*
X2703Y799D02*
X2716Y799D01*
X2765Y799D02*
X2777Y799D01*
X2803Y799D02*
X2816Y799D01*
X1665Y798D02*
X1676Y798D01*
X1704Y798D02*
X1716Y798D01*
X1765Y798D02*
X1776Y798D01*
X1804Y798D02*
X1816Y798D01*
X1865Y798D02*
X1876Y798D01*
X1904Y798D02*
X1916Y798D01*
X1965Y798D02*
X1976Y798D01*
X2004Y798D02*
X2016Y798D01*
X2065Y798D02*
X2076Y798D01*
X2104Y798D02*
X2116Y798D01*
X2165Y798D02*
X2176Y798D01*
X2204Y798D02*
X2216Y798D01*
X2265Y798D02*
X2276Y798D01*
X2304Y798D02*
X2316Y798D01*
X2365Y798D02*
X2376Y798D01*
X2404Y798D02*
X2416Y798D01*
X2465Y798D02*
X2476Y798D01*
X2504Y798D02*
X2516Y798D01*
X2565Y798D02*
X2576Y798D01*
X2604Y798D02*
X2616Y798D01*
X2665Y798D02*
X2676Y798D01*
X2704Y798D02*
X2716Y798D01*
X2765Y798D02*
X2776Y798D01*
X2804Y798D02*
X2816Y798D01*
X1665Y797D02*
X1676Y797D01*
X1705Y797D02*
X1716Y797D01*
X1765Y797D02*
X1776Y797D01*
X1805Y797D02*
X1816Y797D01*
X1865Y797D02*
X1876Y797D01*
X1905Y797D02*
X1916Y797D01*
X1965Y797D02*
X1976Y797D01*
X2005Y797D02*
X2016Y797D01*
X2065Y797D02*
X2076Y797D01*
X2105Y797D02*
X2116Y797D01*
X2165Y797D02*
X2176Y797D01*
X2204Y797D02*
X2216Y797D01*
X2265Y797D02*
X2276Y797D01*
X2304Y797D02*
X2316Y797D01*
X2365Y797D02*
X2376Y797D01*
X2404Y797D02*
X2416Y797D01*
X2465Y797D02*
X2476Y797D01*
X2504Y797D02*
X2516Y797D01*
X2565Y797D02*
X2576Y797D01*
X2604Y797D02*
X2616Y797D01*
X2665Y797D02*
X2676Y797D01*
X2704Y797D02*
X2716Y797D01*
X2765Y797D02*
X2776Y797D01*
X2804Y797D02*
X2816Y797D01*
X1665Y796D02*
X1675Y796D01*
X1705Y796D02*
X1716Y796D01*
X1765Y796D02*
X1775Y796D01*
X1805Y796D02*
X1816Y796D01*
X1865Y796D02*
X1875Y796D01*
X1905Y796D02*
X1916Y796D01*
X1965Y796D02*
X1975Y796D01*
X2005Y796D02*
X2016Y796D01*
X2065Y796D02*
X2075Y796D01*
X2105Y796D02*
X2116Y796D01*
X2165Y796D02*
X2175Y796D01*
X2205Y796D02*
X2216Y796D01*
X2265Y796D02*
X2275Y796D01*
X2305Y796D02*
X2316Y796D01*
X2365Y796D02*
X2375Y796D01*
X2405Y796D02*
X2416Y796D01*
X2465Y796D02*
X2475Y796D01*
X2505Y796D02*
X2516Y796D01*
X2565Y796D02*
X2575Y796D01*
X2605Y796D02*
X2616Y796D01*
X2665Y796D02*
X2675Y796D01*
X2705Y796D02*
X2716Y796D01*
X2765Y796D02*
X2775Y796D01*
X2805Y796D02*
X2816Y796D01*
X1665Y795D02*
X1675Y795D01*
X1706Y795D02*
X1716Y795D01*
X1765Y795D02*
X1775Y795D01*
X1806Y795D02*
X1816Y795D01*
X1865Y795D02*
X1875Y795D01*
X1906Y795D02*
X1916Y795D01*
X1965Y795D02*
X1975Y795D01*
X2006Y795D02*
X2016Y795D01*
X2065Y795D02*
X2075Y795D01*
X2106Y795D02*
X2116Y795D01*
X2165Y795D02*
X2175Y795D01*
X2206Y795D02*
X2216Y795D01*
X2265Y795D02*
X2275Y795D01*
X2305Y795D02*
X2316Y795D01*
X2365Y795D02*
X2375Y795D01*
X2405Y795D02*
X2416Y795D01*
X2465Y795D02*
X2475Y795D01*
X2505Y795D02*
X2516Y795D01*
X2565Y795D02*
X2575Y795D01*
X2605Y795D02*
X2616Y795D01*
X2665Y795D02*
X2675Y795D01*
X2705Y795D02*
X2716Y795D01*
X2765Y795D02*
X2775Y795D01*
X2805Y795D02*
X2816Y795D01*
X1665Y794D02*
X1675Y794D01*
X1706Y794D02*
X1716Y794D01*
X1765Y794D02*
X1775Y794D01*
X1806Y794D02*
X1816Y794D01*
X1865Y794D02*
X1875Y794D01*
X1906Y794D02*
X1916Y794D01*
X1965Y794D02*
X1975Y794D01*
X2006Y794D02*
X2016Y794D01*
X2065Y794D02*
X2075Y794D01*
X2106Y794D02*
X2116Y794D01*
X2165Y794D02*
X2175Y794D01*
X2206Y794D02*
X2216Y794D01*
X2265Y794D02*
X2275Y794D01*
X2306Y794D02*
X2316Y794D01*
X2365Y794D02*
X2374Y794D01*
X2406Y794D02*
X2416Y794D01*
X2465Y794D02*
X2474Y794D01*
X2506Y794D02*
X2516Y794D01*
X2565Y794D02*
X2574Y794D01*
X2606Y794D02*
X2616Y794D01*
X2665Y794D02*
X2674Y794D01*
X2706Y794D02*
X2716Y794D01*
X2765Y794D02*
X2774Y794D01*
X2806Y794D02*
X2816Y794D01*
X1665Y793D02*
X1674Y793D01*
X1706Y793D02*
X1716Y793D01*
X1765Y793D02*
X1774Y793D01*
X1806Y793D02*
X1816Y793D01*
X1865Y793D02*
X1874Y793D01*
X1906Y793D02*
X1916Y793D01*
X1965Y793D02*
X1974Y793D01*
X2006Y793D02*
X2016Y793D01*
X2065Y793D02*
X2074Y793D01*
X2106Y793D02*
X2116Y793D01*
X2165Y793D02*
X2174Y793D01*
X2206Y793D02*
X2216Y793D01*
X2265Y793D02*
X2274Y793D01*
X2306Y793D02*
X2316Y793D01*
X2365Y793D02*
X2374Y793D01*
X2406Y793D02*
X2416Y793D01*
X2465Y793D02*
X2474Y793D01*
X2506Y793D02*
X2516Y793D01*
X2565Y793D02*
X2574Y793D01*
X2606Y793D02*
X2616Y793D01*
X2665Y793D02*
X2674Y793D01*
X2706Y793D02*
X2716Y793D01*
X2765Y793D02*
X2774Y793D01*
X2806Y793D02*
X2816Y793D01*
X1665Y792D02*
X1674Y792D01*
X1706Y792D02*
X1716Y792D01*
X1765Y792D02*
X1774Y792D01*
X1806Y792D02*
X1816Y792D01*
X1865Y792D02*
X1874Y792D01*
X1906Y792D02*
X1916Y792D01*
X1965Y792D02*
X1974Y792D01*
X2006Y792D02*
X2016Y792D01*
X2065Y792D02*
X2074Y792D01*
X2106Y792D02*
X2116Y792D01*
X2165Y792D02*
X2174Y792D01*
X2206Y792D02*
X2216Y792D01*
X2265Y792D02*
X2274Y792D01*
X2306Y792D02*
X2316Y792D01*
X2365Y792D02*
X2374Y792D01*
X2406Y792D02*
X2416Y792D01*
X2465Y792D02*
X2474Y792D01*
X2506Y792D02*
X2516Y792D01*
X2565Y792D02*
X2574Y792D01*
X2606Y792D02*
X2616Y792D01*
X2665Y792D02*
X2674Y792D01*
X2706Y792D02*
X2716Y792D01*
X2765Y792D02*
X2774Y792D01*
X2806Y792D02*
X2816Y792D01*
X1665Y791D02*
X1674Y791D01*
X1707Y791D02*
X1716Y791D01*
X1765Y791D02*
X1774Y791D01*
X1806Y791D02*
X1816Y791D01*
X1865Y791D02*
X1874Y791D01*
X1906Y791D02*
X1916Y791D01*
X1965Y791D02*
X1974Y791D01*
X2006Y791D02*
X2016Y791D01*
X2065Y791D02*
X2074Y791D01*
X2106Y791D02*
X2116Y791D01*
X2165Y791D02*
X2174Y791D01*
X2206Y791D02*
X2216Y791D01*
X2265Y791D02*
X2274Y791D01*
X2306Y791D02*
X2316Y791D01*
X2365Y791D02*
X2374Y791D01*
X2406Y791D02*
X2416Y791D01*
X2465Y791D02*
X2474Y791D01*
X2506Y791D02*
X2516Y791D01*
X2565Y791D02*
X2574Y791D01*
X2606Y791D02*
X2616Y791D01*
X2665Y791D02*
X2674Y791D01*
X2706Y791D02*
X2716Y791D01*
X2765Y791D02*
X2774Y791D01*
X2806Y791D02*
X2816Y791D01*
X1665Y790D02*
X1674Y790D01*
X1707Y790D02*
X1716Y790D01*
X1765Y790D02*
X1774Y790D01*
X1807Y790D02*
X1816Y790D01*
X1865Y790D02*
X1874Y790D01*
X1907Y790D02*
X1916Y790D01*
X1965Y790D02*
X1974Y790D01*
X2007Y790D02*
X2016Y790D01*
X2065Y790D02*
X2074Y790D01*
X2107Y790D02*
X2116Y790D01*
X2165Y790D02*
X2174Y790D01*
X2207Y790D02*
X2216Y790D01*
X2265Y790D02*
X2274Y790D01*
X2307Y790D02*
X2316Y790D01*
X2365Y790D02*
X2374Y790D01*
X2407Y790D02*
X2416Y790D01*
X2465Y790D02*
X2474Y790D01*
X2507Y790D02*
X2516Y790D01*
X2565Y790D02*
X2574Y790D01*
X2607Y790D02*
X2616Y790D01*
X2665Y790D02*
X2674Y790D01*
X2707Y790D02*
X2716Y790D01*
X2765Y790D02*
X2774Y790D01*
X2807Y790D02*
X2816Y790D01*
X1665Y789D02*
X1674Y789D01*
X1707Y789D02*
X1716Y789D01*
X1765Y789D02*
X1774Y789D01*
X1807Y789D02*
X1816Y789D01*
X1865Y789D02*
X1874Y789D01*
X1907Y789D02*
X1916Y789D01*
X1965Y789D02*
X1974Y789D01*
X2007Y789D02*
X2016Y789D01*
X2065Y789D02*
X2074Y789D01*
X2107Y789D02*
X2116Y789D01*
X2165Y789D02*
X2174Y789D01*
X2207Y789D02*
X2216Y789D01*
X2265Y789D02*
X2274Y789D01*
X2307Y789D02*
X2316Y789D01*
X2365Y789D02*
X2374Y789D01*
X2407Y789D02*
X2416Y789D01*
X2465Y789D02*
X2474Y789D01*
X2507Y789D02*
X2516Y789D01*
X2565Y789D02*
X2574Y789D01*
X2607Y789D02*
X2616Y789D01*
X2665Y789D02*
X2674Y789D01*
X2707Y789D02*
X2716Y789D01*
X2765Y789D02*
X2774Y789D01*
X2807Y789D02*
X2816Y789D01*
X1665Y788D02*
X1674Y788D01*
X1707Y788D02*
X1716Y788D01*
X1765Y788D02*
X1774Y788D01*
X1807Y788D02*
X1816Y788D01*
X1865Y788D02*
X1874Y788D01*
X1907Y788D02*
X1916Y788D01*
X1965Y788D02*
X1974Y788D01*
X2007Y788D02*
X2016Y788D01*
X2065Y788D02*
X2074Y788D01*
X2107Y788D02*
X2116Y788D01*
X2165Y788D02*
X2174Y788D01*
X2207Y788D02*
X2216Y788D01*
X2265Y788D02*
X2274Y788D01*
X2307Y788D02*
X2316Y788D01*
X2365Y788D02*
X2374Y788D01*
X2407Y788D02*
X2416Y788D01*
X2465Y788D02*
X2474Y788D01*
X2507Y788D02*
X2516Y788D01*
X2565Y788D02*
X2574Y788D01*
X2607Y788D02*
X2616Y788D01*
X2665Y788D02*
X2674Y788D01*
X2707Y788D02*
X2716Y788D01*
X2765Y788D02*
X2774Y788D01*
X2807Y788D02*
X2816Y788D01*
X1665Y787D02*
X1674Y787D01*
X1706Y787D02*
X1716Y787D01*
X1765Y787D02*
X1774Y787D01*
X1806Y787D02*
X1816Y787D01*
X1865Y787D02*
X1874Y787D01*
X1906Y787D02*
X1916Y787D01*
X1965Y787D02*
X1974Y787D01*
X2006Y787D02*
X2016Y787D01*
X2065Y787D02*
X2074Y787D01*
X2106Y787D02*
X2116Y787D01*
X2165Y787D02*
X2174Y787D01*
X2206Y787D02*
X2216Y787D01*
X2265Y787D02*
X2274Y787D01*
X2306Y787D02*
X2316Y787D01*
X2365Y787D02*
X2374Y787D01*
X2406Y787D02*
X2416Y787D01*
X2465Y787D02*
X2474Y787D01*
X2506Y787D02*
X2516Y787D01*
X2565Y787D02*
X2574Y787D01*
X2606Y787D02*
X2616Y787D01*
X2665Y787D02*
X2674Y787D01*
X2706Y787D02*
X2716Y787D01*
X2765Y787D02*
X2774Y787D01*
X2806Y787D02*
X2816Y787D01*
X1665Y786D02*
X1674Y786D01*
X1706Y786D02*
X1716Y786D01*
X1765Y786D02*
X1774Y786D01*
X1806Y786D02*
X1816Y786D01*
X1865Y786D02*
X1874Y786D01*
X1906Y786D02*
X1916Y786D01*
X1965Y786D02*
X1974Y786D01*
X2006Y786D02*
X2016Y786D01*
X2065Y786D02*
X2074Y786D01*
X2106Y786D02*
X2116Y786D01*
X2165Y786D02*
X2174Y786D01*
X2206Y786D02*
X2216Y786D01*
X2265Y786D02*
X2274Y786D01*
X2306Y786D02*
X2316Y786D01*
X2365Y786D02*
X2374Y786D01*
X2406Y786D02*
X2416Y786D01*
X2465Y786D02*
X2474Y786D01*
X2506Y786D02*
X2516Y786D01*
X2565Y786D02*
X2574Y786D01*
X2606Y786D02*
X2616Y786D01*
X2665Y786D02*
X2674Y786D01*
X2706Y786D02*
X2716Y786D01*
X2765Y786D02*
X2774Y786D01*
X2806Y786D02*
X2816Y786D01*
X1665Y785D02*
X1674Y785D01*
X1706Y785D02*
X1716Y785D01*
X1765Y785D02*
X1774Y785D01*
X1806Y785D02*
X1816Y785D01*
X1865Y785D02*
X1874Y785D01*
X1906Y785D02*
X1916Y785D01*
X1965Y785D02*
X1974Y785D01*
X2006Y785D02*
X2016Y785D01*
X2065Y785D02*
X2074Y785D01*
X2106Y785D02*
X2116Y785D01*
X2165Y785D02*
X2174Y785D01*
X2206Y785D02*
X2216Y785D01*
X2265Y785D02*
X2274Y785D01*
X2306Y785D02*
X2316Y785D01*
X2365Y785D02*
X2374Y785D01*
X2406Y785D02*
X2416Y785D01*
X2465Y785D02*
X2474Y785D01*
X2506Y785D02*
X2516Y785D01*
X2565Y785D02*
X2574Y785D01*
X2606Y785D02*
X2616Y785D01*
X2665Y785D02*
X2674Y785D01*
X2706Y785D02*
X2716Y785D01*
X2765Y785D02*
X2774Y785D01*
X2806Y785D02*
X2816Y785D01*
X1665Y784D02*
X1675Y784D01*
X1706Y784D02*
X1716Y784D01*
X1765Y784D02*
X1775Y784D01*
X1806Y784D02*
X1816Y784D01*
X1865Y784D02*
X1875Y784D01*
X1906Y784D02*
X1916Y784D01*
X1965Y784D02*
X1975Y784D01*
X2006Y784D02*
X2016Y784D01*
X2065Y784D02*
X2075Y784D01*
X2106Y784D02*
X2116Y784D01*
X2165Y784D02*
X2175Y784D01*
X2206Y784D02*
X2216Y784D01*
X2265Y784D02*
X2275Y784D01*
X2306Y784D02*
X2316Y784D01*
X2365Y784D02*
X2375Y784D01*
X2406Y784D02*
X2416Y784D01*
X2465Y784D02*
X2475Y784D01*
X2506Y784D02*
X2516Y784D01*
X2565Y784D02*
X2575Y784D01*
X2606Y784D02*
X2616Y784D01*
X2665Y784D02*
X2675Y784D01*
X2706Y784D02*
X2716Y784D01*
X2765Y784D02*
X2775Y784D01*
X2806Y784D02*
X2816Y784D01*
X1665Y783D02*
X1675Y783D01*
X1705Y783D02*
X1716Y783D01*
X1765Y783D02*
X1775Y783D01*
X1805Y783D02*
X1816Y783D01*
X1865Y783D02*
X1875Y783D01*
X1905Y783D02*
X1916Y783D01*
X1965Y783D02*
X1975Y783D01*
X2005Y783D02*
X2016Y783D01*
X2065Y783D02*
X2075Y783D01*
X2105Y783D02*
X2116Y783D01*
X2165Y783D02*
X2175Y783D01*
X2205Y783D02*
X2216Y783D01*
X2265Y783D02*
X2275Y783D01*
X2305Y783D02*
X2316Y783D01*
X2365Y783D02*
X2375Y783D01*
X2405Y783D02*
X2416Y783D01*
X2465Y783D02*
X2475Y783D01*
X2505Y783D02*
X2516Y783D01*
X2565Y783D02*
X2575Y783D01*
X2605Y783D02*
X2616Y783D01*
X2665Y783D02*
X2675Y783D01*
X2705Y783D02*
X2716Y783D01*
X2765Y783D02*
X2775Y783D01*
X2805Y783D02*
X2816Y783D01*
X1665Y782D02*
X1675Y782D01*
X1705Y782D02*
X1716Y782D01*
X1765Y782D02*
X1775Y782D01*
X1805Y782D02*
X1816Y782D01*
X1865Y782D02*
X1875Y782D01*
X1905Y782D02*
X1916Y782D01*
X1965Y782D02*
X1975Y782D01*
X2005Y782D02*
X2016Y782D01*
X2065Y782D02*
X2075Y782D01*
X2105Y782D02*
X2116Y782D01*
X2165Y782D02*
X2175Y782D01*
X2205Y782D02*
X2216Y782D01*
X2265Y782D02*
X2275Y782D01*
X2305Y782D02*
X2316Y782D01*
X2365Y782D02*
X2375Y782D01*
X2405Y782D02*
X2416Y782D01*
X2465Y782D02*
X2475Y782D01*
X2505Y782D02*
X2516Y782D01*
X2565Y782D02*
X2575Y782D01*
X2605Y782D02*
X2616Y782D01*
X2665Y782D02*
X2675Y782D01*
X2705Y782D02*
X2716Y782D01*
X2765Y782D02*
X2775Y782D01*
X2805Y782D02*
X2816Y782D01*
X1665Y781D02*
X1676Y781D01*
X1704Y781D02*
X1716Y781D01*
X1765Y781D02*
X1776Y781D01*
X1804Y781D02*
X1816Y781D01*
X1865Y781D02*
X1876Y781D01*
X1904Y781D02*
X1916Y781D01*
X1965Y781D02*
X1976Y781D01*
X2004Y781D02*
X2016Y781D01*
X2065Y781D02*
X2076Y781D01*
X2104Y781D02*
X2116Y781D01*
X2165Y781D02*
X2176Y781D01*
X2204Y781D02*
X2216Y781D01*
X2265Y781D02*
X2276Y781D01*
X2304Y781D02*
X2316Y781D01*
X2365Y781D02*
X2376Y781D01*
X2404Y781D02*
X2416Y781D01*
X2465Y781D02*
X2476Y781D01*
X2504Y781D02*
X2516Y781D01*
X2565Y781D02*
X2576Y781D01*
X2604Y781D02*
X2616Y781D01*
X2665Y781D02*
X2676Y781D01*
X2704Y781D02*
X2716Y781D01*
X2765Y781D02*
X2776Y781D01*
X2804Y781D02*
X2816Y781D01*
X1665Y780D02*
X1677Y780D01*
X1704Y780D02*
X1716Y780D01*
X1765Y780D02*
X1777Y780D01*
X1804Y780D02*
X1816Y780D01*
X1865Y780D02*
X1877Y780D01*
X1904Y780D02*
X1916Y780D01*
X1965Y780D02*
X1977Y780D01*
X2004Y780D02*
X2016Y780D01*
X2065Y780D02*
X2077Y780D01*
X2104Y780D02*
X2116Y780D01*
X2165Y780D02*
X2177Y780D01*
X2204Y780D02*
X2216Y780D01*
X2265Y780D02*
X2277Y780D01*
X2304Y780D02*
X2316Y780D01*
X2365Y780D02*
X2377Y780D01*
X2404Y780D02*
X2416Y780D01*
X2465Y780D02*
X2477Y780D01*
X2504Y780D02*
X2516Y780D01*
X2565Y780D02*
X2577Y780D01*
X2604Y780D02*
X2616Y780D01*
X2665Y780D02*
X2677Y780D01*
X2704Y780D02*
X2716Y780D01*
X2765Y780D02*
X2777Y780D01*
X2804Y780D02*
X2816Y780D01*
X1665Y779D02*
X1677Y779D01*
X1703Y779D02*
X1716Y779D01*
X1765Y779D02*
X1777Y779D01*
X1803Y779D02*
X1816Y779D01*
X1865Y779D02*
X1877Y779D01*
X1903Y779D02*
X1916Y779D01*
X1965Y779D02*
X1977Y779D01*
X2003Y779D02*
X2016Y779D01*
X2065Y779D02*
X2077Y779D01*
X2103Y779D02*
X2116Y779D01*
X2165Y779D02*
X2177Y779D01*
X2203Y779D02*
X2216Y779D01*
X2265Y779D02*
X2277Y779D01*
X2303Y779D02*
X2316Y779D01*
X2365Y779D02*
X2377Y779D01*
X2403Y779D02*
X2416Y779D01*
X2465Y779D02*
X2477Y779D01*
X2503Y779D02*
X2516Y779D01*
X2565Y779D02*
X2577Y779D01*
X2603Y779D02*
X2616Y779D01*
X2665Y779D02*
X2677Y779D01*
X2703Y779D02*
X2716Y779D01*
X2765Y779D02*
X2777Y779D01*
X2803Y779D02*
X2816Y779D01*
X1665Y778D02*
X1678Y778D01*
X1702Y778D02*
X1716Y778D01*
X1765Y778D02*
X1778Y778D01*
X1802Y778D02*
X1816Y778D01*
X1865Y778D02*
X1878Y778D01*
X1902Y778D02*
X1916Y778D01*
X1965Y778D02*
X1978Y778D01*
X2002Y778D02*
X2016Y778D01*
X2065Y778D02*
X2078Y778D01*
X2102Y778D02*
X2116Y778D01*
X2165Y778D02*
X2178Y778D01*
X2202Y778D02*
X2216Y778D01*
X2265Y778D02*
X2278Y778D01*
X2302Y778D02*
X2316Y778D01*
X2365Y778D02*
X2378Y778D01*
X2402Y778D02*
X2416Y778D01*
X2465Y778D02*
X2478Y778D01*
X2502Y778D02*
X2516Y778D01*
X2565Y778D02*
X2578Y778D01*
X2602Y778D02*
X2616Y778D01*
X2665Y778D02*
X2678Y778D01*
X2702Y778D02*
X2716Y778D01*
X2765Y778D02*
X2778Y778D01*
X2802Y778D02*
X2816Y778D01*
X1665Y777D02*
X1679Y777D01*
X1701Y777D02*
X1716Y777D01*
X1765Y777D02*
X1779Y777D01*
X1801Y777D02*
X1816Y777D01*
X1865Y777D02*
X1879Y777D01*
X1901Y777D02*
X1916Y777D01*
X1965Y777D02*
X1979Y777D01*
X2001Y777D02*
X2016Y777D01*
X2065Y777D02*
X2079Y777D01*
X2101Y777D02*
X2116Y777D01*
X2165Y777D02*
X2179Y777D01*
X2201Y777D02*
X2216Y777D01*
X2265Y777D02*
X2279Y777D01*
X2301Y777D02*
X2316Y777D01*
X2365Y777D02*
X2379Y777D01*
X2401Y777D02*
X2416Y777D01*
X2465Y777D02*
X2479Y777D01*
X2501Y777D02*
X2516Y777D01*
X2565Y777D02*
X2579Y777D01*
X2601Y777D02*
X2616Y777D01*
X2665Y777D02*
X2679Y777D01*
X2701Y777D02*
X2716Y777D01*
X2765Y777D02*
X2779Y777D01*
X2801Y777D02*
X2816Y777D01*
X1665Y776D02*
X1681Y776D01*
X1700Y776D02*
X1716Y776D01*
X1765Y776D02*
X1781Y776D01*
X1800Y776D02*
X1816Y776D01*
X1865Y776D02*
X1881Y776D01*
X1900Y776D02*
X1916Y776D01*
X1965Y776D02*
X1981Y776D01*
X2000Y776D02*
X2016Y776D01*
X2065Y776D02*
X2081Y776D01*
X2100Y776D02*
X2116Y776D01*
X2165Y776D02*
X2181Y776D01*
X2200Y776D02*
X2216Y776D01*
X2265Y776D02*
X2281Y776D01*
X2300Y776D02*
X2316Y776D01*
X2365Y776D02*
X2381Y776D01*
X2400Y776D02*
X2416Y776D01*
X2465Y776D02*
X2481Y776D01*
X2500Y776D02*
X2516Y776D01*
X2565Y776D02*
X2581Y776D01*
X2600Y776D02*
X2616Y776D01*
X2665Y776D02*
X2681Y776D01*
X2700Y776D02*
X2716Y776D01*
X2765Y776D02*
X2781Y776D01*
X2800Y776D02*
X2816Y776D01*
X1665Y775D02*
X1682Y775D01*
X1698Y775D02*
X1716Y775D01*
X1765Y775D02*
X1782Y775D01*
X1798Y775D02*
X1816Y775D01*
X1865Y775D02*
X1882Y775D01*
X1898Y775D02*
X1916Y775D01*
X1965Y775D02*
X1982Y775D01*
X1998Y775D02*
X2016Y775D01*
X2065Y775D02*
X2082Y775D01*
X2098Y775D02*
X2116Y775D01*
X2165Y775D02*
X2182Y775D01*
X2198Y775D02*
X2216Y775D01*
X2265Y775D02*
X2282Y775D01*
X2298Y775D02*
X2316Y775D01*
X2365Y775D02*
X2382Y775D01*
X2398Y775D02*
X2416Y775D01*
X2465Y775D02*
X2482Y775D01*
X2498Y775D02*
X2516Y775D01*
X2565Y775D02*
X2582Y775D01*
X2598Y775D02*
X2616Y775D01*
X2665Y775D02*
X2682Y775D01*
X2698Y775D02*
X2716Y775D01*
X2765Y775D02*
X2782Y775D01*
X2798Y775D02*
X2816Y775D01*
X1665Y774D02*
X1685Y774D01*
X1696Y774D02*
X1716Y774D01*
X1765Y774D02*
X1785Y774D01*
X1796Y774D02*
X1816Y774D01*
X1865Y774D02*
X1885Y774D01*
X1896Y774D02*
X1916Y774D01*
X1965Y774D02*
X1985Y774D01*
X1996Y774D02*
X2016Y774D01*
X2065Y774D02*
X2085Y774D01*
X2096Y774D02*
X2116Y774D01*
X2165Y774D02*
X2185Y774D01*
X2196Y774D02*
X2216Y774D01*
X2265Y774D02*
X2285Y774D01*
X2296Y774D02*
X2316Y774D01*
X2365Y774D02*
X2385Y774D01*
X2396Y774D02*
X2416Y774D01*
X2465Y774D02*
X2485Y774D01*
X2496Y774D02*
X2516Y774D01*
X2565Y774D02*
X2585Y774D01*
X2596Y774D02*
X2616Y774D01*
X2665Y774D02*
X2685Y774D01*
X2696Y774D02*
X2716Y774D01*
X2765Y774D02*
X2785Y774D01*
X2796Y774D02*
X2816Y774D01*
X1665Y773D02*
X1716Y773D01*
X1765Y773D02*
X1816Y773D01*
X1865Y773D02*
X1916Y773D01*
X1965Y773D02*
X2016Y773D01*
X2065Y773D02*
X2116Y773D01*
X2165Y773D02*
X2216Y773D01*
X2265Y773D02*
X2316Y773D01*
X2365Y773D02*
X2416Y773D01*
X2465Y773D02*
X2516Y773D01*
X2565Y773D02*
X2616Y773D01*
X2665Y773D02*
X2716Y773D01*
X2765Y773D02*
X2816Y773D01*
X1665Y772D02*
X1716Y772D01*
X1765Y772D02*
X1816Y772D01*
X1865Y772D02*
X1916Y772D01*
X1965Y772D02*
X2016Y772D01*
X2065Y772D02*
X2116Y772D01*
X2165Y772D02*
X2216Y772D01*
X2265Y772D02*
X2316Y772D01*
X2365Y772D02*
X2416Y772D01*
X2465Y772D02*
X2516Y772D01*
X2565Y772D02*
X2616Y772D01*
X2665Y772D02*
X2716Y772D01*
X2765Y772D02*
X2816Y772D01*
X1665Y771D02*
X1716Y771D01*
X1765Y771D02*
X1816Y771D01*
X1865Y771D02*
X1916Y771D01*
X1965Y771D02*
X2016Y771D01*
X2065Y771D02*
X2116Y771D01*
X2165Y771D02*
X2216Y771D01*
X2265Y771D02*
X2316Y771D01*
X2365Y771D02*
X2416Y771D01*
X2465Y771D02*
X2516Y771D01*
X2565Y771D02*
X2616Y771D01*
X2665Y771D02*
X2716Y771D01*
X2765Y771D02*
X2816Y771D01*
X1665Y770D02*
X1716Y770D01*
X1765Y770D02*
X1816Y770D01*
X1865Y770D02*
X1916Y770D01*
X1965Y770D02*
X2016Y770D01*
X2065Y770D02*
X2116Y770D01*
X2165Y770D02*
X2216Y770D01*
X2265Y770D02*
X2316Y770D01*
X2365Y770D02*
X2416Y770D01*
X2465Y770D02*
X2516Y770D01*
X2565Y770D02*
X2616Y770D01*
X2665Y770D02*
X2716Y770D01*
X2765Y770D02*
X2816Y770D01*
X1665Y769D02*
X1716Y769D01*
X1765Y769D02*
X1816Y769D01*
X1865Y769D02*
X1916Y769D01*
X1965Y769D02*
X2016Y769D01*
X2065Y769D02*
X2116Y769D01*
X2165Y769D02*
X2216Y769D01*
X2265Y769D02*
X2316Y769D01*
X2365Y769D02*
X2416Y769D01*
X2465Y769D02*
X2516Y769D01*
X2565Y769D02*
X2616Y769D01*
X2665Y769D02*
X2716Y769D01*
X2765Y769D02*
X2816Y769D01*
X1665Y768D02*
X1716Y768D01*
X1765Y768D02*
X1816Y768D01*
X1865Y768D02*
X1916Y768D01*
X1965Y768D02*
X2016Y768D01*
X2065Y768D02*
X2116Y768D01*
X2165Y768D02*
X2216Y768D01*
X2265Y768D02*
X2316Y768D01*
X2365Y768D02*
X2416Y768D01*
X2465Y768D02*
X2516Y768D01*
X2565Y768D02*
X2616Y768D01*
X2665Y768D02*
X2716Y768D01*
X2765Y768D02*
X2816Y768D01*
X1665Y767D02*
X1716Y767D01*
X1765Y767D02*
X1816Y767D01*
X1865Y767D02*
X1916Y767D01*
X1965Y767D02*
X2016Y767D01*
X2065Y767D02*
X2116Y767D01*
X2165Y767D02*
X2216Y767D01*
X2265Y767D02*
X2316Y767D01*
X2365Y767D02*
X2416Y767D01*
X2465Y767D02*
X2516Y767D01*
X2565Y767D02*
X2616Y767D01*
X2665Y767D02*
X2716Y767D01*
X2765Y767D02*
X2816Y767D01*
X1665Y766D02*
X1716Y766D01*
X1765Y766D02*
X1816Y766D01*
X1865Y766D02*
X1916Y766D01*
X1965Y766D02*
X2016Y766D01*
X2065Y766D02*
X2116Y766D01*
X2165Y766D02*
X2216Y766D01*
X2265Y766D02*
X2316Y766D01*
X2365Y766D02*
X2416Y766D01*
X2465Y766D02*
X2516Y766D01*
X2565Y766D02*
X2616Y766D01*
X2665Y766D02*
X2716Y766D01*
X2765Y766D02*
X2816Y766D01*
X1665Y765D02*
X1716Y765D01*
X1765Y765D02*
X1816Y765D01*
X1865Y765D02*
X1916Y765D01*
X1965Y765D02*
X2016Y765D01*
X2065Y765D02*
X2116Y765D01*
X2165Y765D02*
X2216Y765D01*
X2265Y765D02*
X2316Y765D01*
X2365Y765D02*
X2416Y765D01*
X2465Y765D02*
X2516Y765D01*
X2565Y765D02*
X2616Y765D01*
X2665Y765D02*
X2716Y765D01*
X2765Y765D02*
X2816Y765D01*
X1665Y764D02*
X1716Y764D01*
X1765Y764D02*
X1816Y764D01*
X1865Y764D02*
X1916Y764D01*
X1965Y764D02*
X2016Y764D01*
X2065Y764D02*
X2116Y764D01*
X2165Y764D02*
X2216Y764D01*
X2265Y764D02*
X2316Y764D01*
X2365Y764D02*
X2416Y764D01*
X2465Y764D02*
X2516Y764D01*
X2565Y764D02*
X2616Y764D01*
X2665Y764D02*
X2716Y764D01*
X2765Y764D02*
X2816Y764D01*
X1665Y763D02*
X1716Y763D01*
X1765Y763D02*
X1816Y763D01*
X1865Y763D02*
X1916Y763D01*
X1965Y763D02*
X2016Y763D01*
X2065Y763D02*
X2116Y763D01*
X2165Y763D02*
X2216Y763D01*
X2265Y763D02*
X2316Y763D01*
X2365Y763D02*
X2416Y763D01*
X2465Y763D02*
X2516Y763D01*
X2565Y763D02*
X2616Y763D01*
X2665Y763D02*
X2716Y763D01*
X2765Y763D02*
X2816Y763D01*
X1665Y762D02*
X1716Y762D01*
X1765Y762D02*
X1816Y762D01*
X1865Y762D02*
X1916Y762D01*
X1965Y762D02*
X2016Y762D01*
X2065Y762D02*
X2116Y762D01*
X2165Y762D02*
X2216Y762D01*
X2265Y762D02*
X2316Y762D01*
X2365Y762D02*
X2416Y762D01*
X2465Y762D02*
X2516Y762D01*
X2565Y762D02*
X2616Y762D01*
X2665Y762D02*
X2716Y762D01*
X2765Y762D02*
X2816Y762D01*
X1665Y761D02*
X1716Y761D01*
X1765Y761D02*
X1816Y761D01*
X1865Y761D02*
X1916Y761D01*
X1965Y761D02*
X2016Y761D01*
X2065Y761D02*
X2116Y761D01*
X2165Y761D02*
X2216Y761D01*
X2265Y761D02*
X2316Y761D01*
X2365Y761D02*
X2416Y761D01*
X2465Y761D02*
X2516Y761D01*
X2565Y761D02*
X2616Y761D01*
X2665Y761D02*
X2716Y761D01*
X2765Y761D02*
X2816Y761D01*
X1665Y760D02*
X1715Y760D01*
X1765Y760D02*
X1815Y760D01*
X1865Y760D02*
X1915Y760D01*
X1965Y760D02*
X2015Y760D01*
X2065Y760D02*
X2115Y760D01*
X2165Y760D02*
X2215Y760D01*
X2265Y760D02*
X2315Y760D01*
X2365Y760D02*
X2415Y760D01*
X2465Y760D02*
X2515Y760D01*
X2565Y760D02*
X2615Y760D01*
X2665Y760D02*
X2715Y760D01*
X2765Y760D02*
X2815Y760D01*
X1665Y759D02*
X1715Y759D01*
X1765Y759D02*
X1815Y759D01*
X1865Y759D02*
X1915Y759D01*
X1965Y759D02*
X2015Y759D01*
X2065Y759D02*
X2115Y759D01*
X2165Y759D02*
X2215Y759D01*
X2265Y759D02*
X2315Y759D01*
X2365Y759D02*
X2415Y759D01*
X2465Y759D02*
X2515Y759D01*
X2565Y759D02*
X2615Y759D01*
X2665Y759D02*
X2715Y759D01*
X2765Y759D02*
X2815Y759D01*
X1665Y758D02*
X1715Y758D01*
X1765Y758D02*
X1815Y758D01*
X1865Y758D02*
X1915Y758D01*
X1965Y758D02*
X2015Y758D01*
X2065Y758D02*
X2115Y758D01*
X2165Y758D02*
X2215Y758D01*
X2265Y758D02*
X2315Y758D01*
X2365Y758D02*
X2415Y758D01*
X2465Y758D02*
X2515Y758D01*
X2565Y758D02*
X2615Y758D01*
X2665Y758D02*
X2715Y758D01*
X2765Y758D02*
X2815Y758D01*
X1665Y757D02*
X1715Y757D01*
X1765Y757D02*
X1815Y757D01*
X1865Y757D02*
X1915Y757D01*
X1965Y757D02*
X2015Y757D01*
X2065Y757D02*
X2115Y757D01*
X2165Y757D02*
X2215Y757D01*
X2265Y757D02*
X2315Y757D01*
X2365Y757D02*
X2415Y757D01*
X2465Y757D02*
X2515Y757D01*
X2565Y757D02*
X2615Y757D01*
X2665Y757D02*
X2715Y757D01*
X2765Y757D02*
X2815Y757D01*
X1666Y756D02*
X1715Y756D01*
X1766Y756D02*
X1815Y756D01*
X1866Y756D02*
X1915Y756D01*
X1966Y756D02*
X2015Y756D01*
X2066Y756D02*
X2115Y756D01*
X2166Y756D02*
X2215Y756D01*
X2266Y756D02*
X2315Y756D01*
X2366Y756D02*
X2415Y756D01*
X2466Y756D02*
X2515Y756D01*
X2566Y756D02*
X2615Y756D01*
X2666Y756D02*
X2715Y756D01*
X2766Y756D02*
X2815Y756D01*
X1666Y755D02*
X1714Y755D01*
X1766Y755D02*
X1814Y755D01*
X1866Y755D02*
X1914Y755D01*
X1966Y755D02*
X2014Y755D01*
X2066Y755D02*
X2114Y755D01*
X2166Y755D02*
X2214Y755D01*
X2266Y755D02*
X2314Y755D01*
X2366Y755D02*
X2414Y755D01*
X2466Y755D02*
X2514Y755D01*
X2566Y755D02*
X2614Y755D01*
X2666Y755D02*
X2714Y755D01*
X2766Y755D02*
X2814Y755D01*
X1666Y754D02*
X1714Y754D01*
X1766Y754D02*
X1814Y754D01*
X1866Y754D02*
X1914Y754D01*
X1966Y754D02*
X2014Y754D01*
X2066Y754D02*
X2114Y754D01*
X2166Y754D02*
X2214Y754D01*
X2266Y754D02*
X2314Y754D01*
X2366Y754D02*
X2414Y754D01*
X2466Y754D02*
X2514Y754D01*
X2566Y754D02*
X2614Y754D01*
X2666Y754D02*
X2714Y754D01*
X2766Y754D02*
X2814Y754D01*
X1667Y753D02*
X1714Y753D01*
X1767Y753D02*
X1814Y753D01*
X1867Y753D02*
X1914Y753D01*
X1967Y753D02*
X2014Y753D01*
X2067Y753D02*
X2114Y753D01*
X2167Y753D02*
X2214Y753D01*
X2267Y753D02*
X2314Y753D01*
X2367Y753D02*
X2414Y753D01*
X2467Y753D02*
X2514Y753D01*
X2567Y753D02*
X2614Y753D01*
X2667Y753D02*
X2714Y753D01*
X2767Y753D02*
X2814Y753D01*
X1667Y752D02*
X1713Y752D01*
X1767Y752D02*
X1813Y752D01*
X1867Y752D02*
X1913Y752D01*
X1967Y752D02*
X2013Y752D01*
X2067Y752D02*
X2113Y752D01*
X2167Y752D02*
X2213Y752D01*
X2267Y752D02*
X2313Y752D01*
X2367Y752D02*
X2413Y752D01*
X2467Y752D02*
X2513Y752D01*
X2567Y752D02*
X2613Y752D01*
X2667Y752D02*
X2713Y752D01*
X2767Y752D02*
X2813Y752D01*
X1668Y751D02*
X1713Y751D01*
X1768Y751D02*
X1813Y751D01*
X1868Y751D02*
X1913Y751D01*
X1968Y751D02*
X2013Y751D01*
X2068Y751D02*
X2113Y751D01*
X2168Y751D02*
X2213Y751D01*
X2268Y751D02*
X2313Y751D01*
X2368Y751D02*
X2413Y751D01*
X2468Y751D02*
X2513Y751D01*
X2568Y751D02*
X2613Y751D01*
X2668Y751D02*
X2712Y751D01*
X2768Y751D02*
X2812Y751D01*
X1668Y750D02*
X1712Y750D01*
X1768Y750D02*
X1812Y750D01*
X1868Y750D02*
X1912Y750D01*
X1968Y750D02*
X2012Y750D01*
X2068Y750D02*
X2112Y750D01*
X2168Y750D02*
X2212Y750D01*
X2268Y750D02*
X2312Y750D01*
X2368Y750D02*
X2412Y750D01*
X2468Y750D02*
X2512Y750D01*
X2568Y750D02*
X2612Y750D01*
X2668Y750D02*
X2712Y750D01*
X2768Y750D02*
X2812Y750D01*
X1669Y749D02*
X1711Y749D01*
X1769Y749D02*
X1811Y749D01*
X1869Y749D02*
X1911Y749D01*
X1969Y749D02*
X2011Y749D01*
X2069Y749D02*
X2111Y749D01*
X2169Y749D02*
X2211Y749D01*
X2269Y749D02*
X2311Y749D01*
X2369Y749D02*
X2411Y749D01*
X2469Y749D02*
X2511Y749D01*
X2569Y749D02*
X2611Y749D01*
X2669Y749D02*
X2711Y749D01*
X2769Y749D02*
X2811Y749D01*
X1670Y748D02*
X1711Y748D01*
X1770Y748D02*
X1811Y748D01*
X1870Y748D02*
X1911Y748D01*
X1970Y748D02*
X2011Y748D01*
X2070Y748D02*
X2111Y748D01*
X2170Y748D02*
X2211Y748D01*
X2270Y748D02*
X2311Y748D01*
X2370Y748D02*
X2411Y748D01*
X2470Y748D02*
X2511Y748D01*
X2570Y748D02*
X2611Y748D01*
X2670Y748D02*
X2711Y748D01*
X2770Y748D02*
X2811Y748D01*
X1670Y747D02*
X1710Y747D01*
X1770Y747D02*
X1810Y747D01*
X1870Y747D02*
X1910Y747D01*
X1970Y747D02*
X2010Y747D01*
X2070Y747D02*
X2110Y747D01*
X2170Y747D02*
X2210Y747D01*
X2270Y747D02*
X2310Y747D01*
X2370Y747D02*
X2410Y747D01*
X2470Y747D02*
X2510Y747D01*
X2570Y747D02*
X2610Y747D01*
X2670Y747D02*
X2710Y747D01*
X2770Y747D02*
X2810Y747D01*
X1671Y746D02*
X1709Y746D01*
X1771Y746D02*
X1809Y746D01*
X1871Y746D02*
X1909Y746D01*
X1971Y746D02*
X2009Y746D01*
X2071Y746D02*
X2109Y746D01*
X2171Y746D02*
X2209Y746D01*
X2271Y746D02*
X2309Y746D01*
X2371Y746D02*
X2409Y746D01*
X2471Y746D02*
X2509Y746D01*
X2571Y746D02*
X2609Y746D01*
X2671Y746D02*
X2709Y746D01*
X2771Y746D02*
X2809Y746D01*
X1672Y745D02*
X1708Y745D01*
X1772Y745D02*
X1808Y745D01*
X1872Y745D02*
X1908Y745D01*
X1972Y745D02*
X2008Y745D01*
X2072Y745D02*
X2108Y745D01*
X2172Y745D02*
X2208Y745D01*
X2272Y745D02*
X2308Y745D01*
X2372Y745D02*
X2408Y745D01*
X2472Y745D02*
X2508Y745D01*
X2572Y745D02*
X2608Y745D01*
X2672Y745D02*
X2708Y745D01*
X2772Y745D02*
X2808Y745D01*
X1673Y744D02*
X1707Y744D01*
X1773Y744D02*
X1807Y744D01*
X1873Y744D02*
X1907Y744D01*
X1973Y744D02*
X2007Y744D01*
X2073Y744D02*
X2107Y744D01*
X2173Y744D02*
X2207Y744D01*
X2273Y744D02*
X2307Y744D01*
X2373Y744D02*
X2407Y744D01*
X2473Y744D02*
X2507Y744D01*
X2573Y744D02*
X2607Y744D01*
X2673Y744D02*
X2707Y744D01*
X2773Y744D02*
X2807Y744D01*
X1674Y743D02*
X1706Y743D01*
X1774Y743D02*
X1806Y743D01*
X1874Y743D02*
X1906Y743D01*
X1974Y743D02*
X2006Y743D01*
X2074Y743D02*
X2106Y743D01*
X2174Y743D02*
X2206Y743D01*
X2274Y743D02*
X2306Y743D01*
X2374Y743D02*
X2406Y743D01*
X2474Y743D02*
X2506Y743D01*
X2574Y743D02*
X2606Y743D01*
X2674Y743D02*
X2706Y743D01*
X2774Y743D02*
X2806Y743D01*
X1676Y742D02*
X1705Y742D01*
X1776Y742D02*
X1805Y742D01*
X1876Y742D02*
X1905Y742D01*
X1976Y742D02*
X2005Y742D01*
X2076Y742D02*
X2105Y742D01*
X2176Y742D02*
X2205Y742D01*
X2276Y742D02*
X2305Y742D01*
X2376Y742D02*
X2405Y742D01*
X2476Y742D02*
X2505Y742D01*
X2576Y742D02*
X2605Y742D01*
X2676Y742D02*
X2705Y742D01*
X2776Y742D02*
X2805Y742D01*
X1677Y741D02*
X1703Y741D01*
X1777Y741D02*
X1803Y741D01*
X1877Y741D02*
X1903Y741D01*
X1977Y741D02*
X2003Y741D01*
X2077Y741D02*
X2103Y741D01*
X2177Y741D02*
X2203Y741D01*
X2277Y741D02*
X2303Y741D01*
X2377Y741D02*
X2403Y741D01*
X2477Y741D02*
X2503Y741D01*
X2577Y741D02*
X2603Y741D01*
X2677Y741D02*
X2703Y741D01*
X2777Y741D02*
X2803Y741D01*
X1679Y740D02*
X1701Y740D01*
X1779Y740D02*
X1801Y740D01*
X1879Y740D02*
X1901Y740D01*
X1979Y740D02*
X2001Y740D01*
X2079Y740D02*
X2101Y740D01*
X2179Y740D02*
X2201Y740D01*
X2279Y740D02*
X2301Y740D01*
X2379Y740D02*
X2401Y740D01*
X2479Y740D02*
X2501Y740D01*
X2579Y740D02*
X2601Y740D01*
X2679Y740D02*
X2701Y740D01*
X2779Y740D02*
X2801Y740D01*
X1681Y739D02*
X1699Y739D01*
X1781Y739D02*
X1799Y739D01*
X1881Y739D02*
X1899Y739D01*
X1981Y739D02*
X1999Y739D01*
X2081Y739D02*
X2099Y739D01*
X2181Y739D02*
X2199Y739D01*
X2281Y739D02*
X2299Y739D01*
X2381Y739D02*
X2399Y739D01*
X2481Y739D02*
X2499Y739D01*
X2581Y739D02*
X2599Y739D01*
X2681Y739D02*
X2699Y739D01*
X2781Y739D02*
X2799Y739D01*
X1684Y738D02*
X1696Y738D01*
X1784Y738D02*
X1796Y738D01*
X1884Y738D02*
X1896Y738D01*
X1984Y738D02*
X1996Y738D01*
X2084Y738D02*
X2096Y738D01*
X2184Y738D02*
X2196Y738D01*
X2284Y738D02*
X2296Y738D01*
X2384Y738D02*
X2396Y738D01*
X2484Y738D02*
X2496Y738D01*
X2584Y738D02*
X2596Y738D01*
X2684Y738D02*
X2696Y738D01*
X2784Y738D02*
X2796Y738D01*
X1687Y541D02*
X1693Y541D01*
X1787Y541D02*
X1793Y541D01*
X1887Y541D02*
X1893Y541D01*
X1987Y541D02*
X1993Y541D01*
X2087Y541D02*
X2093Y541D01*
X2187Y541D02*
X2193Y541D01*
X2287Y541D02*
X2293Y541D01*
X2387Y541D02*
X2393Y541D01*
X2487Y541D02*
X2493Y541D01*
X2587Y541D02*
X2593Y541D01*
X2687Y541D02*
X2693Y541D01*
X2787Y541D02*
X2793Y541D01*
X1683Y540D02*
X1698Y540D01*
X1783Y540D02*
X1798Y540D01*
X1883Y540D02*
X1898Y540D01*
X1983Y540D02*
X1998Y540D01*
X2083Y540D02*
X2098Y540D01*
X2183Y540D02*
X2198Y540D01*
X2283Y540D02*
X2298Y540D01*
X2383Y540D02*
X2398Y540D01*
X2483Y540D02*
X2498Y540D01*
X2583Y540D02*
X2598Y540D01*
X2683Y540D02*
X2698Y540D01*
X2783Y540D02*
X2798Y540D01*
X1680Y539D02*
X1700Y539D01*
X1780Y539D02*
X1800Y539D01*
X1880Y539D02*
X1900Y539D01*
X1980Y539D02*
X2000Y539D01*
X2080Y539D02*
X2100Y539D01*
X2180Y539D02*
X2200Y539D01*
X2280Y539D02*
X2300Y539D01*
X2380Y539D02*
X2400Y539D01*
X2480Y539D02*
X2500Y539D01*
X2580Y539D02*
X2600Y539D01*
X2680Y539D02*
X2700Y539D01*
X2780Y539D02*
X2800Y539D01*
X1678Y538D02*
X1702Y538D01*
X1778Y538D02*
X1802Y538D01*
X1878Y538D02*
X1902Y538D01*
X1978Y538D02*
X2002Y538D01*
X2078Y538D02*
X2102Y538D01*
X2178Y538D02*
X2202Y538D01*
X2278Y538D02*
X2302Y538D01*
X2378Y538D02*
X2402Y538D01*
X2478Y538D02*
X2502Y538D01*
X2578Y538D02*
X2602Y538D01*
X2678Y538D02*
X2702Y538D01*
X2778Y538D02*
X2802Y538D01*
X1676Y537D02*
X1704Y537D01*
X1776Y537D02*
X1804Y537D01*
X1876Y537D02*
X1904Y537D01*
X1976Y537D02*
X2004Y537D01*
X2076Y537D02*
X2104Y537D01*
X2176Y537D02*
X2204Y537D01*
X2276Y537D02*
X2304Y537D01*
X2376Y537D02*
X2404Y537D01*
X2476Y537D02*
X2504Y537D01*
X2576Y537D02*
X2604Y537D01*
X2676Y537D02*
X2704Y537D01*
X2776Y537D02*
X2804Y537D01*
X1675Y536D02*
X1705Y536D01*
X1775Y536D02*
X1805Y536D01*
X1875Y536D02*
X1905Y536D01*
X1975Y536D02*
X2005Y536D01*
X2075Y536D02*
X2105Y536D01*
X2175Y536D02*
X2205Y536D01*
X2275Y536D02*
X2305Y536D01*
X2375Y536D02*
X2405Y536D01*
X2475Y536D02*
X2505Y536D01*
X2575Y536D02*
X2605Y536D01*
X2675Y536D02*
X2705Y536D01*
X2775Y536D02*
X2805Y536D01*
X1674Y535D02*
X1706Y535D01*
X1774Y535D02*
X1806Y535D01*
X1874Y535D02*
X1906Y535D01*
X1974Y535D02*
X2006Y535D01*
X2074Y535D02*
X2106Y535D01*
X2174Y535D02*
X2206Y535D01*
X2274Y535D02*
X2306Y535D01*
X2374Y535D02*
X2406Y535D01*
X2474Y535D02*
X2506Y535D01*
X2574Y535D02*
X2606Y535D01*
X2674Y535D02*
X2706Y535D01*
X2774Y535D02*
X2806Y535D01*
X1673Y534D02*
X1708Y534D01*
X1773Y534D02*
X1808Y534D01*
X1873Y534D02*
X1908Y534D01*
X1973Y534D02*
X2008Y534D01*
X2073Y534D02*
X2108Y534D01*
X2173Y534D02*
X2208Y534D01*
X2273Y534D02*
X2308Y534D01*
X2373Y534D02*
X2408Y534D01*
X2473Y534D02*
X2508Y534D01*
X2573Y534D02*
X2608Y534D01*
X2673Y534D02*
X2708Y534D01*
X2773Y534D02*
X2808Y534D01*
X1672Y533D02*
X1709Y533D01*
X1772Y533D02*
X1809Y533D01*
X1872Y533D02*
X1909Y533D01*
X1972Y533D02*
X2009Y533D01*
X2072Y533D02*
X2109Y533D01*
X2172Y533D02*
X2209Y533D01*
X2272Y533D02*
X2309Y533D01*
X2372Y533D02*
X2409Y533D01*
X2472Y533D02*
X2509Y533D01*
X2572Y533D02*
X2609Y533D01*
X2672Y533D02*
X2709Y533D01*
X2772Y533D02*
X2809Y533D01*
X1671Y532D02*
X1709Y532D01*
X1771Y532D02*
X1809Y532D01*
X1871Y532D02*
X1909Y532D01*
X1971Y532D02*
X2009Y532D01*
X2071Y532D02*
X2109Y532D01*
X2171Y532D02*
X2209Y532D01*
X2271Y532D02*
X2309Y532D01*
X2371Y532D02*
X2409Y532D01*
X2471Y532D02*
X2509Y532D01*
X2571Y532D02*
X2609Y532D01*
X2671Y532D02*
X2709Y532D01*
X2771Y532D02*
X2809Y532D01*
X1670Y531D02*
X1710Y531D01*
X1770Y531D02*
X1810Y531D01*
X1870Y531D02*
X1910Y531D01*
X1970Y531D02*
X2010Y531D01*
X2070Y531D02*
X2110Y531D01*
X2170Y531D02*
X2210Y531D01*
X2270Y531D02*
X2310Y531D01*
X2370Y531D02*
X2410Y531D01*
X2470Y531D02*
X2510Y531D01*
X2570Y531D02*
X2610Y531D01*
X2670Y531D02*
X2710Y531D01*
X2770Y531D02*
X2810Y531D01*
X1669Y530D02*
X1711Y530D01*
X1769Y530D02*
X1811Y530D01*
X1869Y530D02*
X1911Y530D01*
X1969Y530D02*
X2011Y530D01*
X2069Y530D02*
X2111Y530D01*
X2169Y530D02*
X2211Y530D01*
X2269Y530D02*
X2311Y530D01*
X2369Y530D02*
X2411Y530D01*
X2469Y530D02*
X2511Y530D01*
X2569Y530D02*
X2611Y530D01*
X2669Y530D02*
X2711Y530D01*
X2769Y530D02*
X2811Y530D01*
X1669Y529D02*
X1712Y529D01*
X1769Y529D02*
X1812Y529D01*
X1869Y529D02*
X1912Y529D01*
X1969Y529D02*
X2012Y529D01*
X2069Y529D02*
X2112Y529D01*
X2169Y529D02*
X2212Y529D01*
X2269Y529D02*
X2312Y529D01*
X2369Y529D02*
X2412Y529D01*
X2469Y529D02*
X2512Y529D01*
X2569Y529D02*
X2612Y529D01*
X2669Y529D02*
X2712Y529D01*
X2769Y529D02*
X2812Y529D01*
X1668Y528D02*
X1712Y528D01*
X1768Y528D02*
X1812Y528D01*
X1868Y528D02*
X1912Y528D01*
X1968Y528D02*
X2012Y528D01*
X2068Y528D02*
X2112Y528D01*
X2168Y528D02*
X2212Y528D01*
X2268Y528D02*
X2312Y528D01*
X2368Y528D02*
X2412Y528D01*
X2468Y528D02*
X2512Y528D01*
X2568Y528D02*
X2612Y528D01*
X2668Y528D02*
X2712Y528D01*
X2768Y528D02*
X2812Y528D01*
X1668Y527D02*
X1713Y527D01*
X1768Y527D02*
X1813Y527D01*
X1868Y527D02*
X1913Y527D01*
X1968Y527D02*
X2013Y527D01*
X2068Y527D02*
X2113Y527D01*
X2168Y527D02*
X2213Y527D01*
X2268Y527D02*
X2313Y527D01*
X2368Y527D02*
X2413Y527D01*
X2468Y527D02*
X2513Y527D01*
X2568Y527D02*
X2613Y527D01*
X2668Y527D02*
X2713Y527D01*
X2768Y527D02*
X2813Y527D01*
X1667Y526D02*
X1713Y526D01*
X1767Y526D02*
X1813Y526D01*
X1867Y526D02*
X1913Y526D01*
X1967Y526D02*
X2013Y526D01*
X2067Y526D02*
X2113Y526D01*
X2167Y526D02*
X2213Y526D01*
X2267Y526D02*
X2313Y526D01*
X2367Y526D02*
X2413Y526D01*
X2467Y526D02*
X2513Y526D01*
X2567Y526D02*
X2613Y526D01*
X2667Y526D02*
X2713Y526D01*
X2767Y526D02*
X2813Y526D01*
X1667Y525D02*
X1714Y525D01*
X1767Y525D02*
X1814Y525D01*
X1867Y525D02*
X1914Y525D01*
X1967Y525D02*
X2014Y525D01*
X2067Y525D02*
X2114Y525D01*
X2167Y525D02*
X2214Y525D01*
X2267Y525D02*
X2314Y525D01*
X2367Y525D02*
X2414Y525D01*
X2467Y525D02*
X2514Y525D01*
X2567Y525D02*
X2614Y525D01*
X2667Y525D02*
X2714Y525D01*
X2767Y525D02*
X2814Y525D01*
X1666Y524D02*
X1714Y524D01*
X1766Y524D02*
X1814Y524D01*
X1866Y524D02*
X1914Y524D01*
X1966Y524D02*
X2014Y524D01*
X2066Y524D02*
X2114Y524D01*
X2166Y524D02*
X2214Y524D01*
X2266Y524D02*
X2314Y524D01*
X2366Y524D02*
X2414Y524D01*
X2466Y524D02*
X2514Y524D01*
X2566Y524D02*
X2614Y524D01*
X2666Y524D02*
X2714Y524D01*
X2766Y524D02*
X2814Y524D01*
X1666Y523D02*
X1715Y523D01*
X1766Y523D02*
X1815Y523D01*
X1866Y523D02*
X1915Y523D01*
X1966Y523D02*
X2015Y523D01*
X2066Y523D02*
X2114Y523D01*
X2166Y523D02*
X2214Y523D01*
X2266Y523D02*
X2314Y523D01*
X2366Y523D02*
X2414Y523D01*
X2466Y523D02*
X2514Y523D01*
X2566Y523D02*
X2614Y523D01*
X2666Y523D02*
X2714Y523D01*
X2766Y523D02*
X2814Y523D01*
X1666Y522D02*
X1715Y522D01*
X1766Y522D02*
X1815Y522D01*
X1866Y522D02*
X1915Y522D01*
X1966Y522D02*
X2015Y522D01*
X2066Y522D02*
X2115Y522D01*
X2166Y522D02*
X2215Y522D01*
X2266Y522D02*
X2315Y522D01*
X2366Y522D02*
X2415Y522D01*
X2466Y522D02*
X2515Y522D01*
X2566Y522D02*
X2615Y522D01*
X2666Y522D02*
X2715Y522D01*
X2766Y522D02*
X2815Y522D01*
X1665Y521D02*
X1715Y521D01*
X1765Y521D02*
X1815Y521D01*
X1865Y521D02*
X1915Y521D01*
X1965Y521D02*
X2015Y521D01*
X2065Y521D02*
X2115Y521D01*
X2165Y521D02*
X2215Y521D01*
X2265Y521D02*
X2315Y521D01*
X2365Y521D02*
X2415Y521D01*
X2465Y521D02*
X2515Y521D01*
X2565Y521D02*
X2615Y521D01*
X2665Y521D02*
X2715Y521D01*
X2765Y521D02*
X2815Y521D01*
X1665Y520D02*
X1715Y520D01*
X1765Y520D02*
X1815Y520D01*
X1865Y520D02*
X1915Y520D01*
X1965Y520D02*
X2015Y520D01*
X2065Y520D02*
X2115Y520D01*
X2165Y520D02*
X2215Y520D01*
X2265Y520D02*
X2315Y520D01*
X2365Y520D02*
X2415Y520D01*
X2465Y520D02*
X2515Y520D01*
X2565Y520D02*
X2615Y520D01*
X2665Y520D02*
X2715Y520D01*
X2765Y520D02*
X2815Y520D01*
X1665Y519D02*
X1715Y519D01*
X1765Y519D02*
X1815Y519D01*
X1865Y519D02*
X1915Y519D01*
X1965Y519D02*
X2015Y519D01*
X2065Y519D02*
X2115Y519D01*
X2165Y519D02*
X2215Y519D01*
X2265Y519D02*
X2315Y519D01*
X2365Y519D02*
X2415Y519D01*
X2465Y519D02*
X2515Y519D01*
X2565Y519D02*
X2615Y519D01*
X2665Y519D02*
X2715Y519D01*
X2765Y519D02*
X2815Y519D01*
X1665Y518D02*
X1716Y518D01*
X1765Y518D02*
X1816Y518D01*
X1865Y518D02*
X1916Y518D01*
X1965Y518D02*
X2016Y518D01*
X2065Y518D02*
X2116Y518D01*
X2165Y518D02*
X2216Y518D01*
X2265Y518D02*
X2316Y518D01*
X2365Y518D02*
X2416Y518D01*
X2465Y518D02*
X2515Y518D01*
X2565Y518D02*
X2615Y518D01*
X2665Y518D02*
X2715Y518D01*
X2765Y518D02*
X2815Y518D01*
X1665Y517D02*
X1716Y517D01*
X1765Y517D02*
X1816Y517D01*
X1865Y517D02*
X1916Y517D01*
X1965Y517D02*
X2016Y517D01*
X2065Y517D02*
X2116Y517D01*
X2165Y517D02*
X2216Y517D01*
X2265Y517D02*
X2316Y517D01*
X2365Y517D02*
X2416Y517D01*
X2465Y517D02*
X2516Y517D01*
X2565Y517D02*
X2616Y517D01*
X2665Y517D02*
X2716Y517D01*
X2765Y517D02*
X2816Y517D01*
X1665Y516D02*
X1716Y516D01*
X1765Y516D02*
X1816Y516D01*
X1865Y516D02*
X1916Y516D01*
X1965Y516D02*
X2016Y516D01*
X2065Y516D02*
X2116Y516D01*
X2165Y516D02*
X2216Y516D01*
X2265Y516D02*
X2316Y516D01*
X2365Y516D02*
X2416Y516D01*
X2465Y516D02*
X2516Y516D01*
X2565Y516D02*
X2616Y516D01*
X2665Y516D02*
X2716Y516D01*
X2765Y516D02*
X2816Y516D01*
X1665Y515D02*
X1716Y515D01*
X1765Y515D02*
X1816Y515D01*
X1865Y515D02*
X1916Y515D01*
X1965Y515D02*
X2016Y515D01*
X2065Y515D02*
X2116Y515D01*
X2165Y515D02*
X2216Y515D01*
X2265Y515D02*
X2316Y515D01*
X2365Y515D02*
X2416Y515D01*
X2465Y515D02*
X2516Y515D01*
X2565Y515D02*
X2616Y515D01*
X2665Y515D02*
X2716Y515D01*
X2765Y515D02*
X2816Y515D01*
X1665Y514D02*
X1716Y514D01*
X1765Y514D02*
X1816Y514D01*
X1865Y514D02*
X1916Y514D01*
X1965Y514D02*
X2016Y514D01*
X2065Y514D02*
X2116Y514D01*
X2165Y514D02*
X2216Y514D01*
X2265Y514D02*
X2316Y514D01*
X2365Y514D02*
X2416Y514D01*
X2465Y514D02*
X2516Y514D01*
X2565Y514D02*
X2616Y514D01*
X2665Y514D02*
X2716Y514D01*
X2765Y514D02*
X2816Y514D01*
X1665Y513D02*
X1716Y513D01*
X1765Y513D02*
X1816Y513D01*
X1865Y513D02*
X1916Y513D01*
X1965Y513D02*
X2016Y513D01*
X2065Y513D02*
X2116Y513D01*
X2165Y513D02*
X2216Y513D01*
X2265Y513D02*
X2316Y513D01*
X2365Y513D02*
X2416Y513D01*
X2465Y513D02*
X2516Y513D01*
X2565Y513D02*
X2616Y513D01*
X2665Y513D02*
X2716Y513D01*
X2765Y513D02*
X2816Y513D01*
X1665Y512D02*
X1716Y512D01*
X1765Y512D02*
X1816Y512D01*
X1865Y512D02*
X1916Y512D01*
X1965Y512D02*
X2016Y512D01*
X2065Y512D02*
X2116Y512D01*
X2165Y512D02*
X2216Y512D01*
X2265Y512D02*
X2316Y512D01*
X2365Y512D02*
X2416Y512D01*
X2465Y512D02*
X2516Y512D01*
X2565Y512D02*
X2616Y512D01*
X2665Y512D02*
X2716Y512D01*
X2765Y512D02*
X2816Y512D01*
X1665Y511D02*
X1716Y511D01*
X1765Y511D02*
X1816Y511D01*
X1865Y511D02*
X1916Y511D01*
X1965Y511D02*
X2016Y511D01*
X2065Y511D02*
X2116Y511D01*
X2165Y511D02*
X2216Y511D01*
X2265Y511D02*
X2316Y511D01*
X2365Y511D02*
X2416Y511D01*
X2465Y511D02*
X2516Y511D01*
X2565Y511D02*
X2616Y511D01*
X2665Y511D02*
X2716Y511D01*
X2765Y511D02*
X2816Y511D01*
X1665Y510D02*
X1716Y510D01*
X1765Y510D02*
X1816Y510D01*
X1865Y510D02*
X1916Y510D01*
X1965Y510D02*
X2016Y510D01*
X2065Y510D02*
X2116Y510D01*
X2165Y510D02*
X2216Y510D01*
X2265Y510D02*
X2316Y510D01*
X2365Y510D02*
X2416Y510D01*
X2465Y510D02*
X2516Y510D01*
X2565Y510D02*
X2616Y510D01*
X2665Y510D02*
X2716Y510D01*
X2765Y510D02*
X2816Y510D01*
X1665Y509D02*
X1716Y509D01*
X1765Y509D02*
X1816Y509D01*
X1865Y509D02*
X1916Y509D01*
X1965Y509D02*
X2016Y509D01*
X2065Y509D02*
X2116Y509D01*
X2165Y509D02*
X2216Y509D01*
X2265Y509D02*
X2316Y509D01*
X2365Y509D02*
X2416Y509D01*
X2465Y509D02*
X2516Y509D01*
X2565Y509D02*
X2616Y509D01*
X2665Y509D02*
X2716Y509D01*
X2765Y509D02*
X2816Y509D01*
X1665Y508D02*
X1716Y508D01*
X1765Y508D02*
X1816Y508D01*
X1865Y508D02*
X1916Y508D01*
X1965Y508D02*
X2016Y508D01*
X2065Y508D02*
X2116Y508D01*
X2165Y508D02*
X2216Y508D01*
X2265Y508D02*
X2316Y508D01*
X2365Y508D02*
X2416Y508D01*
X2465Y508D02*
X2516Y508D01*
X2565Y508D02*
X2616Y508D01*
X2665Y508D02*
X2716Y508D01*
X2765Y508D02*
X2816Y508D01*
X1665Y507D02*
X1716Y507D01*
X1765Y507D02*
X1816Y507D01*
X1865Y507D02*
X1916Y507D01*
X1965Y507D02*
X2016Y507D01*
X2065Y507D02*
X2116Y507D01*
X2165Y507D02*
X2216Y507D01*
X2265Y507D02*
X2316Y507D01*
X2365Y507D02*
X2416Y507D01*
X2465Y507D02*
X2516Y507D01*
X2565Y507D02*
X2616Y507D01*
X2665Y507D02*
X2716Y507D01*
X2765Y507D02*
X2816Y507D01*
X1665Y506D02*
X1716Y506D01*
X1765Y506D02*
X1816Y506D01*
X1865Y506D02*
X1916Y506D01*
X1965Y506D02*
X2016Y506D01*
X2065Y506D02*
X2116Y506D01*
X2165Y506D02*
X2216Y506D01*
X2265Y506D02*
X2316Y506D01*
X2365Y506D02*
X2416Y506D01*
X2465Y506D02*
X2516Y506D01*
X2565Y506D02*
X2616Y506D01*
X2665Y506D02*
X2716Y506D01*
X2765Y506D02*
X2816Y506D01*
X1665Y505D02*
X1687Y505D01*
X1694Y505D02*
X1716Y505D01*
X1765Y505D02*
X1787Y505D01*
X1794Y505D02*
X1816Y505D01*
X1865Y505D02*
X1887Y505D01*
X1894Y505D02*
X1916Y505D01*
X1965Y505D02*
X1987Y505D01*
X1994Y505D02*
X2016Y505D01*
X2065Y505D02*
X2087Y505D01*
X2094Y505D02*
X2116Y505D01*
X2165Y505D02*
X2187Y505D01*
X2194Y505D02*
X2216Y505D01*
X2265Y505D02*
X2287Y505D01*
X2294Y505D02*
X2316Y505D01*
X2365Y505D02*
X2387Y505D01*
X2394Y505D02*
X2416Y505D01*
X2465Y505D02*
X2487Y505D01*
X2494Y505D02*
X2516Y505D01*
X2565Y505D02*
X2587Y505D01*
X2594Y505D02*
X2616Y505D01*
X2665Y505D02*
X2687Y505D01*
X2694Y505D02*
X2716Y505D01*
X2765Y505D02*
X2787Y505D01*
X2794Y505D02*
X2816Y505D01*
X1665Y504D02*
X1683Y504D01*
X1697Y504D02*
X1716Y504D01*
X1765Y504D02*
X1783Y504D01*
X1797Y504D02*
X1816Y504D01*
X1865Y504D02*
X1883Y504D01*
X1897Y504D02*
X1916Y504D01*
X1965Y504D02*
X1983Y504D01*
X1997Y504D02*
X2016Y504D01*
X2065Y504D02*
X2083Y504D01*
X2097Y504D02*
X2116Y504D01*
X2165Y504D02*
X2183Y504D01*
X2197Y504D02*
X2216Y504D01*
X2265Y504D02*
X2283Y504D01*
X2297Y504D02*
X2316Y504D01*
X2365Y504D02*
X2383Y504D01*
X2397Y504D02*
X2416Y504D01*
X2465Y504D02*
X2483Y504D01*
X2497Y504D02*
X2516Y504D01*
X2565Y504D02*
X2583Y504D01*
X2597Y504D02*
X2616Y504D01*
X2665Y504D02*
X2683Y504D01*
X2697Y504D02*
X2716Y504D01*
X2765Y504D02*
X2783Y504D01*
X2797Y504D02*
X2816Y504D01*
X1665Y503D02*
X1682Y503D01*
X1699Y503D02*
X1716Y503D01*
X1765Y503D02*
X1782Y503D01*
X1799Y503D02*
X1816Y503D01*
X1865Y503D02*
X1882Y503D01*
X1899Y503D02*
X1916Y503D01*
X1965Y503D02*
X1982Y503D01*
X1999Y503D02*
X2016Y503D01*
X2065Y503D02*
X2082Y503D01*
X2099Y503D02*
X2116Y503D01*
X2165Y503D02*
X2182Y503D01*
X2199Y503D02*
X2216Y503D01*
X2265Y503D02*
X2282Y503D01*
X2299Y503D02*
X2316Y503D01*
X2365Y503D02*
X2381Y503D01*
X2399Y503D02*
X2416Y503D01*
X2465Y503D02*
X2481Y503D01*
X2499Y503D02*
X2516Y503D01*
X2565Y503D02*
X2581Y503D01*
X2599Y503D02*
X2616Y503D01*
X2665Y503D02*
X2681Y503D01*
X2699Y503D02*
X2716Y503D01*
X2765Y503D02*
X2781Y503D01*
X2799Y503D02*
X2816Y503D01*
X1665Y502D02*
X1680Y502D01*
X1700Y502D02*
X1716Y502D01*
X1765Y502D02*
X1780Y502D01*
X1800Y502D02*
X1816Y502D01*
X1865Y502D02*
X1880Y502D01*
X1900Y502D02*
X1916Y502D01*
X1965Y502D02*
X1980Y502D01*
X2000Y502D02*
X2016Y502D01*
X2065Y502D02*
X2080Y502D01*
X2100Y502D02*
X2116Y502D01*
X2165Y502D02*
X2180Y502D01*
X2200Y502D02*
X2216Y502D01*
X2265Y502D02*
X2280Y502D01*
X2300Y502D02*
X2316Y502D01*
X2365Y502D02*
X2380Y502D01*
X2400Y502D02*
X2416Y502D01*
X2465Y502D02*
X2480Y502D01*
X2500Y502D02*
X2516Y502D01*
X2565Y502D02*
X2580Y502D01*
X2600Y502D02*
X2616Y502D01*
X2665Y502D02*
X2680Y502D01*
X2700Y502D02*
X2716Y502D01*
X2765Y502D02*
X2780Y502D01*
X2800Y502D02*
X2816Y502D01*
X1665Y501D02*
X1679Y501D01*
X1702Y501D02*
X1716Y501D01*
X1765Y501D02*
X1779Y501D01*
X1802Y501D02*
X1816Y501D01*
X1865Y501D02*
X1879Y501D01*
X1902Y501D02*
X1916Y501D01*
X1965Y501D02*
X1979Y501D01*
X2002Y501D02*
X2016Y501D01*
X2065Y501D02*
X2079Y501D01*
X2102Y501D02*
X2116Y501D01*
X2165Y501D02*
X2179Y501D01*
X2202Y501D02*
X2216Y501D01*
X2265Y501D02*
X2279Y501D01*
X2302Y501D02*
X2316Y501D01*
X2365Y501D02*
X2379Y501D01*
X2402Y501D02*
X2416Y501D01*
X2465Y501D02*
X2479Y501D01*
X2501Y501D02*
X2516Y501D01*
X2565Y501D02*
X2579Y501D01*
X2601Y501D02*
X2616Y501D01*
X2665Y501D02*
X2679Y501D01*
X2701Y501D02*
X2716Y501D01*
X2765Y501D02*
X2779Y501D01*
X2801Y501D02*
X2816Y501D01*
X1665Y500D02*
X1678Y500D01*
X1703Y500D02*
X1716Y500D01*
X1765Y500D02*
X1778Y500D01*
X1803Y500D02*
X1816Y500D01*
X1865Y500D02*
X1878Y500D01*
X1903Y500D02*
X1916Y500D01*
X1965Y500D02*
X1978Y500D01*
X2003Y500D02*
X2016Y500D01*
X2065Y500D02*
X2078Y500D01*
X2102Y500D02*
X2116Y500D01*
X2165Y500D02*
X2178Y500D01*
X2202Y500D02*
X2216Y500D01*
X2265Y500D02*
X2278Y500D01*
X2302Y500D02*
X2316Y500D01*
X2365Y500D02*
X2378Y500D01*
X2402Y500D02*
X2416Y500D01*
X2465Y500D02*
X2478Y500D01*
X2502Y500D02*
X2516Y500D01*
X2565Y500D02*
X2578Y500D01*
X2602Y500D02*
X2616Y500D01*
X2665Y500D02*
X2678Y500D01*
X2702Y500D02*
X2716Y500D01*
X2765Y500D02*
X2778Y500D01*
X2802Y500D02*
X2816Y500D01*
X1665Y499D02*
X1677Y499D01*
X1703Y499D02*
X1716Y499D01*
X1765Y499D02*
X1777Y499D01*
X1803Y499D02*
X1816Y499D01*
X1865Y499D02*
X1877Y499D01*
X1903Y499D02*
X1916Y499D01*
X1965Y499D02*
X1977Y499D01*
X2003Y499D02*
X2016Y499D01*
X2065Y499D02*
X2077Y499D01*
X2103Y499D02*
X2116Y499D01*
X2165Y499D02*
X2177Y499D01*
X2203Y499D02*
X2216Y499D01*
X2265Y499D02*
X2277Y499D01*
X2303Y499D02*
X2316Y499D01*
X2365Y499D02*
X2377Y499D01*
X2403Y499D02*
X2416Y499D01*
X2465Y499D02*
X2477Y499D01*
X2503Y499D02*
X2516Y499D01*
X2565Y499D02*
X2577Y499D01*
X2603Y499D02*
X2616Y499D01*
X2665Y499D02*
X2677Y499D01*
X2703Y499D02*
X2716Y499D01*
X2765Y499D02*
X2777Y499D01*
X2803Y499D02*
X2816Y499D01*
X1665Y498D02*
X1676Y498D01*
X1704Y498D02*
X1716Y498D01*
X1765Y498D02*
X1776Y498D01*
X1804Y498D02*
X1816Y498D01*
X1865Y498D02*
X1876Y498D01*
X1904Y498D02*
X1916Y498D01*
X1965Y498D02*
X1976Y498D01*
X2004Y498D02*
X2016Y498D01*
X2065Y498D02*
X2076Y498D01*
X2104Y498D02*
X2116Y498D01*
X2165Y498D02*
X2176Y498D01*
X2204Y498D02*
X2216Y498D01*
X2265Y498D02*
X2276Y498D01*
X2304Y498D02*
X2316Y498D01*
X2365Y498D02*
X2376Y498D01*
X2404Y498D02*
X2416Y498D01*
X2465Y498D02*
X2476Y498D01*
X2504Y498D02*
X2516Y498D01*
X2565Y498D02*
X2576Y498D01*
X2604Y498D02*
X2616Y498D01*
X2665Y498D02*
X2676Y498D01*
X2704Y498D02*
X2716Y498D01*
X2765Y498D02*
X2776Y498D01*
X2804Y498D02*
X2816Y498D01*
X1665Y497D02*
X1676Y497D01*
X1705Y497D02*
X1716Y497D01*
X1765Y497D02*
X1776Y497D01*
X1805Y497D02*
X1816Y497D01*
X1865Y497D02*
X1876Y497D01*
X1905Y497D02*
X1916Y497D01*
X1965Y497D02*
X1976Y497D01*
X2005Y497D02*
X2016Y497D01*
X2065Y497D02*
X2076Y497D01*
X2105Y497D02*
X2116Y497D01*
X2165Y497D02*
X2176Y497D01*
X2205Y497D02*
X2216Y497D01*
X2265Y497D02*
X2276Y497D01*
X2305Y497D02*
X2316Y497D01*
X2365Y497D02*
X2376Y497D01*
X2405Y497D02*
X2416Y497D01*
X2465Y497D02*
X2476Y497D01*
X2505Y497D02*
X2516Y497D01*
X2565Y497D02*
X2576Y497D01*
X2605Y497D02*
X2616Y497D01*
X2665Y497D02*
X2676Y497D01*
X2705Y497D02*
X2716Y497D01*
X2765Y497D02*
X2776Y497D01*
X2805Y497D02*
X2816Y497D01*
X1665Y496D02*
X1675Y496D01*
X1705Y496D02*
X1716Y496D01*
X1765Y496D02*
X1775Y496D01*
X1805Y496D02*
X1816Y496D01*
X1865Y496D02*
X1875Y496D01*
X1905Y496D02*
X1916Y496D01*
X1965Y496D02*
X1975Y496D01*
X2005Y496D02*
X2016Y496D01*
X2065Y496D02*
X2075Y496D01*
X2105Y496D02*
X2116Y496D01*
X2165Y496D02*
X2175Y496D01*
X2205Y496D02*
X2216Y496D01*
X2265Y496D02*
X2275Y496D01*
X2305Y496D02*
X2316Y496D01*
X2365Y496D02*
X2375Y496D01*
X2405Y496D02*
X2416Y496D01*
X2465Y496D02*
X2475Y496D01*
X2505Y496D02*
X2516Y496D01*
X2565Y496D02*
X2575Y496D01*
X2605Y496D02*
X2616Y496D01*
X2665Y496D02*
X2675Y496D01*
X2705Y496D02*
X2716Y496D01*
X2765Y496D02*
X2775Y496D01*
X2805Y496D02*
X2816Y496D01*
X1665Y495D02*
X1675Y495D01*
X1706Y495D02*
X1716Y495D01*
X1765Y495D02*
X1775Y495D01*
X1806Y495D02*
X1816Y495D01*
X1865Y495D02*
X1875Y495D01*
X1906Y495D02*
X1916Y495D01*
X1965Y495D02*
X1975Y495D01*
X2006Y495D02*
X2016Y495D01*
X2065Y495D02*
X2075Y495D01*
X2106Y495D02*
X2116Y495D01*
X2165Y495D02*
X2175Y495D01*
X2206Y495D02*
X2216Y495D01*
X2265Y495D02*
X2275Y495D01*
X2306Y495D02*
X2316Y495D01*
X2365Y495D02*
X2375Y495D01*
X2406Y495D02*
X2416Y495D01*
X2465Y495D02*
X2475Y495D01*
X2506Y495D02*
X2516Y495D01*
X2565Y495D02*
X2575Y495D01*
X2606Y495D02*
X2616Y495D01*
X2665Y495D02*
X2675Y495D01*
X2706Y495D02*
X2716Y495D01*
X2765Y495D02*
X2775Y495D01*
X2806Y495D02*
X2816Y495D01*
X1665Y494D02*
X1674Y494D01*
X1706Y494D02*
X1716Y494D01*
X1765Y494D02*
X1774Y494D01*
X1806Y494D02*
X1816Y494D01*
X1865Y494D02*
X1874Y494D01*
X1906Y494D02*
X1916Y494D01*
X1965Y494D02*
X1974Y494D01*
X2006Y494D02*
X2016Y494D01*
X2065Y494D02*
X2074Y494D01*
X2106Y494D02*
X2116Y494D01*
X2165Y494D02*
X2174Y494D01*
X2206Y494D02*
X2216Y494D01*
X2265Y494D02*
X2274Y494D01*
X2306Y494D02*
X2316Y494D01*
X2365Y494D02*
X2374Y494D01*
X2406Y494D02*
X2416Y494D01*
X2465Y494D02*
X2474Y494D01*
X2506Y494D02*
X2516Y494D01*
X2565Y494D02*
X2574Y494D01*
X2606Y494D02*
X2616Y494D01*
X2665Y494D02*
X2674Y494D01*
X2706Y494D02*
X2716Y494D01*
X2765Y494D02*
X2774Y494D01*
X2806Y494D02*
X2816Y494D01*
X1665Y493D02*
X1674Y493D01*
X1706Y493D02*
X1716Y493D01*
X1765Y493D02*
X1774Y493D01*
X1806Y493D02*
X1816Y493D01*
X1865Y493D02*
X1874Y493D01*
X1906Y493D02*
X1916Y493D01*
X1965Y493D02*
X1974Y493D01*
X2006Y493D02*
X2016Y493D01*
X2065Y493D02*
X2074Y493D01*
X2106Y493D02*
X2116Y493D01*
X2165Y493D02*
X2174Y493D01*
X2206Y493D02*
X2216Y493D01*
X2265Y493D02*
X2274Y493D01*
X2306Y493D02*
X2316Y493D01*
X2365Y493D02*
X2374Y493D01*
X2406Y493D02*
X2416Y493D01*
X2465Y493D02*
X2474Y493D01*
X2506Y493D02*
X2516Y493D01*
X2565Y493D02*
X2574Y493D01*
X2606Y493D02*
X2616Y493D01*
X2665Y493D02*
X2674Y493D01*
X2706Y493D02*
X2716Y493D01*
X2765Y493D02*
X2774Y493D01*
X2806Y493D02*
X2816Y493D01*
X1665Y492D02*
X1674Y492D01*
X1706Y492D02*
X1716Y492D01*
X1765Y492D02*
X1774Y492D01*
X1806Y492D02*
X1816Y492D01*
X1865Y492D02*
X1874Y492D01*
X1906Y492D02*
X1916Y492D01*
X1965Y492D02*
X1974Y492D01*
X2006Y492D02*
X2016Y492D01*
X2065Y492D02*
X2074Y492D01*
X2106Y492D02*
X2116Y492D01*
X2165Y492D02*
X2174Y492D01*
X2206Y492D02*
X2216Y492D01*
X2265Y492D02*
X2274Y492D01*
X2306Y492D02*
X2316Y492D01*
X2365Y492D02*
X2374Y492D01*
X2406Y492D02*
X2416Y492D01*
X2465Y492D02*
X2474Y492D01*
X2506Y492D02*
X2516Y492D01*
X2565Y492D02*
X2574Y492D01*
X2606Y492D02*
X2616Y492D01*
X2665Y492D02*
X2674Y492D01*
X2706Y492D02*
X2716Y492D01*
X2765Y492D02*
X2774Y492D01*
X2806Y492D02*
X2816Y492D01*
X1665Y491D02*
X1674Y491D01*
X1707Y491D02*
X1716Y491D01*
X1765Y491D02*
X1774Y491D01*
X1807Y491D02*
X1816Y491D01*
X1865Y491D02*
X1874Y491D01*
X1907Y491D02*
X1916Y491D01*
X1965Y491D02*
X1974Y491D01*
X2007Y491D02*
X2016Y491D01*
X2065Y491D02*
X2074Y491D01*
X2106Y491D02*
X2116Y491D01*
X2165Y491D02*
X2174Y491D01*
X2206Y491D02*
X2216Y491D01*
X2265Y491D02*
X2274Y491D01*
X2306Y491D02*
X2316Y491D01*
X2365Y491D02*
X2374Y491D01*
X2406Y491D02*
X2416Y491D01*
X2465Y491D02*
X2474Y491D01*
X2506Y491D02*
X2516Y491D01*
X2565Y491D02*
X2574Y491D01*
X2606Y491D02*
X2616Y491D01*
X2665Y491D02*
X2674Y491D01*
X2706Y491D02*
X2716Y491D01*
X2765Y491D02*
X2774Y491D01*
X2806Y491D02*
X2816Y491D01*
X1665Y490D02*
X1674Y490D01*
X1707Y490D02*
X1716Y490D01*
X1765Y490D02*
X1774Y490D01*
X1807Y490D02*
X1816Y490D01*
X1865Y490D02*
X1874Y490D01*
X1907Y490D02*
X1916Y490D01*
X1965Y490D02*
X1974Y490D01*
X2007Y490D02*
X2016Y490D01*
X2065Y490D02*
X2074Y490D01*
X2107Y490D02*
X2116Y490D01*
X2165Y490D02*
X2174Y490D01*
X2207Y490D02*
X2216Y490D01*
X2265Y490D02*
X2274Y490D01*
X2307Y490D02*
X2316Y490D01*
X2365Y490D02*
X2374Y490D01*
X2407Y490D02*
X2416Y490D01*
X2465Y490D02*
X2474Y490D01*
X2507Y490D02*
X2516Y490D01*
X2565Y490D02*
X2574Y490D01*
X2607Y490D02*
X2616Y490D01*
X2665Y490D02*
X2674Y490D01*
X2707Y490D02*
X2716Y490D01*
X2765Y490D02*
X2774Y490D01*
X2807Y490D02*
X2816Y490D01*
X1665Y489D02*
X1674Y489D01*
X1707Y489D02*
X1716Y489D01*
X1765Y489D02*
X1774Y489D01*
X1807Y489D02*
X1816Y489D01*
X1865Y489D02*
X1874Y489D01*
X1907Y489D02*
X1916Y489D01*
X1965Y489D02*
X1974Y489D01*
X2007Y489D02*
X2016Y489D01*
X2065Y489D02*
X2074Y489D01*
X2107Y489D02*
X2116Y489D01*
X2165Y489D02*
X2174Y489D01*
X2207Y489D02*
X2216Y489D01*
X2265Y489D02*
X2274Y489D01*
X2307Y489D02*
X2316Y489D01*
X2365Y489D02*
X2374Y489D01*
X2407Y489D02*
X2416Y489D01*
X2465Y489D02*
X2474Y489D01*
X2507Y489D02*
X2516Y489D01*
X2565Y489D02*
X2574Y489D01*
X2607Y489D02*
X2616Y489D01*
X2665Y489D02*
X2674Y489D01*
X2707Y489D02*
X2716Y489D01*
X2765Y489D02*
X2774Y489D01*
X2807Y489D02*
X2816Y489D01*
X1665Y488D02*
X1674Y488D01*
X1707Y488D02*
X1716Y488D01*
X1765Y488D02*
X1774Y488D01*
X1807Y488D02*
X1816Y488D01*
X1865Y488D02*
X1874Y488D01*
X1907Y488D02*
X1916Y488D01*
X1965Y488D02*
X1974Y488D01*
X2007Y488D02*
X2016Y488D01*
X2065Y488D02*
X2074Y488D01*
X2107Y488D02*
X2116Y488D01*
X2165Y488D02*
X2174Y488D01*
X2207Y488D02*
X2216Y488D01*
X2265Y488D02*
X2274Y488D01*
X2307Y488D02*
X2316Y488D01*
X2365Y488D02*
X2374Y488D01*
X2407Y488D02*
X2416Y488D01*
X2465Y488D02*
X2474Y488D01*
X2507Y488D02*
X2516Y488D01*
X2565Y488D02*
X2574Y488D01*
X2607Y488D02*
X2616Y488D01*
X2665Y488D02*
X2674Y488D01*
X2706Y488D02*
X2716Y488D01*
X2765Y488D02*
X2774Y488D01*
X2806Y488D02*
X2816Y488D01*
X1665Y487D02*
X1674Y487D01*
X1706Y487D02*
X1716Y487D01*
X1765Y487D02*
X1774Y487D01*
X1806Y487D02*
X1816Y487D01*
X1865Y487D02*
X1874Y487D01*
X1906Y487D02*
X1916Y487D01*
X1965Y487D02*
X1974Y487D01*
X2006Y487D02*
X2016Y487D01*
X2065Y487D02*
X2074Y487D01*
X2106Y487D02*
X2116Y487D01*
X2165Y487D02*
X2174Y487D01*
X2206Y487D02*
X2216Y487D01*
X2265Y487D02*
X2274Y487D01*
X2306Y487D02*
X2316Y487D01*
X2365Y487D02*
X2374Y487D01*
X2406Y487D02*
X2416Y487D01*
X2465Y487D02*
X2474Y487D01*
X2506Y487D02*
X2516Y487D01*
X2565Y487D02*
X2574Y487D01*
X2606Y487D02*
X2616Y487D01*
X2665Y487D02*
X2674Y487D01*
X2706Y487D02*
X2716Y487D01*
X2765Y487D02*
X2774Y487D01*
X2806Y487D02*
X2816Y487D01*
X1665Y486D02*
X1674Y486D01*
X1706Y486D02*
X1716Y486D01*
X1765Y486D02*
X1774Y486D01*
X1806Y486D02*
X1816Y486D01*
X1865Y486D02*
X1874Y486D01*
X1906Y486D02*
X1916Y486D01*
X1965Y486D02*
X1974Y486D01*
X2006Y486D02*
X2016Y486D01*
X2065Y486D02*
X2074Y486D01*
X2106Y486D02*
X2116Y486D01*
X2165Y486D02*
X2174Y486D01*
X2206Y486D02*
X2216Y486D01*
X2265Y486D02*
X2274Y486D01*
X2306Y486D02*
X2316Y486D01*
X2365Y486D02*
X2374Y486D01*
X2406Y486D02*
X2416Y486D01*
X2465Y486D02*
X2474Y486D01*
X2506Y486D02*
X2516Y486D01*
X2565Y486D02*
X2574Y486D01*
X2606Y486D02*
X2616Y486D01*
X2665Y486D02*
X2674Y486D01*
X2706Y486D02*
X2716Y486D01*
X2765Y486D02*
X2774Y486D01*
X2806Y486D02*
X2816Y486D01*
X1665Y485D02*
X1674Y485D01*
X1706Y485D02*
X1716Y485D01*
X1765Y485D02*
X1774Y485D01*
X1806Y485D02*
X1816Y485D01*
X1865Y485D02*
X1874Y485D01*
X1906Y485D02*
X1916Y485D01*
X1965Y485D02*
X1974Y485D01*
X2006Y485D02*
X2016Y485D01*
X2065Y485D02*
X2074Y485D01*
X2106Y485D02*
X2116Y485D01*
X2165Y485D02*
X2174Y485D01*
X2206Y485D02*
X2216Y485D01*
X2265Y485D02*
X2274Y485D01*
X2306Y485D02*
X2316Y485D01*
X2365Y485D02*
X2374Y485D01*
X2406Y485D02*
X2416Y485D01*
X2465Y485D02*
X2474Y485D01*
X2506Y485D02*
X2516Y485D01*
X2565Y485D02*
X2574Y485D01*
X2606Y485D02*
X2616Y485D01*
X2665Y485D02*
X2674Y485D01*
X2706Y485D02*
X2716Y485D01*
X2765Y485D02*
X2774Y485D01*
X2806Y485D02*
X2816Y485D01*
X1665Y484D02*
X1675Y484D01*
X1706Y484D02*
X1716Y484D01*
X1765Y484D02*
X1775Y484D01*
X1806Y484D02*
X1816Y484D01*
X1865Y484D02*
X1875Y484D01*
X1906Y484D02*
X1916Y484D01*
X1965Y484D02*
X1975Y484D01*
X2006Y484D02*
X2016Y484D01*
X2065Y484D02*
X2075Y484D01*
X2106Y484D02*
X2116Y484D01*
X2165Y484D02*
X2175Y484D01*
X2206Y484D02*
X2216Y484D01*
X2265Y484D02*
X2275Y484D01*
X2306Y484D02*
X2316Y484D01*
X2365Y484D02*
X2375Y484D01*
X2406Y484D02*
X2416Y484D01*
X2465Y484D02*
X2475Y484D01*
X2506Y484D02*
X2516Y484D01*
X2565Y484D02*
X2575Y484D01*
X2606Y484D02*
X2616Y484D01*
X2665Y484D02*
X2675Y484D01*
X2706Y484D02*
X2716Y484D01*
X2765Y484D02*
X2775Y484D01*
X2806Y484D02*
X2816Y484D01*
X1665Y483D02*
X1675Y483D01*
X1705Y483D02*
X1716Y483D01*
X1765Y483D02*
X1775Y483D01*
X1805Y483D02*
X1816Y483D01*
X1865Y483D02*
X1875Y483D01*
X1905Y483D02*
X1916Y483D01*
X1965Y483D02*
X1975Y483D01*
X2005Y483D02*
X2016Y483D01*
X2065Y483D02*
X2075Y483D01*
X2105Y483D02*
X2116Y483D01*
X2165Y483D02*
X2175Y483D01*
X2205Y483D02*
X2216Y483D01*
X2265Y483D02*
X2275Y483D01*
X2305Y483D02*
X2316Y483D01*
X2365Y483D02*
X2375Y483D01*
X2405Y483D02*
X2416Y483D01*
X2465Y483D02*
X2475Y483D01*
X2505Y483D02*
X2516Y483D01*
X2565Y483D02*
X2575Y483D01*
X2605Y483D02*
X2616Y483D01*
X2665Y483D02*
X2675Y483D01*
X2705Y483D02*
X2716Y483D01*
X2765Y483D02*
X2775Y483D01*
X2805Y483D02*
X2816Y483D01*
X1665Y482D02*
X1676Y482D01*
X1705Y482D02*
X1716Y482D01*
X1765Y482D02*
X1776Y482D01*
X1805Y482D02*
X1816Y482D01*
X1865Y482D02*
X1876Y482D01*
X1905Y482D02*
X1916Y482D01*
X1965Y482D02*
X1976Y482D01*
X2005Y482D02*
X2016Y482D01*
X2065Y482D02*
X2076Y482D01*
X2105Y482D02*
X2116Y482D01*
X2165Y482D02*
X2176Y482D01*
X2205Y482D02*
X2216Y482D01*
X2265Y482D02*
X2276Y482D01*
X2305Y482D02*
X2316Y482D01*
X2365Y482D02*
X2376Y482D01*
X2405Y482D02*
X2416Y482D01*
X2465Y482D02*
X2475Y482D01*
X2505Y482D02*
X2516Y482D01*
X2565Y482D02*
X2575Y482D01*
X2605Y482D02*
X2616Y482D01*
X2665Y482D02*
X2675Y482D01*
X2705Y482D02*
X2716Y482D01*
X2765Y482D02*
X2775Y482D01*
X2805Y482D02*
X2816Y482D01*
X1665Y481D02*
X1676Y481D01*
X1704Y481D02*
X1716Y481D01*
X1765Y481D02*
X1776Y481D01*
X1804Y481D02*
X1816Y481D01*
X1865Y481D02*
X1876Y481D01*
X1904Y481D02*
X1916Y481D01*
X1965Y481D02*
X1976Y481D01*
X2004Y481D02*
X2016Y481D01*
X2065Y481D02*
X2076Y481D01*
X2104Y481D02*
X2116Y481D01*
X2165Y481D02*
X2176Y481D01*
X2204Y481D02*
X2216Y481D01*
X2265Y481D02*
X2276Y481D01*
X2304Y481D02*
X2316Y481D01*
X2365Y481D02*
X2376Y481D01*
X2404Y481D02*
X2416Y481D01*
X2465Y481D02*
X2476Y481D01*
X2504Y481D02*
X2516Y481D01*
X2565Y481D02*
X2576Y481D01*
X2604Y481D02*
X2616Y481D01*
X2665Y481D02*
X2676Y481D01*
X2704Y481D02*
X2716Y481D01*
X2765Y481D02*
X2776Y481D01*
X2804Y481D02*
X2816Y481D01*
X1665Y480D02*
X1677Y480D01*
X1704Y480D02*
X1716Y480D01*
X1765Y480D02*
X1777Y480D01*
X1804Y480D02*
X1816Y480D01*
X1865Y480D02*
X1877Y480D01*
X1904Y480D02*
X1916Y480D01*
X1965Y480D02*
X1977Y480D01*
X2004Y480D02*
X2016Y480D01*
X2065Y480D02*
X2077Y480D01*
X2104Y480D02*
X2116Y480D01*
X2165Y480D02*
X2177Y480D01*
X2204Y480D02*
X2216Y480D01*
X2265Y480D02*
X2277Y480D01*
X2304Y480D02*
X2316Y480D01*
X2365Y480D02*
X2377Y480D01*
X2404Y480D02*
X2416Y480D01*
X2465Y480D02*
X2477Y480D01*
X2504Y480D02*
X2516Y480D01*
X2565Y480D02*
X2577Y480D01*
X2604Y480D02*
X2616Y480D01*
X2665Y480D02*
X2677Y480D01*
X2704Y480D02*
X2716Y480D01*
X2765Y480D02*
X2777Y480D01*
X2804Y480D02*
X2816Y480D01*
X1665Y479D02*
X1678Y479D01*
X1703Y479D02*
X1716Y479D01*
X1765Y479D02*
X1778Y479D01*
X1803Y479D02*
X1816Y479D01*
X1865Y479D02*
X1878Y479D01*
X1903Y479D02*
X1916Y479D01*
X1965Y479D02*
X1978Y479D01*
X2003Y479D02*
X2016Y479D01*
X2065Y479D02*
X2078Y479D01*
X2103Y479D02*
X2116Y479D01*
X2165Y479D02*
X2178Y479D01*
X2203Y479D02*
X2216Y479D01*
X2265Y479D02*
X2278Y479D01*
X2303Y479D02*
X2316Y479D01*
X2365Y479D02*
X2378Y479D01*
X2403Y479D02*
X2416Y479D01*
X2465Y479D02*
X2478Y479D01*
X2503Y479D02*
X2516Y479D01*
X2565Y479D02*
X2578Y479D01*
X2603Y479D02*
X2616Y479D01*
X2665Y479D02*
X2677Y479D01*
X2703Y479D02*
X2716Y479D01*
X2765Y479D02*
X2777Y479D01*
X2803Y479D02*
X2816Y479D01*
X1665Y478D02*
X1678Y478D01*
X1702Y478D02*
X1716Y478D01*
X1765Y478D02*
X1778Y478D01*
X1802Y478D02*
X1816Y478D01*
X1865Y478D02*
X1878Y478D01*
X1902Y478D02*
X1916Y478D01*
X1965Y478D02*
X1978Y478D01*
X2002Y478D02*
X2016Y478D01*
X2065Y478D02*
X2078Y478D01*
X2102Y478D02*
X2116Y478D01*
X2165Y478D02*
X2178Y478D01*
X2202Y478D02*
X2216Y478D01*
X2265Y478D02*
X2278Y478D01*
X2302Y478D02*
X2316Y478D01*
X2365Y478D02*
X2378Y478D01*
X2402Y478D02*
X2416Y478D01*
X2465Y478D02*
X2478Y478D01*
X2502Y478D02*
X2516Y478D01*
X2565Y478D02*
X2578Y478D01*
X2602Y478D02*
X2616Y478D01*
X2665Y478D02*
X2678Y478D01*
X2702Y478D02*
X2716Y478D01*
X2765Y478D02*
X2778Y478D01*
X2802Y478D02*
X2816Y478D01*
X1665Y477D02*
X1680Y477D01*
X1701Y477D02*
X1716Y477D01*
X1765Y477D02*
X1780Y477D01*
X1801Y477D02*
X1816Y477D01*
X1865Y477D02*
X1880Y477D01*
X1901Y477D02*
X1916Y477D01*
X1965Y477D02*
X1980Y477D01*
X2001Y477D02*
X2016Y477D01*
X2065Y477D02*
X2080Y477D01*
X2101Y477D02*
X2116Y477D01*
X2165Y477D02*
X2180Y477D01*
X2201Y477D02*
X2216Y477D01*
X2265Y477D02*
X2280Y477D01*
X2301Y477D02*
X2316Y477D01*
X2365Y477D02*
X2380Y477D01*
X2401Y477D02*
X2416Y477D01*
X2465Y477D02*
X2480Y477D01*
X2501Y477D02*
X2516Y477D01*
X2565Y477D02*
X2580Y477D01*
X2601Y477D02*
X2616Y477D01*
X2665Y477D02*
X2680Y477D01*
X2701Y477D02*
X2716Y477D01*
X2765Y477D02*
X2780Y477D01*
X2801Y477D02*
X2816Y477D01*
X1665Y476D02*
X1681Y476D01*
X1699Y476D02*
X1716Y476D01*
X1765Y476D02*
X1781Y476D01*
X1799Y476D02*
X1816Y476D01*
X1865Y476D02*
X1881Y476D01*
X1899Y476D02*
X1916Y476D01*
X1965Y476D02*
X1981Y476D01*
X1999Y476D02*
X2016Y476D01*
X2065Y476D02*
X2081Y476D01*
X2099Y476D02*
X2116Y476D01*
X2165Y476D02*
X2181Y476D01*
X2199Y476D02*
X2216Y476D01*
X2265Y476D02*
X2281Y476D01*
X2299Y476D02*
X2316Y476D01*
X2365Y476D02*
X2381Y476D01*
X2399Y476D02*
X2416Y476D01*
X2465Y476D02*
X2481Y476D01*
X2499Y476D02*
X2516Y476D01*
X2565Y476D02*
X2581Y476D01*
X2599Y476D02*
X2616Y476D01*
X2665Y476D02*
X2681Y476D01*
X2699Y476D02*
X2716Y476D01*
X2765Y476D02*
X2781Y476D01*
X2799Y476D02*
X2816Y476D01*
X1665Y475D02*
X1683Y475D01*
X1698Y475D02*
X1716Y475D01*
X1765Y475D02*
X1783Y475D01*
X1798Y475D02*
X1816Y475D01*
X1865Y475D02*
X1883Y475D01*
X1898Y475D02*
X1916Y475D01*
X1965Y475D02*
X1983Y475D01*
X1998Y475D02*
X2016Y475D01*
X2065Y475D02*
X2083Y475D01*
X2098Y475D02*
X2116Y475D01*
X2165Y475D02*
X2183Y475D01*
X2198Y475D02*
X2216Y475D01*
X2265Y475D02*
X2283Y475D01*
X2298Y475D02*
X2316Y475D01*
X2365Y475D02*
X2383Y475D01*
X2398Y475D02*
X2416Y475D01*
X2465Y475D02*
X2483Y475D01*
X2498Y475D02*
X2516Y475D01*
X2565Y475D02*
X2583Y475D01*
X2598Y475D02*
X2616Y475D01*
X2665Y475D02*
X2683Y475D01*
X2698Y475D02*
X2716Y475D01*
X2765Y475D02*
X2783Y475D01*
X2798Y475D02*
X2816Y475D01*
X1665Y474D02*
X1685Y474D01*
X1695Y474D02*
X1716Y474D01*
X1765Y474D02*
X1785Y474D01*
X1795Y474D02*
X1816Y474D01*
X1865Y474D02*
X1885Y474D01*
X1895Y474D02*
X1916Y474D01*
X1965Y474D02*
X1985Y474D01*
X1995Y474D02*
X2016Y474D01*
X2065Y474D02*
X2085Y474D01*
X2095Y474D02*
X2116Y474D01*
X2165Y474D02*
X2185Y474D01*
X2195Y474D02*
X2216Y474D01*
X2265Y474D02*
X2285Y474D01*
X2295Y474D02*
X2316Y474D01*
X2365Y474D02*
X2385Y474D01*
X2395Y474D02*
X2416Y474D01*
X2465Y474D02*
X2485Y474D01*
X2495Y474D02*
X2516Y474D01*
X2565Y474D02*
X2585Y474D01*
X2595Y474D02*
X2616Y474D01*
X2665Y474D02*
X2685Y474D01*
X2695Y474D02*
X2716Y474D01*
X2765Y474D02*
X2785Y474D01*
X2795Y474D02*
X2816Y474D01*
X1665Y473D02*
X1716Y473D01*
X1765Y473D02*
X1816Y473D01*
X1865Y473D02*
X1916Y473D01*
X1965Y473D02*
X2016Y473D01*
X2065Y473D02*
X2116Y473D01*
X2165Y473D02*
X2216Y473D01*
X2265Y473D02*
X2316Y473D01*
X2365Y473D02*
X2416Y473D01*
X2465Y473D02*
X2516Y473D01*
X2565Y473D02*
X2616Y473D01*
X2665Y473D02*
X2716Y473D01*
X2765Y473D02*
X2816Y473D01*
X1665Y472D02*
X1716Y472D01*
X1765Y472D02*
X1816Y472D01*
X1865Y472D02*
X1916Y472D01*
X1965Y472D02*
X2016Y472D01*
X2065Y472D02*
X2116Y472D01*
X2165Y472D02*
X2216Y472D01*
X2265Y472D02*
X2316Y472D01*
X2365Y472D02*
X2416Y472D01*
X2465Y472D02*
X2516Y472D01*
X2565Y472D02*
X2616Y472D01*
X2665Y472D02*
X2716Y472D01*
X2765Y472D02*
X2816Y472D01*
X1665Y471D02*
X1716Y471D01*
X1765Y471D02*
X1816Y471D01*
X1865Y471D02*
X1916Y471D01*
X1965Y471D02*
X2016Y471D01*
X2065Y471D02*
X2116Y471D01*
X2165Y471D02*
X2216Y471D01*
X2265Y471D02*
X2316Y471D01*
X2365Y471D02*
X2416Y471D01*
X2465Y471D02*
X2516Y471D01*
X2565Y471D02*
X2616Y471D01*
X2665Y471D02*
X2716Y471D01*
X2765Y471D02*
X2816Y471D01*
X1665Y470D02*
X1716Y470D01*
X1765Y470D02*
X1816Y470D01*
X1865Y470D02*
X1916Y470D01*
X1965Y470D02*
X2016Y470D01*
X2065Y470D02*
X2116Y470D01*
X2165Y470D02*
X2216Y470D01*
X2265Y470D02*
X2316Y470D01*
X2365Y470D02*
X2416Y470D01*
X2465Y470D02*
X2516Y470D01*
X2565Y470D02*
X2616Y470D01*
X2665Y470D02*
X2716Y470D01*
X2765Y470D02*
X2816Y470D01*
X1665Y469D02*
X1716Y469D01*
X1765Y469D02*
X1816Y469D01*
X1865Y469D02*
X1916Y469D01*
X1965Y469D02*
X2016Y469D01*
X2065Y469D02*
X2116Y469D01*
X2165Y469D02*
X2216Y469D01*
X2265Y469D02*
X2316Y469D01*
X2365Y469D02*
X2416Y469D01*
X2465Y469D02*
X2516Y469D01*
X2565Y469D02*
X2616Y469D01*
X2665Y469D02*
X2716Y469D01*
X2765Y469D02*
X2816Y469D01*
X1665Y468D02*
X1716Y468D01*
X1765Y468D02*
X1816Y468D01*
X1865Y468D02*
X1916Y468D01*
X1965Y468D02*
X2016Y468D01*
X2065Y468D02*
X2116Y468D01*
X2165Y468D02*
X2216Y468D01*
X2265Y468D02*
X2316Y468D01*
X2365Y468D02*
X2416Y468D01*
X2465Y468D02*
X2516Y468D01*
X2565Y468D02*
X2616Y468D01*
X2665Y468D02*
X2716Y468D01*
X2765Y468D02*
X2816Y468D01*
X1665Y467D02*
X1716Y467D01*
X1765Y467D02*
X1816Y467D01*
X1865Y467D02*
X1916Y467D01*
X1965Y467D02*
X2016Y467D01*
X2065Y467D02*
X2116Y467D01*
X2165Y467D02*
X2216Y467D01*
X2265Y467D02*
X2316Y467D01*
X2365Y467D02*
X2416Y467D01*
X2465Y467D02*
X2516Y467D01*
X2565Y467D02*
X2616Y467D01*
X2665Y467D02*
X2716Y467D01*
X2765Y467D02*
X2816Y467D01*
X1665Y466D02*
X1716Y466D01*
X1765Y466D02*
X1816Y466D01*
X1865Y466D02*
X1916Y466D01*
X1965Y466D02*
X2016Y466D01*
X2065Y466D02*
X2116Y466D01*
X2165Y466D02*
X2216Y466D01*
X2265Y466D02*
X2316Y466D01*
X2365Y466D02*
X2416Y466D01*
X2465Y466D02*
X2516Y466D01*
X2565Y466D02*
X2616Y466D01*
X2665Y466D02*
X2716Y466D01*
X2765Y466D02*
X2816Y466D01*
X1665Y465D02*
X1716Y465D01*
X1765Y465D02*
X1816Y465D01*
X1865Y465D02*
X1916Y465D01*
X1965Y465D02*
X2016Y465D01*
X2065Y465D02*
X2116Y465D01*
X2165Y465D02*
X2216Y465D01*
X2265Y465D02*
X2316Y465D01*
X2365Y465D02*
X2416Y465D01*
X2465Y465D02*
X2516Y465D01*
X2565Y465D02*
X2616Y465D01*
X2665Y465D02*
X2716Y465D01*
X2765Y465D02*
X2816Y465D01*
X1665Y464D02*
X1716Y464D01*
X1765Y464D02*
X1816Y464D01*
X1865Y464D02*
X1916Y464D01*
X1965Y464D02*
X2016Y464D01*
X2065Y464D02*
X2116Y464D01*
X2165Y464D02*
X2216Y464D01*
X2265Y464D02*
X2316Y464D01*
X2365Y464D02*
X2416Y464D01*
X2465Y464D02*
X2516Y464D01*
X2565Y464D02*
X2616Y464D01*
X2665Y464D02*
X2716Y464D01*
X2765Y464D02*
X2816Y464D01*
X1665Y463D02*
X1716Y463D01*
X1765Y463D02*
X1816Y463D01*
X1865Y463D02*
X1916Y463D01*
X1965Y463D02*
X2016Y463D01*
X2065Y463D02*
X2116Y463D01*
X2165Y463D02*
X2216Y463D01*
X2265Y463D02*
X2316Y463D01*
X2365Y463D02*
X2416Y463D01*
X2465Y463D02*
X2516Y463D01*
X2565Y463D02*
X2616Y463D01*
X2665Y463D02*
X2716Y463D01*
X2765Y463D02*
X2816Y463D01*
X1665Y462D02*
X1716Y462D01*
X1765Y462D02*
X1816Y462D01*
X1865Y462D02*
X1916Y462D01*
X1965Y462D02*
X2016Y462D01*
X2065Y462D02*
X2116Y462D01*
X2165Y462D02*
X2216Y462D01*
X2265Y462D02*
X2316Y462D01*
X2365Y462D02*
X2416Y462D01*
X2465Y462D02*
X2516Y462D01*
X2565Y462D02*
X2616Y462D01*
X2665Y462D02*
X2716Y462D01*
X2765Y462D02*
X2816Y462D01*
X1665Y461D02*
X1716Y461D01*
X1765Y461D02*
X1816Y461D01*
X1865Y461D02*
X1916Y461D01*
X1965Y461D02*
X2016Y461D01*
X2065Y461D02*
X2116Y461D01*
X2165Y461D02*
X2216Y461D01*
X2265Y461D02*
X2316Y461D01*
X2365Y461D02*
X2416Y461D01*
X2465Y461D02*
X2516Y461D01*
X2565Y461D02*
X2616Y461D01*
X2665Y461D02*
X2716Y461D01*
X2765Y461D02*
X2816Y461D01*
X1665Y460D02*
X1715Y460D01*
X1765Y460D02*
X1815Y460D01*
X1865Y460D02*
X1915Y460D01*
X1965Y460D02*
X2015Y460D01*
X2065Y460D02*
X2115Y460D01*
X2165Y460D02*
X2215Y460D01*
X2265Y460D02*
X2315Y460D01*
X2365Y460D02*
X2415Y460D01*
X2465Y460D02*
X2515Y460D01*
X2565Y460D02*
X2615Y460D01*
X2665Y460D02*
X2715Y460D01*
X2765Y460D02*
X2815Y460D01*
X1665Y459D02*
X1715Y459D01*
X1765Y459D02*
X1815Y459D01*
X1865Y459D02*
X1915Y459D01*
X1965Y459D02*
X2015Y459D01*
X2065Y459D02*
X2115Y459D01*
X2165Y459D02*
X2215Y459D01*
X2265Y459D02*
X2315Y459D01*
X2365Y459D02*
X2415Y459D01*
X2465Y459D02*
X2515Y459D01*
X2565Y459D02*
X2615Y459D01*
X2665Y459D02*
X2715Y459D01*
X2765Y459D02*
X2815Y459D01*
X1665Y458D02*
X1715Y458D01*
X1765Y458D02*
X1815Y458D01*
X1865Y458D02*
X1915Y458D01*
X1965Y458D02*
X2015Y458D01*
X2065Y458D02*
X2115Y458D01*
X2165Y458D02*
X2215Y458D01*
X2265Y458D02*
X2315Y458D01*
X2365Y458D02*
X2415Y458D01*
X2465Y458D02*
X2515Y458D01*
X2565Y458D02*
X2615Y458D01*
X2665Y458D02*
X2715Y458D01*
X2765Y458D02*
X2815Y458D01*
X1666Y457D02*
X1715Y457D01*
X1765Y457D02*
X1815Y457D01*
X1865Y457D02*
X1915Y457D01*
X1965Y457D02*
X2015Y457D01*
X2065Y457D02*
X2115Y457D01*
X2165Y457D02*
X2215Y457D01*
X2265Y457D02*
X2315Y457D01*
X2365Y457D02*
X2415Y457D01*
X2465Y457D02*
X2515Y457D01*
X2565Y457D02*
X2615Y457D01*
X2665Y457D02*
X2715Y457D01*
X2765Y457D02*
X2815Y457D01*
X1666Y456D02*
X1715Y456D01*
X1766Y456D02*
X1815Y456D01*
X1866Y456D02*
X1915Y456D01*
X1966Y456D02*
X2015Y456D01*
X2066Y456D02*
X2115Y456D01*
X2166Y456D02*
X2215Y456D01*
X2266Y456D02*
X2315Y456D01*
X2366Y456D02*
X2415Y456D01*
X2466Y456D02*
X2515Y456D01*
X2566Y456D02*
X2615Y456D01*
X2666Y456D02*
X2715Y456D01*
X2766Y456D02*
X2815Y456D01*
X1666Y455D02*
X1714Y455D01*
X1766Y455D02*
X1814Y455D01*
X1866Y455D02*
X1914Y455D01*
X1966Y455D02*
X2014Y455D01*
X2066Y455D02*
X2114Y455D01*
X2166Y455D02*
X2214Y455D01*
X2266Y455D02*
X2314Y455D01*
X2366Y455D02*
X2414Y455D01*
X2466Y455D02*
X2514Y455D01*
X2566Y455D02*
X2614Y455D01*
X2666Y455D02*
X2714Y455D01*
X2766Y455D02*
X2814Y455D01*
X1666Y454D02*
X1714Y454D01*
X1766Y454D02*
X1814Y454D01*
X1866Y454D02*
X1914Y454D01*
X1966Y454D02*
X2014Y454D01*
X2066Y454D02*
X2114Y454D01*
X2166Y454D02*
X2214Y454D01*
X2266Y454D02*
X2314Y454D01*
X2366Y454D02*
X2414Y454D01*
X2466Y454D02*
X2514Y454D01*
X2566Y454D02*
X2614Y454D01*
X2666Y454D02*
X2714Y454D01*
X2766Y454D02*
X2814Y454D01*
X1667Y453D02*
X1714Y453D01*
X1767Y453D02*
X1814Y453D01*
X1867Y453D02*
X1914Y453D01*
X1967Y453D02*
X2014Y453D01*
X2067Y453D02*
X2114Y453D01*
X2167Y453D02*
X2214Y453D01*
X2267Y453D02*
X2313Y453D01*
X2367Y453D02*
X2413Y453D01*
X2467Y453D02*
X2513Y453D01*
X2567Y453D02*
X2613Y453D01*
X2667Y453D02*
X2713Y453D01*
X2767Y453D02*
X2813Y453D01*
X1667Y452D02*
X1713Y452D01*
X1767Y452D02*
X1813Y452D01*
X1867Y452D02*
X1913Y452D01*
X1967Y452D02*
X2013Y452D01*
X2067Y452D02*
X2113Y452D01*
X2167Y452D02*
X2213Y452D01*
X2267Y452D02*
X2313Y452D01*
X2367Y452D02*
X2413Y452D01*
X2467Y452D02*
X2513Y452D01*
X2567Y452D02*
X2613Y452D01*
X2667Y452D02*
X2713Y452D01*
X2767Y452D02*
X2813Y452D01*
X1668Y451D02*
X1712Y451D01*
X1768Y451D02*
X1812Y451D01*
X1868Y451D02*
X1912Y451D01*
X1968Y451D02*
X2012Y451D01*
X2068Y451D02*
X2112Y451D01*
X2168Y451D02*
X2212Y451D01*
X2268Y451D02*
X2312Y451D01*
X2368Y451D02*
X2412Y451D01*
X2468Y451D02*
X2512Y451D01*
X2568Y451D02*
X2612Y451D01*
X2668Y451D02*
X2712Y451D01*
X2768Y451D02*
X2812Y451D01*
X1668Y450D02*
X1712Y450D01*
X1768Y450D02*
X1812Y450D01*
X1868Y450D02*
X1912Y450D01*
X1968Y450D02*
X2012Y450D01*
X2068Y450D02*
X2112Y450D01*
X2168Y450D02*
X2212Y450D01*
X2268Y450D02*
X2312Y450D01*
X2368Y450D02*
X2412Y450D01*
X2468Y450D02*
X2512Y450D01*
X2568Y450D02*
X2612Y450D01*
X2668Y450D02*
X2712Y450D01*
X2768Y450D02*
X2812Y450D01*
X1669Y449D02*
X1711Y449D01*
X1769Y449D02*
X1811Y449D01*
X1869Y449D02*
X1911Y449D01*
X1969Y449D02*
X2011Y449D01*
X2069Y449D02*
X2111Y449D01*
X2169Y449D02*
X2211Y449D01*
X2269Y449D02*
X2311Y449D01*
X2369Y449D02*
X2411Y449D01*
X2469Y449D02*
X2511Y449D01*
X2569Y449D02*
X2611Y449D01*
X2669Y449D02*
X2711Y449D01*
X2769Y449D02*
X2811Y449D01*
X1670Y448D02*
X1711Y448D01*
X1770Y448D02*
X1811Y448D01*
X1870Y448D02*
X1911Y448D01*
X1970Y448D02*
X2011Y448D01*
X2070Y448D02*
X2111Y448D01*
X2170Y448D02*
X2211Y448D01*
X2270Y448D02*
X2311Y448D01*
X2370Y448D02*
X2411Y448D01*
X2470Y448D02*
X2511Y448D01*
X2570Y448D02*
X2611Y448D01*
X2670Y448D02*
X2711Y448D01*
X2770Y448D02*
X2811Y448D01*
X1671Y447D02*
X1710Y447D01*
X1771Y447D02*
X1810Y447D01*
X1871Y447D02*
X1910Y447D01*
X1971Y447D02*
X2010Y447D01*
X2071Y447D02*
X2110Y447D01*
X2171Y447D02*
X2210Y447D01*
X2271Y447D02*
X2310Y447D01*
X2371Y447D02*
X2410Y447D01*
X2471Y447D02*
X2510Y447D01*
X2571Y447D02*
X2610Y447D01*
X2671Y447D02*
X2710Y447D01*
X2771Y447D02*
X2810Y447D01*
X1671Y446D02*
X1709Y446D01*
X1771Y446D02*
X1809Y446D01*
X1871Y446D02*
X1909Y446D01*
X1971Y446D02*
X2009Y446D01*
X2071Y446D02*
X2109Y446D01*
X2171Y446D02*
X2209Y446D01*
X2271Y446D02*
X2309Y446D01*
X2371Y446D02*
X2409Y446D01*
X2471Y446D02*
X2509Y446D01*
X2571Y446D02*
X2609Y446D01*
X2671Y446D02*
X2709Y446D01*
X2771Y446D02*
X2809Y446D01*
X1672Y445D02*
X1708Y445D01*
X1772Y445D02*
X1808Y445D01*
X1872Y445D02*
X1908Y445D01*
X1972Y445D02*
X2008Y445D01*
X2072Y445D02*
X2108Y445D01*
X2172Y445D02*
X2208Y445D01*
X2272Y445D02*
X2308Y445D01*
X2372Y445D02*
X2408Y445D01*
X2472Y445D02*
X2508Y445D01*
X2572Y445D02*
X2608Y445D01*
X2672Y445D02*
X2708Y445D01*
X2772Y445D02*
X2808Y445D01*
X1673Y444D02*
X1707Y444D01*
X1773Y444D02*
X1807Y444D01*
X1873Y444D02*
X1907Y444D01*
X1973Y444D02*
X2007Y444D01*
X2073Y444D02*
X2107Y444D01*
X2173Y444D02*
X2207Y444D01*
X2273Y444D02*
X2307Y444D01*
X2373Y444D02*
X2407Y444D01*
X2473Y444D02*
X2507Y444D01*
X2573Y444D02*
X2607Y444D01*
X2673Y444D02*
X2707Y444D01*
X2773Y444D02*
X2807Y444D01*
X1675Y443D02*
X1706Y443D01*
X1775Y443D02*
X1806Y443D01*
X1875Y443D02*
X1906Y443D01*
X1975Y443D02*
X2006Y443D01*
X2075Y443D02*
X2106Y443D01*
X2175Y443D02*
X2206Y443D01*
X2275Y443D02*
X2306Y443D01*
X2375Y443D02*
X2406Y443D01*
X2475Y443D02*
X2506Y443D01*
X2575Y443D02*
X2606Y443D01*
X2675Y443D02*
X2706Y443D01*
X2775Y443D02*
X2806Y443D01*
X1676Y442D02*
X1704Y442D01*
X1776Y442D02*
X1804Y442D01*
X1876Y442D02*
X1904Y442D01*
X1976Y442D02*
X2004Y442D01*
X2076Y442D02*
X2104Y442D01*
X2176Y442D02*
X2204Y442D01*
X2276Y442D02*
X2304Y442D01*
X2376Y442D02*
X2404Y442D01*
X2476Y442D02*
X2504Y442D01*
X2576Y442D02*
X2604Y442D01*
X2676Y442D02*
X2704Y442D01*
X2776Y442D02*
X2804Y442D01*
X1678Y441D02*
X1703Y441D01*
X1778Y441D02*
X1803Y441D01*
X1878Y441D02*
X1903Y441D01*
X1978Y441D02*
X2003Y441D01*
X2078Y441D02*
X2103Y441D01*
X2178Y441D02*
X2203Y441D01*
X2278Y441D02*
X2303Y441D01*
X2378Y441D02*
X2403Y441D01*
X2478Y441D02*
X2503Y441D01*
X2578Y441D02*
X2603Y441D01*
X2678Y441D02*
X2703Y441D01*
X2778Y441D02*
X2803Y441D01*
X1679Y440D02*
X1701Y440D01*
X1779Y440D02*
X1801Y440D01*
X1879Y440D02*
X1901Y440D01*
X1979Y440D02*
X2001Y440D01*
X2079Y440D02*
X2101Y440D01*
X2179Y440D02*
X2201Y440D01*
X2279Y440D02*
X2301Y440D01*
X2379Y440D02*
X2401Y440D01*
X2479Y440D02*
X2501Y440D01*
X2579Y440D02*
X2601Y440D01*
X2679Y440D02*
X2701Y440D01*
X2779Y440D02*
X2801Y440D01*
X1682Y439D02*
X1699Y439D01*
X1782Y439D02*
X1799Y439D01*
X1882Y439D02*
X1899Y439D01*
X1982Y439D02*
X1999Y439D01*
X2082Y439D02*
X2099Y439D01*
X2182Y439D02*
X2199Y439D01*
X2282Y439D02*
X2299Y439D01*
X2382Y439D02*
X2399Y439D01*
X2482Y439D02*
X2499Y439D01*
X2582Y439D02*
X2599Y439D01*
X2682Y439D02*
X2699Y439D01*
X2782Y439D02*
X2799Y439D01*
X1685Y438D02*
X1695Y438D01*
X1785Y438D02*
X1795Y438D01*
X1885Y438D02*
X1895Y438D01*
X1985Y438D02*
X1995Y438D01*
X2085Y438D02*
X2095Y438D01*
X2185Y438D02*
X2195Y438D01*
X2285Y438D02*
X2295Y438D01*
X2385Y438D02*
X2395Y438D01*
X2485Y438D02*
X2495Y438D01*
X2585Y438D02*
X2595Y438D01*
X2685Y438D02*
X2695Y438D01*
X2785Y438D02*
X2795Y438D01*
X786Y403D02*
X832Y403D01*
X867Y403D02*
X913Y403D01*
X944Y403D02*
X990Y403D01*
X1022Y403D02*
X1069Y403D01*
X1101Y403D02*
X1147Y403D01*
X1180Y403D02*
X1226Y403D01*
X1259Y403D02*
X1305Y403D01*
X1337Y403D02*
X1384Y403D01*
X786Y402D02*
X832Y402D01*
X867Y402D02*
X913Y402D01*
X944Y402D02*
X990Y402D01*
X1022Y402D02*
X1069Y402D01*
X1101Y402D02*
X1147Y402D01*
X1180Y402D02*
X1226Y402D01*
X1259Y402D02*
X1305Y402D01*
X1337Y402D02*
X1384Y402D01*
X786Y401D02*
X832Y401D01*
X867Y401D02*
X913Y401D01*
X944Y401D02*
X990Y401D01*
X1022Y401D02*
X1069Y401D01*
X1101Y401D02*
X1147Y401D01*
X1180Y401D02*
X1226Y401D01*
X1259Y401D02*
X1305Y401D01*
X1337Y401D02*
X1384Y401D01*
X786Y400D02*
X832Y400D01*
X867Y400D02*
X913Y400D01*
X944Y400D02*
X990Y400D01*
X1022Y400D02*
X1069Y400D01*
X1101Y400D02*
X1147Y400D01*
X1180Y400D02*
X1226Y400D01*
X1259Y400D02*
X1305Y400D01*
X1337Y400D02*
X1384Y400D01*
X786Y399D02*
X832Y399D01*
X867Y399D02*
X913Y399D01*
X944Y399D02*
X990Y399D01*
X1022Y399D02*
X1069Y399D01*
X1101Y399D02*
X1147Y399D01*
X1180Y399D02*
X1226Y399D01*
X1259Y399D02*
X1305Y399D01*
X1337Y399D02*
X1384Y399D01*
X786Y398D02*
X832Y398D01*
X867Y398D02*
X913Y398D01*
X944Y398D02*
X990Y398D01*
X1022Y398D02*
X1069Y398D01*
X1101Y398D02*
X1147Y398D01*
X1180Y398D02*
X1226Y398D01*
X1259Y398D02*
X1305Y398D01*
X1337Y398D02*
X1384Y398D01*
X786Y397D02*
X832Y397D01*
X867Y397D02*
X913Y397D01*
X944Y397D02*
X990Y397D01*
X1022Y397D02*
X1069Y397D01*
X1101Y397D02*
X1147Y397D01*
X1180Y397D02*
X1226Y397D01*
X1259Y397D02*
X1305Y397D01*
X1337Y397D02*
X1384Y397D01*
X786Y396D02*
X832Y396D01*
X867Y396D02*
X913Y396D01*
X944Y396D02*
X990Y396D01*
X1022Y396D02*
X1069Y396D01*
X1101Y396D02*
X1147Y396D01*
X1180Y396D02*
X1226Y396D01*
X1259Y396D02*
X1305Y396D01*
X1337Y396D02*
X1384Y396D01*
X786Y395D02*
X806Y395D01*
X813Y395D02*
X832Y395D01*
X867Y395D02*
X887Y395D01*
X894Y395D02*
X913Y395D01*
X944Y395D02*
X963Y395D01*
X970Y395D02*
X990Y395D01*
X1022Y395D02*
X1042Y395D01*
X1049Y395D02*
X1069Y395D01*
X1101Y395D02*
X1121Y395D01*
X1128Y395D02*
X1147Y395D01*
X1180Y395D02*
X1200Y395D01*
X1206Y395D02*
X1226Y395D01*
X1259Y395D02*
X1278Y395D01*
X1285Y395D02*
X1305Y395D01*
X1337Y395D02*
X1357Y395D01*
X1364Y395D02*
X1384Y395D01*
X786Y394D02*
X803Y394D01*
X815Y394D02*
X832Y394D01*
X867Y394D02*
X884Y394D01*
X896Y394D02*
X913Y394D01*
X944Y394D02*
X961Y394D01*
X973Y394D02*
X990Y394D01*
X1022Y394D02*
X1039Y394D01*
X1052Y394D02*
X1069Y394D01*
X1101Y394D02*
X1118Y394D01*
X1130Y394D02*
X1147Y394D01*
X1180Y394D02*
X1197Y394D01*
X1209Y394D02*
X1226Y394D01*
X1259Y394D02*
X1276Y394D01*
X1288Y394D02*
X1305Y394D01*
X1337Y394D02*
X1354Y394D01*
X1366Y394D02*
X1384Y394D01*
X786Y393D02*
X802Y393D01*
X817Y393D02*
X832Y393D01*
X867Y393D02*
X883Y393D01*
X898Y393D02*
X913Y393D01*
X944Y393D02*
X959Y393D01*
X974Y393D02*
X990Y393D01*
X1022Y393D02*
X1038Y393D01*
X1053Y393D02*
X1069Y393D01*
X1101Y393D02*
X1117Y393D01*
X1132Y393D02*
X1147Y393D01*
X1180Y393D02*
X1195Y393D01*
X1211Y393D02*
X1226Y393D01*
X1259Y393D02*
X1274Y393D01*
X1289Y393D02*
X1305Y393D01*
X1337Y393D02*
X1353Y393D01*
X1368Y393D02*
X1384Y393D01*
X786Y392D02*
X800Y392D01*
X818Y392D02*
X832Y392D01*
X867Y392D02*
X881Y392D01*
X899Y392D02*
X913Y392D01*
X944Y392D02*
X958Y392D01*
X976Y392D02*
X990Y392D01*
X1022Y392D02*
X1037Y392D01*
X1054Y392D02*
X1069Y392D01*
X1101Y392D02*
X1115Y392D01*
X1133Y392D02*
X1147Y392D01*
X1180Y392D02*
X1194Y392D01*
X1212Y392D02*
X1226Y392D01*
X1259Y392D02*
X1273Y392D01*
X1291Y392D02*
X1305Y392D01*
X1337Y392D02*
X1352Y392D01*
X1369Y392D02*
X1384Y392D01*
X786Y391D02*
X800Y391D01*
X819Y391D02*
X832Y391D01*
X867Y391D02*
X880Y391D01*
X900Y391D02*
X913Y391D01*
X944Y391D02*
X957Y391D01*
X977Y391D02*
X990Y391D01*
X1022Y391D02*
X1036Y391D01*
X1055Y391D02*
X1069Y391D01*
X1101Y391D02*
X1114Y391D01*
X1134Y391D02*
X1147Y391D01*
X1180Y391D02*
X1193Y391D01*
X1213Y391D02*
X1226Y391D01*
X1259Y391D02*
X1272Y391D01*
X1291Y391D02*
X1305Y391D01*
X1337Y391D02*
X1351Y391D01*
X1370Y391D02*
X1384Y391D01*
X786Y390D02*
X799Y390D01*
X820Y390D02*
X832Y390D01*
X867Y390D02*
X880Y390D01*
X901Y390D02*
X913Y390D01*
X944Y390D02*
X956Y390D01*
X977Y390D02*
X990Y390D01*
X1022Y390D02*
X1035Y390D01*
X1056Y390D02*
X1069Y390D01*
X1101Y390D02*
X1114Y390D01*
X1135Y390D02*
X1147Y390D01*
X1180Y390D02*
X1192Y390D01*
X1214Y390D02*
X1226Y390D01*
X1259Y390D02*
X1271Y390D01*
X1292Y390D02*
X1305Y390D01*
X1337Y390D02*
X1350Y390D01*
X1371Y390D02*
X1384Y390D01*
X786Y389D02*
X798Y389D01*
X820Y389D02*
X832Y389D01*
X867Y389D02*
X879Y389D01*
X901Y389D02*
X913Y389D01*
X944Y389D02*
X956Y389D01*
X978Y389D02*
X990Y389D01*
X1022Y389D02*
X1034Y389D01*
X1057Y389D02*
X1069Y389D01*
X1101Y389D02*
X1113Y389D01*
X1135Y389D02*
X1147Y389D01*
X1180Y389D02*
X1192Y389D01*
X1214Y389D02*
X1226Y389D01*
X1259Y389D02*
X1271Y389D01*
X1293Y389D02*
X1305Y389D01*
X1337Y389D02*
X1349Y389D01*
X1372Y389D02*
X1384Y389D01*
X786Y388D02*
X798Y388D01*
X821Y388D02*
X832Y388D01*
X867Y388D02*
X879Y388D01*
X902Y388D02*
X913Y388D01*
X944Y388D02*
X955Y388D01*
X978Y388D02*
X990Y388D01*
X1022Y388D02*
X1034Y388D01*
X1057Y388D02*
X1069Y388D01*
X1101Y388D02*
X1113Y388D01*
X1136Y388D02*
X1147Y388D01*
X1180Y388D02*
X1191Y388D01*
X1215Y388D02*
X1226Y388D01*
X1259Y388D02*
X1270Y388D01*
X1293Y388D02*
X1305Y388D01*
X1337Y388D02*
X1349Y388D01*
X1372Y388D02*
X1384Y388D01*
X786Y387D02*
X797Y387D01*
X821Y387D02*
X832Y387D01*
X867Y387D02*
X878Y387D01*
X902Y387D02*
X913Y387D01*
X944Y387D02*
X955Y387D01*
X979Y387D02*
X990Y387D01*
X1022Y387D02*
X1034Y387D01*
X1058Y387D02*
X1069Y387D01*
X1101Y387D02*
X1112Y387D01*
X1136Y387D02*
X1147Y387D01*
X1180Y387D02*
X1191Y387D01*
X1215Y387D02*
X1226Y387D01*
X1259Y387D02*
X1270Y387D01*
X1294Y387D02*
X1305Y387D01*
X1337Y387D02*
X1348Y387D01*
X1372Y387D02*
X1384Y387D01*
X786Y386D02*
X797Y386D01*
X822Y386D02*
X832Y386D01*
X867Y386D02*
X878Y386D01*
X903Y386D02*
X913Y386D01*
X944Y386D02*
X954Y386D01*
X979Y386D02*
X990Y386D01*
X1022Y386D02*
X1033Y386D01*
X1058Y386D02*
X1069Y386D01*
X1101Y386D02*
X1112Y386D01*
X1137Y386D02*
X1147Y386D01*
X1180Y386D02*
X1191Y386D01*
X1215Y386D02*
X1226Y386D01*
X1259Y386D02*
X1269Y386D01*
X1294Y386D02*
X1305Y386D01*
X1337Y386D02*
X1348Y386D01*
X1373Y386D02*
X1384Y386D01*
X786Y385D02*
X797Y385D01*
X822Y385D02*
X832Y385D01*
X867Y385D02*
X878Y385D01*
X903Y385D02*
X913Y385D01*
X944Y385D02*
X954Y385D01*
X979Y385D02*
X990Y385D01*
X1022Y385D02*
X1033Y385D01*
X1058Y385D02*
X1069Y385D01*
X1101Y385D02*
X1112Y385D01*
X1137Y385D02*
X1147Y385D01*
X1180Y385D02*
X1190Y385D01*
X1215Y385D02*
X1226Y385D01*
X1259Y385D02*
X1269Y385D01*
X1294Y385D02*
X1305Y385D01*
X1337Y385D02*
X1348Y385D01*
X1373Y385D02*
X1384Y385D01*
X786Y384D02*
X797Y384D01*
X822Y384D02*
X832Y384D01*
X867Y384D02*
X878Y384D01*
X903Y384D02*
X913Y384D01*
X944Y384D02*
X954Y384D01*
X979Y384D02*
X990Y384D01*
X1022Y384D02*
X1033Y384D01*
X1058Y384D02*
X1069Y384D01*
X1101Y384D02*
X1112Y384D01*
X1137Y384D02*
X1147Y384D01*
X1180Y384D02*
X1190Y384D01*
X1216Y384D02*
X1226Y384D01*
X1259Y384D02*
X1269Y384D01*
X1294Y384D02*
X1305Y384D01*
X1337Y384D02*
X1348Y384D01*
X1373Y384D02*
X1384Y384D01*
X786Y383D02*
X797Y383D01*
X822Y383D02*
X832Y383D01*
X867Y383D02*
X878Y383D01*
X903Y383D02*
X913Y383D01*
X944Y383D02*
X954Y383D01*
X979Y383D02*
X990Y383D01*
X1022Y383D02*
X1033Y383D01*
X1058Y383D02*
X1069Y383D01*
X1101Y383D02*
X1112Y383D01*
X1137Y383D02*
X1147Y383D01*
X1180Y383D02*
X1190Y383D01*
X1216Y383D02*
X1226Y383D01*
X1259Y383D02*
X1269Y383D01*
X1294Y383D02*
X1305Y383D01*
X1337Y383D02*
X1348Y383D01*
X1373Y383D02*
X1384Y383D01*
X786Y382D02*
X797Y382D01*
X822Y382D02*
X832Y382D01*
X867Y382D02*
X878Y382D01*
X903Y382D02*
X913Y382D01*
X944Y382D02*
X954Y382D01*
X979Y382D02*
X990Y382D01*
X1022Y382D02*
X1033Y382D01*
X1058Y382D02*
X1069Y382D01*
X1101Y382D02*
X1112Y382D01*
X1137Y382D02*
X1147Y382D01*
X1180Y382D02*
X1190Y382D01*
X1215Y382D02*
X1226Y382D01*
X1259Y382D02*
X1269Y382D01*
X1294Y382D02*
X1305Y382D01*
X1337Y382D02*
X1348Y382D01*
X1373Y382D02*
X1384Y382D01*
X786Y381D02*
X797Y381D01*
X822Y381D02*
X832Y381D01*
X867Y381D02*
X878Y381D01*
X903Y381D02*
X913Y381D01*
X944Y381D02*
X954Y381D01*
X979Y381D02*
X990Y381D01*
X1022Y381D02*
X1033Y381D01*
X1058Y381D02*
X1069Y381D01*
X1101Y381D02*
X1112Y381D01*
X1137Y381D02*
X1147Y381D01*
X1180Y381D02*
X1191Y381D01*
X1215Y381D02*
X1226Y381D01*
X1259Y381D02*
X1269Y381D01*
X1294Y381D02*
X1305Y381D01*
X1337Y381D02*
X1348Y381D01*
X1373Y381D02*
X1384Y381D01*
X786Y380D02*
X797Y380D01*
X821Y380D02*
X832Y380D01*
X867Y380D02*
X878Y380D01*
X902Y380D02*
X913Y380D01*
X944Y380D02*
X955Y380D01*
X979Y380D02*
X990Y380D01*
X1022Y380D02*
X1033Y380D01*
X1058Y380D02*
X1069Y380D01*
X1101Y380D02*
X1112Y380D01*
X1136Y380D02*
X1147Y380D01*
X1180Y380D02*
X1191Y380D01*
X1215Y380D02*
X1226Y380D01*
X1259Y380D02*
X1270Y380D01*
X1294Y380D02*
X1305Y380D01*
X1337Y380D02*
X1348Y380D01*
X1373Y380D02*
X1384Y380D01*
X786Y379D02*
X797Y379D01*
X821Y379D02*
X832Y379D01*
X867Y379D02*
X878Y379D01*
X902Y379D02*
X913Y379D01*
X944Y379D02*
X955Y379D01*
X979Y379D02*
X990Y379D01*
X1022Y379D02*
X1034Y379D01*
X1057Y379D02*
X1069Y379D01*
X1101Y379D02*
X1112Y379D01*
X1136Y379D02*
X1147Y379D01*
X1180Y379D02*
X1191Y379D01*
X1215Y379D02*
X1226Y379D01*
X1259Y379D02*
X1270Y379D01*
X1294Y379D02*
X1305Y379D01*
X1337Y379D02*
X1349Y379D01*
X1372Y379D02*
X1384Y379D01*
X786Y378D02*
X798Y378D01*
X821Y378D02*
X832Y378D01*
X867Y378D02*
X879Y378D01*
X902Y378D02*
X913Y378D01*
X944Y378D02*
X955Y378D01*
X978Y378D02*
X990Y378D01*
X1022Y378D02*
X1034Y378D01*
X1057Y378D02*
X1069Y378D01*
X1101Y378D02*
X1113Y378D01*
X1136Y378D02*
X1147Y378D01*
X1180Y378D02*
X1192Y378D01*
X1214Y378D02*
X1226Y378D01*
X1259Y378D02*
X1270Y378D01*
X1293Y378D02*
X1305Y378D01*
X1337Y378D02*
X1349Y378D01*
X1372Y378D02*
X1384Y378D01*
X786Y377D02*
X798Y377D01*
X820Y377D02*
X832Y377D01*
X867Y377D02*
X879Y377D01*
X901Y377D02*
X913Y377D01*
X944Y377D02*
X956Y377D01*
X978Y377D02*
X990Y377D01*
X1022Y377D02*
X1035Y377D01*
X1056Y377D02*
X1069Y377D01*
X1101Y377D02*
X1113Y377D01*
X1135Y377D02*
X1147Y377D01*
X1180Y377D02*
X1192Y377D01*
X1214Y377D02*
X1226Y377D01*
X1259Y377D02*
X1271Y377D01*
X1293Y377D02*
X1305Y377D01*
X1337Y377D02*
X1350Y377D01*
X1371Y377D02*
X1384Y377D01*
X786Y376D02*
X799Y376D01*
X819Y376D02*
X832Y376D01*
X867Y376D02*
X880Y376D01*
X900Y376D02*
X913Y376D01*
X944Y376D02*
X957Y376D01*
X977Y376D02*
X990Y376D01*
X1022Y376D02*
X1035Y376D01*
X1056Y376D02*
X1069Y376D01*
X1101Y376D02*
X1114Y376D01*
X1134Y376D02*
X1147Y376D01*
X1180Y376D02*
X1193Y376D01*
X1213Y376D02*
X1226Y376D01*
X1259Y376D02*
X1272Y376D01*
X1292Y376D02*
X1305Y376D01*
X1337Y376D02*
X1350Y376D01*
X1371Y376D02*
X1384Y376D01*
X786Y375D02*
X800Y375D01*
X819Y375D02*
X832Y375D01*
X867Y375D02*
X881Y375D01*
X900Y375D02*
X913Y375D01*
X944Y375D02*
X957Y375D01*
X976Y375D02*
X990Y375D01*
X1022Y375D02*
X1036Y375D01*
X1055Y375D02*
X1069Y375D01*
X1101Y375D02*
X1115Y375D01*
X1134Y375D02*
X1147Y375D01*
X1180Y375D02*
X1194Y375D01*
X1212Y375D02*
X1226Y375D01*
X1259Y375D02*
X1272Y375D01*
X1291Y375D02*
X1305Y375D01*
X1337Y375D02*
X1351Y375D01*
X1370Y375D02*
X1384Y375D01*
X786Y374D02*
X801Y374D01*
X818Y374D02*
X832Y374D01*
X867Y374D02*
X882Y374D01*
X899Y374D02*
X913Y374D01*
X944Y374D02*
X958Y374D01*
X975Y374D02*
X990Y374D01*
X1022Y374D02*
X1037Y374D01*
X1054Y374D02*
X1069Y374D01*
X1101Y374D02*
X1116Y374D01*
X1133Y374D02*
X1147Y374D01*
X1180Y374D02*
X1195Y374D01*
X1211Y374D02*
X1226Y374D01*
X1259Y374D02*
X1273Y374D01*
X1290Y374D02*
X1305Y374D01*
X1337Y374D02*
X1352Y374D01*
X1369Y374D02*
X1384Y374D01*
X786Y373D02*
X802Y373D01*
X816Y373D02*
X832Y373D01*
X867Y373D02*
X883Y373D01*
X897Y373D02*
X913Y373D01*
X944Y373D02*
X960Y373D01*
X974Y373D02*
X990Y373D01*
X1022Y373D02*
X1039Y373D01*
X1052Y373D02*
X1069Y373D01*
X1101Y373D02*
X1117Y373D01*
X1131Y373D02*
X1147Y373D01*
X1180Y373D02*
X1196Y373D01*
X1210Y373D02*
X1226Y373D01*
X1259Y373D02*
X1275Y373D01*
X1289Y373D02*
X1305Y373D01*
X1337Y373D02*
X1354Y373D01*
X1367Y373D02*
X1384Y373D01*
X786Y372D02*
X804Y372D01*
X814Y372D02*
X832Y372D01*
X867Y372D02*
X885Y372D01*
X895Y372D02*
X913Y372D01*
X944Y372D02*
X962Y372D01*
X972Y372D02*
X990Y372D01*
X1022Y372D02*
X1041Y372D01*
X1050Y372D02*
X1069Y372D01*
X1101Y372D02*
X1119Y372D01*
X1129Y372D02*
X1147Y372D01*
X1180Y372D02*
X1198Y372D01*
X1208Y372D02*
X1226Y372D01*
X1259Y372D02*
X1277Y372D01*
X1287Y372D02*
X1305Y372D01*
X1337Y372D02*
X1356Y372D01*
X1365Y372D02*
X1384Y372D01*
X786Y371D02*
X832Y371D01*
X867Y371D02*
X913Y371D01*
X944Y371D02*
X990Y371D01*
X1022Y371D02*
X1069Y371D01*
X1101Y371D02*
X1147Y371D01*
X1180Y371D02*
X1226Y371D01*
X1259Y371D02*
X1305Y371D01*
X1337Y371D02*
X1384Y371D01*
X786Y370D02*
X832Y370D01*
X867Y370D02*
X913Y370D01*
X944Y370D02*
X990Y370D01*
X1022Y370D02*
X1069Y370D01*
X1101Y370D02*
X1147Y370D01*
X1180Y370D02*
X1226Y370D01*
X1259Y370D02*
X1305Y370D01*
X1337Y370D02*
X1384Y370D01*
X786Y369D02*
X832Y369D01*
X867Y369D02*
X913Y369D01*
X944Y369D02*
X990Y369D01*
X1022Y369D02*
X1069Y369D01*
X1101Y369D02*
X1147Y369D01*
X1180Y369D02*
X1226Y369D01*
X1259Y369D02*
X1305Y369D01*
X1337Y369D02*
X1384Y369D01*
X786Y368D02*
X832Y368D01*
X867Y368D02*
X913Y368D01*
X944Y368D02*
X990Y368D01*
X1022Y368D02*
X1069Y368D01*
X1101Y368D02*
X1147Y368D01*
X1180Y368D02*
X1226Y368D01*
X1259Y368D02*
X1305Y368D01*
X1337Y368D02*
X1384Y368D01*
X786Y367D02*
X832Y367D01*
X867Y367D02*
X913Y367D01*
X944Y367D02*
X990Y367D01*
X1022Y367D02*
X1069Y367D01*
X1101Y367D02*
X1147Y367D01*
X1180Y367D02*
X1226Y367D01*
X1259Y367D02*
X1305Y367D01*
X1337Y367D02*
X1384Y367D01*
X786Y366D02*
X832Y366D01*
X867Y366D02*
X913Y366D01*
X944Y366D02*
X990Y366D01*
X1022Y366D02*
X1069Y366D01*
X1101Y366D02*
X1147Y366D01*
X1180Y366D02*
X1226Y366D01*
X1259Y366D02*
X1305Y366D01*
X1337Y366D02*
X1384Y366D01*
X786Y365D02*
X832Y365D01*
X867Y365D02*
X913Y365D01*
X944Y365D02*
X990Y365D01*
X1022Y365D02*
X1069Y365D01*
X1101Y365D02*
X1147Y365D01*
X1180Y365D02*
X1226Y365D01*
X1259Y365D02*
X1305Y365D01*
X1337Y365D02*
X1384Y365D01*
X786Y364D02*
X832Y364D01*
X867Y364D02*
X913Y364D01*
X944Y364D02*
X990Y364D01*
X1022Y364D02*
X1069Y364D01*
X1101Y364D02*
X1147Y364D01*
X1180Y364D02*
X1226Y364D01*
X1259Y364D02*
X1305Y364D01*
X1337Y364D02*
X1384Y364D01*
X786Y363D02*
X832Y363D01*
X867Y363D02*
X913Y363D01*
X944Y363D02*
X990Y363D01*
X1022Y363D02*
X1069Y363D01*
X1101Y363D02*
X1147Y363D01*
X1180Y363D02*
X1226Y363D01*
X1259Y363D02*
X1305Y363D01*
X1337Y363D02*
X1384Y363D01*
X786Y362D02*
X832Y362D01*
X867Y362D02*
X913Y362D01*
X944Y362D02*
X990Y362D01*
X1022Y362D02*
X1069Y362D01*
X1101Y362D02*
X1147Y362D01*
X1180Y362D02*
X1226Y362D01*
X1259Y362D02*
X1305Y362D01*
X1337Y362D02*
X1384Y362D01*
X786Y361D02*
X832Y361D01*
X867Y361D02*
X913Y361D01*
X944Y361D02*
X990Y361D01*
X1022Y361D02*
X1069Y361D01*
X1101Y361D02*
X1147Y361D01*
X1180Y361D02*
X1226Y361D01*
X1259Y361D02*
X1305Y361D01*
X1337Y361D02*
X1384Y361D01*
X786Y360D02*
X832Y360D01*
X867Y360D02*
X913Y360D01*
X944Y360D02*
X990Y360D01*
X1022Y360D02*
X1069Y360D01*
X1101Y360D02*
X1147Y360D01*
X1180Y360D02*
X1226Y360D01*
X1259Y360D02*
X1305Y360D01*
X1337Y360D02*
X1384Y360D01*
X786Y359D02*
X832Y359D01*
X867Y359D02*
X913Y359D01*
X944Y359D02*
X990Y359D01*
X1022Y359D02*
X1069Y359D01*
X1101Y359D02*
X1147Y359D01*
X1180Y359D02*
X1226Y359D01*
X1259Y359D02*
X1305Y359D01*
X1337Y359D02*
X1384Y359D01*
X786Y358D02*
X832Y358D01*
X867Y358D02*
X913Y358D01*
X944Y358D02*
X990Y358D01*
X1022Y358D02*
X1069Y358D01*
X1101Y358D02*
X1147Y358D01*
X1180Y358D02*
X1226Y358D01*
X1259Y358D02*
X1305Y358D01*
X1337Y358D02*
X1384Y358D01*
X786Y357D02*
X832Y357D01*
X867Y357D02*
X913Y357D01*
X944Y357D02*
X990Y357D01*
X1022Y357D02*
X1069Y357D01*
X1101Y357D02*
X1147Y357D01*
X1180Y357D02*
X1226Y357D01*
X1259Y357D02*
X1305Y357D01*
X1337Y357D02*
X1384Y357D01*
X786Y356D02*
X832Y356D01*
X867Y356D02*
X913Y356D01*
X944Y356D02*
X990Y356D01*
X1022Y356D02*
X1069Y356D01*
X1101Y356D02*
X1147Y356D01*
X1180Y356D02*
X1226Y356D01*
X1259Y356D02*
X1305Y356D01*
X1337Y356D02*
X1384Y356D01*
X786Y355D02*
X832Y355D01*
X867Y355D02*
X913Y355D01*
X944Y355D02*
X990Y355D01*
X1022Y355D02*
X1069Y355D01*
X1101Y355D02*
X1147Y355D01*
X1180Y355D02*
X1226Y355D01*
X1259Y355D02*
X1305Y355D01*
X1337Y355D02*
X1384Y355D01*
X786Y354D02*
X832Y354D01*
X867Y354D02*
X913Y354D01*
X944Y354D02*
X990Y354D01*
X1022Y354D02*
X1069Y354D01*
X1101Y354D02*
X1147Y354D01*
X1180Y354D02*
X1226Y354D01*
X1259Y354D02*
X1305Y354D01*
X1337Y354D02*
X1384Y354D01*
X786Y353D02*
X832Y353D01*
X867Y353D02*
X913Y353D01*
X944Y353D02*
X990Y353D01*
X1022Y353D02*
X1069Y353D01*
X1101Y353D02*
X1147Y353D01*
X1180Y353D02*
X1226Y353D01*
X1259Y353D02*
X1305Y353D01*
X1337Y353D02*
X1384Y353D01*
X786Y352D02*
X832Y352D01*
X867Y352D02*
X913Y352D01*
X944Y352D02*
X990Y352D01*
X1022Y352D02*
X1069Y352D01*
X1101Y352D02*
X1147Y352D01*
X1180Y352D02*
X1226Y352D01*
X1259Y352D02*
X1305Y352D01*
X1337Y352D02*
X1384Y352D01*
X786Y351D02*
X832Y351D01*
X867Y351D02*
X913Y351D01*
X944Y351D02*
X990Y351D01*
X1022Y351D02*
X1069Y351D01*
X1101Y351D02*
X1147Y351D01*
X1180Y351D02*
X1226Y351D01*
X1259Y351D02*
X1305Y351D01*
X1337Y351D02*
X1384Y351D01*
X786Y350D02*
X832Y350D01*
X867Y350D02*
X913Y350D01*
X944Y350D02*
X990Y350D01*
X1022Y350D02*
X1069Y350D01*
X1101Y350D02*
X1147Y350D01*
X1180Y350D02*
X1226Y350D01*
X1259Y350D02*
X1305Y350D01*
X1337Y350D02*
X1384Y350D01*
X786Y349D02*
X832Y349D01*
X867Y349D02*
X913Y349D01*
X944Y349D02*
X990Y349D01*
X1022Y349D02*
X1069Y349D01*
X1101Y349D02*
X1147Y349D01*
X1180Y349D02*
X1226Y349D01*
X1259Y349D02*
X1305Y349D01*
X1337Y349D02*
X1384Y349D01*
X786Y348D02*
X832Y348D01*
X867Y348D02*
X913Y348D01*
X944Y348D02*
X990Y348D01*
X1022Y348D02*
X1069Y348D01*
X1101Y348D02*
X1147Y348D01*
X1180Y348D02*
X1226Y348D01*
X1259Y348D02*
X1305Y348D01*
X1337Y348D02*
X1384Y348D01*
X786Y347D02*
X832Y347D01*
X867Y347D02*
X913Y347D01*
X944Y347D02*
X990Y347D01*
X1022Y347D02*
X1069Y347D01*
X1101Y347D02*
X1147Y347D01*
X1180Y347D02*
X1226Y347D01*
X1259Y347D02*
X1305Y347D01*
X1337Y347D02*
X1384Y347D01*
X786Y346D02*
X832Y346D01*
X867Y346D02*
X913Y346D01*
X944Y346D02*
X990Y346D01*
X1022Y346D02*
X1069Y346D01*
X1101Y346D02*
X1147Y346D01*
X1180Y346D02*
X1226Y346D01*
X1259Y346D02*
X1305Y346D01*
X1337Y346D02*
X1384Y346D01*
X786Y345D02*
X832Y345D01*
X867Y345D02*
X913Y345D01*
X944Y345D02*
X990Y345D01*
X1022Y345D02*
X1069Y345D01*
X1101Y345D02*
X1147Y345D01*
X1180Y345D02*
X1226Y345D01*
X1259Y345D02*
X1305Y345D01*
X1337Y345D02*
X1384Y345D01*
X786Y344D02*
X832Y344D01*
X867Y344D02*
X913Y344D01*
X944Y344D02*
X990Y344D01*
X1022Y344D02*
X1069Y344D01*
X1101Y344D02*
X1147Y344D01*
X1180Y344D02*
X1226Y344D01*
X1259Y344D02*
X1305Y344D01*
X1337Y344D02*
X1384Y344D01*
X786Y343D02*
X832Y343D01*
X867Y343D02*
X913Y343D01*
X944Y343D02*
X990Y343D01*
X1022Y343D02*
X1069Y343D01*
X1101Y343D02*
X1147Y343D01*
X1180Y343D02*
X1226Y343D01*
X1259Y343D02*
X1305Y343D01*
X1337Y343D02*
X1384Y343D01*
X786Y342D02*
X832Y342D01*
X867Y342D02*
X913Y342D01*
X944Y342D02*
X990Y342D01*
X1022Y342D02*
X1069Y342D01*
X1101Y342D02*
X1147Y342D01*
X1180Y342D02*
X1226Y342D01*
X1259Y342D02*
X1305Y342D01*
X1337Y342D02*
X1384Y342D01*
X786Y341D02*
X832Y341D01*
X867Y341D02*
X913Y341D01*
X944Y341D02*
X990Y341D01*
X1022Y341D02*
X1069Y341D01*
X1101Y341D02*
X1147Y341D01*
X1180Y341D02*
X1226Y341D01*
X1259Y341D02*
X1305Y341D01*
X1337Y341D02*
X1384Y341D01*
X786Y340D02*
X832Y340D01*
X867Y340D02*
X913Y340D01*
X944Y340D02*
X990Y340D01*
X1022Y340D02*
X1069Y340D01*
X1101Y340D02*
X1147Y340D01*
X1180Y340D02*
X1226Y340D01*
X1259Y340D02*
X1305Y340D01*
X1337Y340D02*
X1384Y340D01*
X786Y339D02*
X832Y339D01*
X867Y339D02*
X913Y339D01*
X944Y339D02*
X990Y339D01*
X1022Y339D02*
X1069Y339D01*
X1101Y339D02*
X1147Y339D01*
X1180Y339D02*
X1226Y339D01*
X1259Y339D02*
X1305Y339D01*
X1337Y339D02*
X1384Y339D01*
X786Y338D02*
X832Y338D01*
X867Y338D02*
X913Y338D01*
X944Y338D02*
X990Y338D01*
X1022Y338D02*
X1069Y338D01*
X1101Y338D02*
X1147Y338D01*
X1180Y338D02*
X1226Y338D01*
X1259Y338D02*
X1305Y338D01*
X1337Y338D02*
X1384Y338D01*
X786Y337D02*
X832Y337D01*
X867Y337D02*
X913Y337D01*
X944Y337D02*
X990Y337D01*
X1022Y337D02*
X1069Y337D01*
X1101Y337D02*
X1147Y337D01*
X1180Y337D02*
X1226Y337D01*
X1259Y337D02*
X1305Y337D01*
X1337Y337D02*
X1384Y337D01*
X786Y336D02*
X832Y336D01*
X867Y336D02*
X913Y336D01*
X944Y336D02*
X990Y336D01*
X1022Y336D02*
X1069Y336D01*
X1101Y336D02*
X1147Y336D01*
X1180Y336D02*
X1226Y336D01*
X1259Y336D02*
X1305Y336D01*
X1337Y336D02*
X1384Y336D01*
X786Y335D02*
X832Y335D01*
X867Y335D02*
X913Y335D01*
X944Y335D02*
X990Y335D01*
X1022Y335D02*
X1069Y335D01*
X1101Y335D02*
X1147Y335D01*
X1180Y335D02*
X1226Y335D01*
X1259Y335D02*
X1305Y335D01*
X1337Y335D02*
X1384Y335D01*
X786Y334D02*
X832Y334D01*
X867Y334D02*
X913Y334D01*
X944Y334D02*
X990Y334D01*
X1022Y334D02*
X1069Y334D01*
X1101Y334D02*
X1147Y334D01*
X1180Y334D02*
X1226Y334D01*
X1259Y334D02*
X1305Y334D01*
X1337Y334D02*
X1384Y334D01*
X786Y333D02*
X832Y333D01*
X867Y333D02*
X913Y333D01*
X944Y333D02*
X990Y333D01*
X1022Y333D02*
X1069Y333D01*
X1101Y333D02*
X1147Y333D01*
X1180Y333D02*
X1226Y333D01*
X1259Y333D02*
X1305Y333D01*
X1337Y333D02*
X1384Y333D01*
X786Y332D02*
X832Y332D01*
X867Y332D02*
X913Y332D01*
X944Y332D02*
X990Y332D01*
X1022Y332D02*
X1069Y332D01*
X1101Y332D02*
X1147Y332D01*
X1180Y332D02*
X1226Y332D01*
X1259Y332D02*
X1305Y332D01*
X1337Y332D02*
X1384Y332D01*
X786Y331D02*
X832Y331D01*
X867Y331D02*
X913Y331D01*
X944Y331D02*
X990Y331D01*
X1022Y331D02*
X1069Y331D01*
X1101Y331D02*
X1147Y331D01*
X1180Y331D02*
X1226Y331D01*
X1259Y331D02*
X1305Y331D01*
X1337Y331D02*
X1384Y331D01*
X786Y330D02*
X832Y330D01*
X867Y330D02*
X913Y330D01*
X944Y330D02*
X990Y330D01*
X1022Y330D02*
X1069Y330D01*
X1101Y330D02*
X1147Y330D01*
X1180Y330D02*
X1226Y330D01*
X1259Y330D02*
X1305Y330D01*
X1337Y330D02*
X1384Y330D01*
X786Y329D02*
X832Y329D01*
X867Y329D02*
X913Y329D01*
X944Y329D02*
X990Y329D01*
X1022Y329D02*
X1069Y329D01*
X1101Y329D02*
X1147Y329D01*
X1180Y329D02*
X1226Y329D01*
X1259Y329D02*
X1305Y329D01*
X1337Y329D02*
X1384Y329D01*
X786Y328D02*
X832Y328D01*
X867Y328D02*
X913Y328D01*
X944Y328D02*
X990Y328D01*
X1022Y328D02*
X1069Y328D01*
X1101Y328D02*
X1147Y328D01*
X1180Y328D02*
X1226Y328D01*
X1259Y328D02*
X1305Y328D01*
X1337Y328D02*
X1384Y328D01*
X786Y327D02*
X832Y327D01*
X867Y327D02*
X913Y327D01*
X944Y327D02*
X990Y327D01*
X1022Y327D02*
X1069Y327D01*
X1101Y327D02*
X1147Y327D01*
X1180Y327D02*
X1226Y327D01*
X1259Y327D02*
X1305Y327D01*
X1337Y327D02*
X1384Y327D01*
X786Y326D02*
X832Y326D01*
X867Y326D02*
X913Y326D01*
X944Y326D02*
X990Y326D01*
X1022Y326D02*
X1069Y326D01*
X1101Y326D02*
X1147Y326D01*
X1180Y326D02*
X1226Y326D01*
X1259Y326D02*
X1305Y326D01*
X1337Y326D02*
X1384Y326D01*
X786Y325D02*
X832Y325D01*
X867Y325D02*
X913Y325D01*
X944Y325D02*
X990Y325D01*
X1022Y325D02*
X1069Y325D01*
X1101Y325D02*
X1147Y325D01*
X1180Y325D02*
X1226Y325D01*
X1259Y325D02*
X1305Y325D01*
X1337Y325D02*
X1384Y325D01*
X786Y324D02*
X832Y324D01*
X867Y324D02*
X913Y324D01*
X944Y324D02*
X990Y324D01*
X1022Y324D02*
X1069Y324D01*
X1101Y324D02*
X1147Y324D01*
X1180Y324D02*
X1226Y324D01*
X1259Y324D02*
X1305Y324D01*
X1337Y324D02*
X1384Y324D01*
X786Y323D02*
X832Y323D01*
X867Y323D02*
X913Y323D01*
X944Y323D02*
X990Y323D01*
X1022Y323D02*
X1069Y323D01*
X1101Y323D02*
X1147Y323D01*
X1180Y323D02*
X1226Y323D01*
X1259Y323D02*
X1305Y323D01*
X1337Y323D02*
X1384Y323D01*
X786Y322D02*
X832Y322D01*
X867Y322D02*
X913Y322D01*
X944Y322D02*
X990Y322D01*
X1022Y322D02*
X1069Y322D01*
X1101Y322D02*
X1147Y322D01*
X1180Y322D02*
X1226Y322D01*
X1259Y322D02*
X1305Y322D01*
X1337Y322D02*
X1384Y322D01*
X786Y321D02*
X832Y321D01*
X867Y321D02*
X913Y321D01*
X944Y321D02*
X990Y321D01*
X1022Y321D02*
X1069Y321D01*
X1101Y321D02*
X1147Y321D01*
X1180Y321D02*
X1226Y321D01*
X1259Y321D02*
X1305Y321D01*
X1337Y321D02*
X1384Y321D01*
X786Y320D02*
X832Y320D01*
X867Y320D02*
X913Y320D01*
X944Y320D02*
X990Y320D01*
X1022Y320D02*
X1069Y320D01*
X1101Y320D02*
X1147Y320D01*
X1180Y320D02*
X1226Y320D01*
X1259Y320D02*
X1305Y320D01*
X1337Y320D02*
X1384Y320D01*
X786Y319D02*
X832Y319D01*
X867Y319D02*
X913Y319D01*
X944Y319D02*
X990Y319D01*
X1022Y319D02*
X1069Y319D01*
X1101Y319D02*
X1147Y319D01*
X1180Y319D02*
X1226Y319D01*
X1259Y319D02*
X1305Y319D01*
X1337Y319D02*
X1384Y319D01*
X786Y318D02*
X832Y318D01*
X867Y318D02*
X913Y318D01*
X944Y318D02*
X990Y318D01*
X1022Y318D02*
X1069Y318D01*
X1101Y318D02*
X1147Y318D01*
X1180Y318D02*
X1226Y318D01*
X1259Y318D02*
X1305Y318D01*
X1337Y318D02*
X1384Y318D01*
X786Y317D02*
X832Y317D01*
X867Y317D02*
X913Y317D01*
X944Y317D02*
X990Y317D01*
X1022Y317D02*
X1069Y317D01*
X1101Y317D02*
X1147Y317D01*
X1180Y317D02*
X1226Y317D01*
X1259Y317D02*
X1305Y317D01*
X1337Y317D02*
X1384Y317D01*
X786Y316D02*
X832Y316D01*
X867Y316D02*
X913Y316D01*
X944Y316D02*
X990Y316D01*
X1022Y316D02*
X1069Y316D01*
X1101Y316D02*
X1147Y316D01*
X1180Y316D02*
X1226Y316D01*
X1259Y316D02*
X1305Y316D01*
X1337Y316D02*
X1384Y316D01*
D02*
G04 End of Copper1*
M02*