; NON-PLATED HOLES START AT T1
; THROUGH (PLATED) HOLES START AT T100
M48
INCH
T100C0.040000
T101C0.100000
T102C0.041352
T103C0.015748
T104C0.035000
T105C0.030000
T106C0.041057
T107C0.031496
T108C0.038583
T109C0.032000
T110C0.038000
%
T100
X022006Y001008
X014509Y001013
X034508Y012781
X032509Y001013
X031506Y001008
X016497Y012781
X005008Y012781
X025997Y012781
X023008Y012781
X014508Y012781
X032508Y012781
X006009Y001013
X035498Y001012
X024009Y001013
X015509Y001013
X003008Y012781
X033509Y001013
X012508Y012781
X006008Y012781
X035497Y012781
X006998Y001012
X004009Y001013
X024008Y012781
X003006Y001008
X015508Y012781
X013509Y001013
X033508Y012781
X012506Y001008
X025009Y001013
X006997Y012781
X004008Y012781
X034509Y001013
X022008Y012781
X013508Y012781
X016498Y001012
X031508Y012781
X005009Y001013
X025008Y012781
X025998Y001012
X023009Y001013
T101
X003044Y010197
X005444Y010197
X004244Y008297
T102
X030708Y003281
X033708Y003281
X031708Y003281
T103
X005408Y008881
X005108Y005081
X020408Y006981
T104
X037451Y003181
X037451Y004953
X037407Y010641
X037407Y008870
T105
X016708Y008981
X016708Y009983
T106
X032706Y003279
T107
X020149Y000901
X018575Y000901
T108
X036439Y005273
X036395Y010962
X036395Y008523
X036439Y002834
T109
X018908Y004881
X016908Y004881
X019908Y004881
X017908Y004881
X021908Y004881
X016908Y007881
X018908Y007881
X026908Y004881
X024908Y004881
X020908Y004881
X022908Y004881
X017908Y007881
X019908Y007881
X027908Y004881
X025908Y004881
X023908Y004881
X021908Y007881
X026908Y007881
X020908Y007881
X022908Y007881
X024908Y007881
X025908Y007881
X027908Y007881
X023908Y007881
T110
X011381Y000992
X010381Y000992
X009381Y000992
X017817Y011057
X008381Y000992
X020888Y011057
T00
M30
